<?xml version="1.0" encoding="utf-8"?>
<!-- Generator: Adobe Illustrator 13.0.0, SVG Export Plug-In . SVG Version: 6.00 Build 14948)  -->
<!DOCTYPE svg PUBLIC "-//W3C//DTD SVG 1.1//EN" "http://www.w3.org/Graphics/SVG/1.1/DTD/svg11.dtd">
<svg version="1.1" id="Слой_1" xmlns="http://www.w3.org/2000/svg" xmlns:xlink="http://www.w3.org/1999/xlink" x="0px" y="0px"
	 width="32px" height="32px" viewBox="0 0 32 32" enable-background="new 0 0 32 32" xml:space="preserve">
<linearGradient id="Arrow_Back_1_" gradientUnits="userSpaceOnUse" x1="-4.6929" y1="1.4346" x2="28.3071" y2="26.4346">
	<stop  offset="0" style="stop-color:#DF72FF"/>
	<stop  offset="1" style="stop-color:#7C41F3"/>
</linearGradient>
<path id="Arrow_Back" fill="url(#Arrow_Back_1_)" d="M31.105,15H3.278l8.325-8.293c0.391-0.391,0.391-1.024,0-1.414
	c-0.391-0.391-1.024-0.391-1.414,0l-9.9,9.899c-0.385,0.385-0.385,1.029,0,1.414l9.9,9.9c0.391,0.391,1.024,0.391,1.414,0
	c0.391-0.391,0.391-1.023,0-1.414L3.278,17h27.828c0.555,0,1-0.448,1-1S31.658,15,31.105,15z"/>
</svg>
