<?xml version="1.0" encoding="utf-8"?>
<!-- Generator: Adobe Illustrator 13.0.0, SVG Export Plug-In . SVG Version: 6.00 Build 14948)  -->
<!DOCTYPE svg PUBLIC "-//W3C//DTD SVG 1.1//EN" "http://www.w3.org/Graphics/SVG/1.1/DTD/svg11.dtd">
<svg version="1.1" id="Layer_1" xmlns="http://www.w3.org/2000/svg" xmlns:xlink="http://www.w3.org/1999/xlink" x="0px" y="0px"
	 width="200px" height="200px" viewBox="0 0 200 200" enable-background="new 0 0 200 200" xml:space="preserve">
<title>Asset 75</title>
<linearGradient id="XMLID_2_" gradientUnits="userSpaceOnUse" x1="25.1406" y1="4.3706" x2="186.1406" y2="159.3706">
	<stop  offset="0" style="stop-color:#DF72FF"/>
	<stop  offset="1" style="stop-color:#7C41F3"/>
</linearGradient>
<path id="XMLID_1732_" fill="url(#XMLID_2_)" d="M199.081,54.208l-23.146,72.905c-1.734,5.191-6.275,8.652-11.682,8.652H74.905
	c-5.192,0-10.167-3.244-11.898-8.006L28.826,36.25H9.139c-4.759,0-8.653-3.892-8.653-8.653c0-4.76,3.894-8.654,8.653-8.654h25.745
	c3.674,0,6.92,2.379,8.221,5.842l35.262,93.673h82.208l18.389-58.411H77.069c-4.758,0-8.653-3.892-8.653-8.653
	c0-4.76,3.896-8.654,8.653-8.654h113.791c2.813,0,5.408,1.516,6.926,3.679C199.516,48.584,199.945,51.61,199.081,54.208z
	 M79.232,147.232c-3.677,0-7.356,1.514-9.953,4.108c-2.597,2.597-4.108,6.272-4.108,9.951c0,3.676,1.512,7.356,4.108,9.95
	c2.598,2.594,6.276,4.109,9.953,4.109c3.677,0,7.353-1.518,9.951-4.109c2.597-2.596,4.111-6.274,4.111-9.95
	c0-3.681-1.514-7.354-4.111-9.951C86.586,148.745,82.909,147.232,79.232,147.232z M156.895,147.232
	c-3.678,0-7.354,1.514-9.947,4.108c-2.598,2.597-4.111,6.272-4.111,9.951c0,3.676,1.516,7.356,4.111,9.95
	c2.597,2.594,6.271,4.109,9.947,4.109c3.68,0,7.357-1.518,9.955-4.109c2.594-2.596,4.106-6.274,4.106-9.95
	c0-3.681-1.515-7.354-4.106-9.951C164.252,148.746,160.575,147.232,156.895,147.232z"/>
</svg>
