<?xml version="1.0" encoding="utf-8"?>
<!-- Generator: Adobe Illustrator 13.0.0, SVG Export Plug-In . SVG Version: 6.00 Build 14948)  -->
<!DOCTYPE svg PUBLIC "-//W3C//DTD SVG 1.1//EN" "http://www.w3.org/Graphics/SVG/1.1/DTD/svg11.dtd">
<svg version="1.1" id="Layer_1" xmlns="http://www.w3.org/2000/svg" xmlns:xlink="http://www.w3.org/1999/xlink" x="0px" y="0px"
	 width="200px" height="200px" viewBox="0 0 200 200" enable-background="new 0 0 200 200" xml:space="preserve">
<title>Asset 38</title>
<linearGradient id="SVGID_1_" gradientUnits="userSpaceOnUse" x1="10.2393" y1="5.75" x2="190.2393" y2="193.75">
	<stop  offset="0" style="stop-color:#DF72FF"/>
	<stop  offset="1" style="stop-color:#7C41F3"/>
</linearGradient>
<path fill="url(#SVGID_1_)" d="M175,2H25C11.193,2,0,13.193,0,27v64.5v34V172c0,13.807,11.193,25,25,25h150
	c13.807,0,25-11.193,25-25v-46.5v-34V27C200,13.193,188.807,2,175,2z M183.344,125.5V172c-0.018,4.602-3.742,8.326-8.344,8.344H25
	c-4.601-0.018-8.327-3.742-8.344-8.344v-46.5v-34V27c0.017-4.601,3.743-8.327,8.344-8.344h150c4.602,0.017,8.326,3.743,8.344,8.344
	v64.5V125.5z"/>
<linearGradient id="SVGID_2_" gradientUnits="userSpaceOnUse" x1="-32.9434" y1="47.0957" x2="147.0566" y2="235.0957">
	<stop  offset="0" style="stop-color:#DF72FF"/>
	<stop  offset="1" style="stop-color:#7C41F3"/>
</linearGradient>
<rect x="47.167" y="119.833" fill="url(#SVGID_2_)" width="18" height="40.667"/>
<linearGradient id="SVGID_3_" gradientUnits="userSpaceOnUse" x1="-11.4492" y1="26.5161" x2="168.5508" y2="214.5161">
	<stop  offset="0" style="stop-color:#DF72FF"/>
	<stop  offset="1" style="stop-color:#7C41F3"/>
</linearGradient>
<circle fill="url(#SVGID_3_)" cx="56.833" cy="97.833" r="9.667"/>
<linearGradient id="SVGID_4_" gradientUnits="userSpaceOnUse" x1="-3.3198" y1="18.7324" x2="176.6802" y2="206.7324">
	<stop  offset="0" style="stop-color:#DF72FF"/>
	<stop  offset="1" style="stop-color:#7C41F3"/>
</linearGradient>
<rect x="91.5" y="93.833" fill="url(#SVGID_4_)" width="18" height="66.667"/>
<linearGradient id="SVGID_5_" gradientUnits="userSpaceOnUse" x1="25.168" y1="-8.5435" x2="205.168" y2="179.4565">
	<stop  offset="0" style="stop-color:#DF72FF"/>
	<stop  offset="1" style="stop-color:#7C41F3"/>
</linearGradient>
<circle fill="url(#SVGID_5_)" cx="101.167" cy="70.833" r="9.667"/>
<linearGradient id="SVGID_6_" gradientUnits="userSpaceOnUse" x1="23.6025" y1="-7.0444" x2="203.6025" y2="180.9556">
	<stop  offset="0" style="stop-color:#DF72FF"/>
	<stop  offset="1" style="stop-color:#7C41F3"/>
</linearGradient>
<rect x="134.167" y="75.167" fill="url(#SVGID_6_)" width="18" height="85.333"/>
<linearGradient id="SVGID_7_" gradientUnits="userSpaceOnUse" x1="57.7515" y1="-39.7402" x2="237.7515" y2="148.2598">
	<stop  offset="0" style="stop-color:#DF72FF"/>
	<stop  offset="1" style="stop-color:#7C41F3"/>
</linearGradient>
<circle fill="url(#SVGID_7_)" cx="143.833" cy="50.167" r="9.667"/>
</svg>
