<?xml version="1.0" encoding="utf-8"?>
<!-- Generator: Adobe Illustrator 13.0.0, SVG Export Plug-In . SVG Version: 6.00 Build 14948)  -->
<!DOCTYPE svg PUBLIC "-//W3C//DTD SVG 1.1//EN" "http://www.w3.org/Graphics/SVG/1.1/DTD/svg11.dtd">
<svg version="1.1" id="Layer_1" xmlns="http://www.w3.org/2000/svg" xmlns:xlink="http://www.w3.org/1999/xlink" x="0px" y="0px"
	 width="200px" height="200px" viewBox="0 0 200 200" enable-background="new 0 0 200 200" xml:space="preserve">
<title>Asset 60</title>
<linearGradient id="SVGID_1_" gradientUnits="userSpaceOnUse" x1="36.8105" y1="14.5322" x2="157.8105" y2="178.5322">
	<stop  offset="0" style="stop-color:#DF72FF"/>
	<stop  offset="1" style="stop-color:#7C41F3"/>
</linearGradient>
<path fill="url(#SVGID_1_)" d="M99.5,1C45.1,1,1,45.1,1,99.5C1,153.898,45.1,198,99.5,198c54.398,0,98.5-44.102,98.5-98.5
	C198,45.1,153.898,1,99.5,1z M99.5,184C52.832,184,15,146.168,15,99.5S52.832,15,99.5,15S184,52.832,184,99.5S146.168,184,99.5,184z
	"/>
<linearGradient id="SVGID_2_" gradientUnits="userSpaceOnUse" x1="6.4199" y1="36.9546" x2="127.4199" y2="200.9546">
	<stop  offset="0" style="stop-color:#DF72FF"/>
	<stop  offset="1" style="stop-color:#7C41F3"/>
</linearGradient>
<rect x="36.166" y="83.188" fill="url(#SVGID_2_)" width="33.292" height="33.291"/>
<linearGradient id="SVGID_3_" gradientUnits="userSpaceOnUse" x1="36.8804" y1="14.481" x2="157.8804" y2="178.481">
	<stop  offset="0" style="stop-color:#DF72FF"/>
	<stop  offset="1" style="stop-color:#7C41F3"/>
</linearGradient>
<rect x="83.208" y="83.188" fill="url(#SVGID_3_)" width="33.292" height="33.291"/>
<linearGradient id="SVGID_4_" gradientUnits="userSpaceOnUse" x1="66.6665" y1="-7.4956" x2="187.6665" y2="156.5044">
	<stop  offset="0" style="stop-color:#DF72FF"/>
	<stop  offset="1" style="stop-color:#7C41F3"/>
</linearGradient>
<rect x="129.208" y="83.188" fill="url(#SVGID_4_)" width="33.292" height="33.291"/>
</svg>
