<?xml version="1.0" encoding="utf-8"?>
<!-- Generator: Adobe Illustrator 13.0.0, SVG Export Plug-In . SVG Version: 6.00 Build 14948)  -->
<!DOCTYPE svg PUBLIC "-//W3C//DTD SVG 1.1//EN" "http://www.w3.org/Graphics/SVG/1.1/DTD/svg11.dtd">
<svg version="1.1" id="Layer_1" xmlns="http://www.w3.org/2000/svg" xmlns:xlink="http://www.w3.org/1999/xlink" x="0px" y="0px"
	 width="200px" height="200px" viewBox="0 0 200 200" enable-background="new 0 0 200 200" xml:space="preserve">
<title>Asset 60</title>
<linearGradient id="SVGID_1_" gradientUnits="userSpaceOnUse" x1="29.1865" y1="9.9604" x2="157.1865" y2="172.9604">
	<stop  offset="0" style="stop-color:#DF72FF"/>
	<stop  offset="1" style="stop-color:#7C41F3"/>
</linearGradient>
<path fill="url(#SVGID_1_)" d="M99.5,1C45.1,1,1,45.1,1,99.5C1,153.898,45.1,198,99.5,198c54.398,0,98.5-44.102,98.5-98.5
	C198,45.1,153.898,1,99.5,1z M99.5,184C52.832,184,15,146.168,15,99.5S52.832,15,99.5,15S184,52.832,184,99.5S146.168,184,99.5,184z
	"/>
<linearGradient id="SVGID_2_" gradientUnits="userSpaceOnUse" x1="9.3926" y1="25.5044" x2="137.3926" y2="188.5044">
	<stop  offset="0" style="stop-color:#DF72FF"/>
	<stop  offset="1" style="stop-color:#7C41F3"/>
</linearGradient>
<rect x="44.5" y="76.5" fill="url(#SVGID_2_)" width="46" height="46"/>
<linearGradient id="SVGID_3_" gradientUnits="userSpaceOnUse" x1="49.5991" y1="-6.0688" x2="177.5991" y2="156.9312">
	<stop  offset="0" style="stop-color:#DF72FF"/>
	<stop  offset="1" style="stop-color:#7C41F3"/>
</linearGradient>
<rect x="109.5" y="76.5" fill="url(#SVGID_3_)" width="46" height="46"/>
</svg>
