<?xml version="1.0" encoding="utf-8"?>
<!-- Generator: Adobe Illustrator 13.0.0, SVG Export Plug-In . SVG Version: 6.00 Build 14948)  -->
<!DOCTYPE svg PUBLIC "-//W3C//DTD SVG 1.1//EN" "http://www.w3.org/Graphics/SVG/1.1/DTD/svg11.dtd">
<svg version="1.1" id="Layer_1" xmlns="http://www.w3.org/2000/svg" xmlns:xlink="http://www.w3.org/1999/xlink" x="0px" y="0px"
	 width="200px" height="200px" viewBox="0 0 200 200" enable-background="new 0 0 200 200" xml:space="preserve">
<title>Asset 60</title>
<linearGradient id="SVGID_1_" gradientUnits="userSpaceOnUse" x1="39.6626" y1="13.8008" x2="157.6626" y2="182.8008">
	<stop  offset="0" style="stop-color:#DF72FF"/>
	<stop  offset="1" style="stop-color:#7C41F3"/>
</linearGradient>
<path fill="url(#SVGID_1_)" d="M99.5,1C45.1,1,1,45.1,1,99.5C1,153.898,45.1,198,99.5,198c54.398,0,98.5-44.102,98.5-98.5
	C198,45.1,153.898,1,99.5,1z M99.5,184C52.832,184,15,146.168,15,99.5S52.832,15,99.5,15S184,52.832,184,99.5S146.168,184,99.5,184z
	"/>
<linearGradient id="SVGID_2_" gradientUnits="userSpaceOnUse" x1="3.6733" y1="38.9292" x2="121.6733" y2="207.9292">
	<stop  offset="0" style="stop-color:#DF72FF"/>
	<stop  offset="1" style="stop-color:#7C41F3"/>
</linearGradient>
<rect x="31.958" y="85.443" fill="url(#SVGID_2_)" width="27.782" height="27.782"/>
<linearGradient id="SVGID_3_" gradientUnits="userSpaceOnUse" x1="27.2588" y1="22.4614" x2="145.2588" y2="191.4614">
	<stop  offset="0" style="stop-color:#DF72FF"/>
	<stop  offset="1" style="stop-color:#7C41F3"/>
</linearGradient>
<rect x="67.042" y="85.443" fill="url(#SVGID_3_)" width="27.782" height="27.782"/>
<linearGradient id="SVGID_4_" gradientUnits="userSpaceOnUse" x1="52.7266" y1="4.6792" x2="170.7266" y2="173.6792">
	<stop  offset="0" style="stop-color:#DF72FF"/>
	<stop  offset="1" style="stop-color:#7C41F3"/>
</linearGradient>
<rect x="104.925" y="85.443" fill="url(#SVGID_4_)" width="27.783" height="27.782"/>
<linearGradient id="SVGID_5_" gradientUnits="userSpaceOnUse" x1="77.125" y1="-12.3564" x2="195.125" y2="156.6436">
	<stop  offset="0" style="stop-color:#DF72FF"/>
	<stop  offset="1" style="stop-color:#7C41F3"/>
</linearGradient>
<rect x="141.219" y="85.443" fill="url(#SVGID_5_)" width="27.781" height="27.782"/>
</svg>
