<?xml version="1.0" encoding="utf-8"?>
<!-- Generator: Adobe Illustrator 13.0.0, SVG Export Plug-In . SVG Version: 6.00 Build 14948)  -->
<!DOCTYPE svg PUBLIC "-//W3C//DTD SVG 1.1//EN" "http://www.w3.org/Graphics/SVG/1.1/DTD/svg11.dtd">
<svg version="1.1" id="Layer_1" xmlns="http://www.w3.org/2000/svg" xmlns:xlink="http://www.w3.org/1999/xlink" x="0px" y="0px"
	 width="200px" height="200px" viewBox="0 0 200 200" enable-background="new 0 0 200 200" xml:space="preserve">
<title>Asset 24</title>
<g id="Layer_2">
	<g id="Layer_1-2">
		<linearGradient id="SVGID_1_" gradientUnits="userSpaceOnUse" x1="1.6704" y1="22.793" x2="231.6704" y2="216.793">
			<stop  offset="0" style="stop-color:#DF72FF"/>
			<stop  offset="1" style="stop-color:#7C41F3"/>
		</linearGradient>
		<path fill="url(#SVGID_1_)" d="M180.375,36.625v104.156c0.035,0.563,0.035,1.125,0,1.688
			c-1.281,8.531-12.031,15.219-25.219,15.219c-14.063,0-25.375-7.594-25.375-16.905c0-9.313,11.313-16.938,25.375-16.938
			c2.777,0.045,5.537,0.434,8.219,1.156V36.625c0.021-4.117-2.965-7.634-7.031-8.281L88.75,17c-2.485-0.406-5.022,0.303-6.938,1.938
			c-1.829,1.635-2.855,3.985-2.813,6.438v153.47c-0.075,4.58-1.99,8.938-5.313,12.094c-6.621,6.145-15.412,9.403-24.438,9.063
			c-16.344,0-29.625-9.375-29.625-21.156s13.281-21.156,29.625-21.156c4.319-0.012,8.608,0.707,12.688,2.125V25.438
			C61.88,11.44,73.181,0.047,87.177-0.01c1.448-0.006,2.895,0.112,4.323,0.354l67.625,11.313
			C171.396,13.599,180.42,24.2,180.375,36.625z"/>
	</g>
</g>
</svg>
