<?xml version="1.0" encoding="utf-8"?>
<!-- Generator: Adobe Illustrator 13.0.0, SVG Export Plug-In . SVG Version: 6.00 Build 14948)  -->
<!DOCTYPE svg PUBLIC "-//W3C//DTD SVG 1.1//EN" "http://www.w3.org/Graphics/SVG/1.1/DTD/svg11.dtd">
<svg version="1.1" id="Layer_1" xmlns="http://www.w3.org/2000/svg" xmlns:xlink="http://www.w3.org/1999/xlink" x="0px" y="0px"
	 width="200px" height="200px" viewBox="0 0 200 200" enable-background="new 0 0 200 200" xml:space="preserve">
<title>Asset 38</title>
<linearGradient id="SVGID_1_" gradientUnits="userSpaceOnUse" x1="-18.0903" y1="29.6016" x2="157.9097" y2="214.6016">
	<stop  offset="0" style="stop-color:#DF72FF"/>
	<stop  offset="1" style="stop-color:#7C41F3"/>
</linearGradient>
<rect x="67.503" y="128.844" fill="url(#SVGID_1_)" width="33.487" height="16.656"/>
<linearGradient id="SVGID_2_" gradientUnits="userSpaceOnUse" x1="-35.8574" y1="46.5039" x2="140.1426" y2="231.5039">
	<stop  offset="0" style="stop-color:#DF72FF"/>
	<stop  offset="1" style="stop-color:#7C41F3"/>
</linearGradient>
<rect x="33.656" y="128.844" fill="url(#SVGID_2_)" width="33.487" height="16.656"/>
<linearGradient id="SVGID_3_" gradientUnits="userSpaceOnUse" x1="128.7832" y1="110.9941" x2="175.7832" y2="83.9941">
	<stop  offset="0" style="stop-color:#DF72FF"/>
	<stop  offset="1" style="stop-color:#7C41F3"/>
</linearGradient>
<rect x="66.472" y="128.844" fill="url(#SVGID_3_)" width="33.487" height="16.656"/>
<linearGradient id="SVGID_4_" gradientUnits="userSpaceOnUse" x1="-35.8574" y1="46.5039" x2="140.1426" y2="231.5039">
	<stop  offset="0" style="stop-color:#DF72FF"/>
	<stop  offset="1" style="stop-color:#7C41F3"/>
</linearGradient>
<rect x="33.656" y="128.844" fill="url(#SVGID_4_)" width="33.487" height="16.656"/>
<linearGradient id="SVGID_5_" gradientUnits="userSpaceOnUse" x1="16.6846" y1="-3.4814" x2="192.6846" y2="181.5186">
	<stop  offset="0" style="stop-color:#DF72FF"/>
	<stop  offset="1" style="stop-color:#7C41F3"/>
</linearGradient>
<rect x="134" y="128.844" fill="url(#SVGID_5_)" width="32.99" height="16.656"/>
<linearGradient id="SVGID_6_" gradientUnits="userSpaceOnUse" x1="-0.8184" y1="13.1699" x2="175.1816" y2="198.1699">
	<stop  offset="0" style="stop-color:#DF72FF"/>
	<stop  offset="1" style="stop-color:#7C41F3"/>
</linearGradient>
<rect x="100.656" y="128.844" fill="url(#SVGID_6_)" width="32.99" height="16.656"/>
<linearGradient id="SVGID_7_" gradientUnits="userSpaceOnUse" x1="145.2256" y1="139.6152" x2="192.2256" y2="112.6152">
	<stop  offset="0" style="stop-color:#DF72FF"/>
	<stop  offset="1" style="stop-color:#7C41F3"/>
</linearGradient>
<rect x="132.984" y="128.844" fill="url(#SVGID_7_)" width="32.99" height="16.656"/>
<linearGradient id="SVGID_8_" gradientUnits="userSpaceOnUse" x1="-0.8184" y1="13.1699" x2="175.1816" y2="198.1699">
	<stop  offset="0" style="stop-color:#DF72FF"/>
	<stop  offset="1" style="stop-color:#7C41F3"/>
</linearGradient>
<rect x="100.656" y="128.844" fill="url(#SVGID_8_)" width="32.99" height="16.656"/>
<linearGradient id="SVGID_9_" gradientUnits="userSpaceOnUse" x1="-0.6123" y1="12.9736" x2="175.3877" y2="197.9736">
	<stop  offset="0" style="stop-color:#DF72FF"/>
	<stop  offset="1" style="stop-color:#7C41F3"/>
</linearGradient>
<rect x="67.503" y="93.844" fill="url(#SVGID_9_)" width="33.487" height="16.656"/>
<linearGradient id="SVGID_10_" gradientUnits="userSpaceOnUse" x1="-18.3789" y1="29.876" x2="157.6211" y2="214.876">
	<stop  offset="0" style="stop-color:#DF72FF"/>
	<stop  offset="1" style="stop-color:#7C41F3"/>
</linearGradient>
<rect x="33.656" y="93.844" fill="url(#SVGID_10_)" width="33.487" height="16.656"/>
<linearGradient id="SVGID_11_" gradientUnits="userSpaceOnUse" x1="113.666" y1="84.6787" x2="160.666" y2="57.6787">
	<stop  offset="0" style="stop-color:#DF72FF"/>
	<stop  offset="1" style="stop-color:#7C41F3"/>
</linearGradient>
<rect x="66.472" y="93.844" fill="url(#SVGID_11_)" width="33.487" height="16.656"/>
<linearGradient id="SVGID_12_" gradientUnits="userSpaceOnUse" x1="-18.3789" y1="29.876" x2="157.6211" y2="214.876">
	<stop  offset="0" style="stop-color:#DF72FF"/>
	<stop  offset="1" style="stop-color:#7C41F3"/>
</linearGradient>
<rect x="33.656" y="93.844" fill="url(#SVGID_12_)" width="33.487" height="16.656"/>
<linearGradient id="SVGID_13_" gradientUnits="userSpaceOnUse" x1="34.1626" y1="-20.1094" x2="210.1626" y2="164.8906">
	<stop  offset="0" style="stop-color:#DF72FF"/>
	<stop  offset="1" style="stop-color:#7C41F3"/>
</linearGradient>
<rect x="134" y="93.844" fill="url(#SVGID_13_)" width="32.99" height="16.656"/>
<linearGradient id="SVGID_14_" gradientUnits="userSpaceOnUse" x1="16.6602" y1="-3.4585" x2="192.6601" y2="181.5415">
	<stop  offset="0" style="stop-color:#DF72FF"/>
	<stop  offset="1" style="stop-color:#7C41F3"/>
</linearGradient>
<rect x="100.656" y="93.844" fill="url(#SVGID_14_)" width="32.99" height="16.656"/>
<linearGradient id="SVGID_15_" gradientUnits="userSpaceOnUse" x1="130.1084" y1="113.3008" x2="177.1084" y2="86.3008">
	<stop  offset="0" style="stop-color:#DF72FF"/>
	<stop  offset="1" style="stop-color:#7C41F3"/>
</linearGradient>
<rect x="132.984" y="93.844" fill="url(#SVGID_15_)" width="32.99" height="16.656"/>
<linearGradient id="SVGID_16_" gradientUnits="userSpaceOnUse" x1="16.6602" y1="-3.4585" x2="192.6601" y2="181.5415">
	<stop  offset="0" style="stop-color:#DF72FF"/>
	<stop  offset="1" style="stop-color:#7C41F3"/>
</linearGradient>
<rect x="100.656" y="93.844" fill="url(#SVGID_16_)" width="32.99" height="16.656"/>
<linearGradient id="SVGID_17_" gradientUnits="userSpaceOnUse" x1="25.5649" y1="-11.9297" x2="201.5649" y2="173.0703">
	<stop  offset="0" style="stop-color:#DF72FF"/>
	<stop  offset="1" style="stop-color:#7C41F3"/>
</linearGradient>
<rect x="33.344" y="58" fill="url(#SVGID_17_)" width="133.344" height="16.656"/>
<linearGradient id="SVGID_18_" gradientUnits="userSpaceOnUse" x1="8.9912" y1="3.8374" x2="184.9912" y2="188.8374">
	<stop  offset="0" style="stop-color:#DF72FF"/>
	<stop  offset="1" style="stop-color:#7C41F3"/>
</linearGradient>
<path fill="url(#SVGID_18_)" d="M175,2H25C11.193,2,0,13.193,0,27v64.5v34V172c0,13.807,11.193,25,25,25h150
	c13.807,0,25-11.193,25-25v-46.5v-34V27C200,13.193,188.807,2,175,2z M183.344,125.5V172c-0.018,4.602-3.742,8.326-8.344,8.344H25
	c-4.601-0.018-8.327-3.742-8.344-8.344v-46.5v-34V27c0.017-4.601,3.743-8.327,8.344-8.344h150c4.602,0.017,8.326,3.743,8.344,8.344
	v64.5V125.5z"/>
</svg>
