<?xml version="1.0" encoding="utf-8"?>
<!-- Generator: Adobe Illustrator 13.0.0, SVG Export Plug-In . SVG Version: 6.00 Build 14948)  -->
<!DOCTYPE svg PUBLIC "-//W3C//DTD SVG 1.1//EN" "http://www.w3.org/Graphics/SVG/1.1/DTD/svg11.dtd">
<svg version="1.1" id="Layer_1" xmlns="http://www.w3.org/2000/svg" xmlns:xlink="http://www.w3.org/1999/xlink" x="0px" y="0px"
	 width="500px" height="550px" viewBox="0 0 500 550" enable-background="new 0 0 500 550" xml:space="preserve">
<path fill="#6E5395" d="M116.095,184.24c-0.226,0.223,3.479,4.39,11.163,8.925c7.589,4.536,19.534,9.03,33.27,9.129
	c13.738,0.101,25.748-4.214,33.402-8.637c7.75-4.422,11.516-8.535,11.294-8.762c-0.319-0.406-4.533,3.066-12.29,6.865
	c-7.687,3.812-19.268,7.599-32.382,7.502c-13.116-0.097-24.638-4.055-32.269-7.979C120.58,187.369,116.419,183.838,116.095,184.24"
	/>
<path fill="#6E5395" d="M199.899,177.944c0.212,0.461,4.311-1.24,11.219-2.781c3.442-0.812,7.619-1.438,12.274-2.016
	c4.669-0.518,9.83-0.926,15.282-1.314c5.455-0.384,10.675-0.824,15.417-1.411c4.737-0.627,8.998-1.377,12.508-2.325
	c7.045-1.839,11.034-4.016,10.895-4.321c-0.181-0.464-4.378,0.968-11.354,2.224c-3.48,0.665-7.68,1.179-12.356,1.645
	c-4.688,0.428-9.865,0.779-15.326,1.163c-5.464,0.392-10.691,0.891-15.428,1.569c-4.733,0.743-8.984,1.609-12.453,2.714
	C203.596,175.219,199.744,177.655,199.899,177.944"/>
<path fill="#6E5395" d="M283,88.323c-13.097-2.776-26.667-0.385-39.872,1.815c-13.206,2.2-26.919,4.184-39.829,0.639
	c-23.311-6.398-41.009-29.95-65.18-29.76c-9.954,0.08-19.338,4.328-29.036,6.577c-12.042,2.794-24.586,2.495-36.788,4.487
	c-12.199,1.993-24.801,6.899-31.696,17.16c-8.18,12.177-5.936,29.352,2.646,41.249c8.583,11.899,22.33,19.142,36.413,23.248
	c9.822,2.862,20.288,4.518,28.791,10.214c8.598,5.762,14.212,15.037,22.226,21.589c20.103,16.441,51.391,11.729,72.158-3.865
	c5.219-3.919,10.055-8.466,15.917-11.333c23.842-11.671,58.131,3.781,78.668-17.456C318.268,131.323,315.3,95.173,283,88.323"/>
<path fill="#F4B19F" d="M289.543,505.971c0,0-21.848,46.822-24.401,38.155c-2.549-8.675-1.707-29.498-0.338-32.473
	c1.375-2.972,10.305-16.106,10.305-16.106L289.543,505.971z"/>
<path fill="#FFC5B1" d="M131.579,127.336c-2.02,2.591-0.67-0.191-2.958,3.544c-9.512-0.333-15.899-8.382-15.899-8.382
	s-15.101,0.398-14.924-2.298c0.173-2.702,14.474-1.693,14.474-1.693s-15.128-4.751-14.299-7.124
	c0.825-2.371,18.295,5.191,18.295,5.191s-17.629-10.941-15.025-12.695c2.603-1.75,19.562,7.801,19.562,7.801
	s-14.738-12.108-12.528-13.668c2.204-1.561,22.646,14.196,22.646,14.196c-0.298-7.751,5.263-7.48,5.263-7.48l-0.23,18.926
	C135.954,123.654,132.51,126.144,131.579,127.336"/>
<path fill="#FFC5B1" d="M355.385,41.68c3.232,0.594,0.725-0.529,4.921,0.75c6.887-6.567,5.972-16.888,5.972-16.888
	s11.554-9.724,9.638-11.625c-1.927-1.905-11.949,8.343-11.949,8.343s8.153-13.598,5.961-14.823
	c-2.189-1.22-10.235,16.03-10.235,16.03s5.92-19.883,2.809-19.468c-3.108,0.418-9.451,18.814-9.451,18.814
	s2.983-18.833,0.299-18.535c-2.684,0.295-7.516,25.653-7.516,25.653c-4.922-5.995-8.897-2.099-8.897-2.099l12.479,13.718
	C349.413,41.551,353.899,41.408,355.385,41.68"/>
<path fill="#FFC5B1" d="M277.016,120.734c4.18-0.685,14.282,6.027,19.336,16.97c2.828,6.125,4.777,12.346,1.528,22.307
	c-1.528,4.686-4.731,5.273-5.442,7.372c-0.905,2.658,2.086,11.033,2.086,11.033l-11.925,4.816
	c-0.775-5.754-1.653-11.543-7.519-14.042c-2.193-0.936-4.541-1.527-6.61-2.712c-5.589-3.205-8.572-10.21-10.864-15.947
	C255.891,146.249,266.543,122.451,277.016,120.734"/>
<path fill="#F4B19F" d="M291.212,283.361l19.978-8.019c0,0,59.291,109.953,59.046,140.458c-0.246,30.507-81.434,91.58-81.434,91.58
	l-13.693-11.834c0,0,25.067-43.707,38.467-59.118C326.975,421.016,291.212,283.361,291.212,283.361"/>
<path fill="#FFC5B1" d="M192.015,408.61c0,0-44.032-20.893-35.184-22.739c8.848-1.836,29.541,0.696,32.391,2.302
	c2.856,1.609,15.219,11.579,15.219,11.579L192.015,408.61z"/>
<path fill="#FFC5B1" d="M271.589,282.407l30.307,11.026c0,0,30.317,133.344,18.743,154.279
	c-11.57,20.941-44.073,7.082-90.366-18.183l-38.774-21.166l12.942-8.612c0,0,45.118,8.839,57.79,17.656
	c0,0-6.61-18.738-15.43-45.186C237.987,345.772,231.906,318.774,271.589,282.407"/>
<path fill="#FFC5B1" d="M308.894,191.563c0-8.861-2.851-15.269-11.712-15.269s-21.105,3.107-21.105,11.967
	c0,8.864,6.98,23.254,15.845,23.254C300.779,211.516,308.894,200.428,308.894,191.563"/>
<path fill="#FFC5B1" d="M301.896,175.026c0,0,27.55-29.813,33.062-59.02c5.516-29.202,14.876-76.59,14.876-76.59l10.471,3.015
	c0,0,4.962,64.763,0,74.681c-4.957,9.917-29.188,75.949-36.565,93.292L301.896,175.026z"/>
<path fill="#FFC5B1" d="M272.298,198.264c0,0-2.116-9.274-36.954-21.879c-34.836-12.605-100.558-53.453-100.558-53.453l-6.558,7.502
	c0,0,35.71,41.246,56.485,48.482c20.774,7.238,64.903,35.762,69.442,38.046C261.019,220.415,260.935,224.762,272.298,198.264"/>
<path fill="#2C373F" d="M301.896,175.026c0,0,27.992,9.071,27.992,51.663c0,0-0.02,58.331-6.613,68.941c0,0-10.728,2.751-24.095,0
	c-14.023-2.882-27.589-13.226-27.589-13.226l-22.019-66.096l2.634-30.973l29.936-5.781c0,0-8.589,40.134,22.481,22.879
	c6.04-3.353-8.882-26.121-8.882-26.121L301.896,175.026z"/>
<path fill="#2C373F" d="M325.58,209.666l13.793-28.734c0,0-1.979-17.43-27.298-23.678c0,0-2.562,8.786-5.366,12.143
	c-2.807,3.357-10.978,6.926-10.978,6.926L325.58,209.666z"/>
<path fill="#2C373F" d="M273.438,221.215l-43.857-8.989c0,0-7.625-15.796,10.455-34.59c0,0,34.208,2.064,38.635,2.433
	c4.36,0.364,1.367,3.719,1.367,3.719L273.438,221.215z"/>
<path fill="#2C373F" d="M323.341,281.424c0,0,41.484,76.694,48.336,90.398c0,0-122.381,56.216-172.059-11.451
	c0,0,28.26-59.813,71.947-82.584l18.848-5.641l32.192,8.909"/>
<path fill="#FFC5B1" d="M259.21,149.807c0,0-4.724-4.726-7.632-1.455c-2.907,3.271,10.537,7.997,10.537,7.997L259.21,149.807z"/>
<path fill="#6E5395" d="M172.776,85.36c-0.047,0.166,1.778,0.954,5.264,1.782c3.477,0.836,8.636,1.595,15.042,1.725
	c6.404,0.128,14.016-0.441,22.352-1.571c8.339-1.105,17.4-2.73,26.934-3.77c9.515-1.017,18.667-1.203,26.771,0.107
	c8.106,1.286,15.124,3.941,20.484,7.042c5.364,3.125,9.096,6.593,11.386,9.217c2.309,2.626,3.341,4.304,3.577,4.163
	c0.126-0.067-0.563-1.956-2.654-4.9c-2.073-2.936-5.735-6.807-11.195-10.311c-5.454-3.481-12.71-6.472-21.135-7.967
	c-8.438-1.52-17.875-1.402-27.559-0.365c-9.69,1.057-18.76,2.774-27.004,4.019c-8.245,1.27-15.691,2.046-21.963,2.194
	C180.501,87.073,172.89,84.842,172.776,85.36"/>
<path fill="#F97A5D" d="M283.272,147.125c0.014,0.186,1.36,0.313,3.414-0.366c0.509-0.179,1.108-0.415,1.667-0.925
	c0.277-0.256,0.532-0.596,0.689-1.007c0.225-0.571,0.207-1.218-0.016-1.712c-0.066-0.102-0.064-0.338-0.191-0.342l-0.399-0.011
	c-0.258-0.038-0.56,0.048-0.856,0.104c-0.542,0.104-0.715,0.086-1.102,0.113c-0.676,0.016-1.383-0.053-2.082-0.21
	c-2.867-0.603-4.79-2.69-5.649-4.408c-0.905-1.728-0.983-3.027-1.223-3.012c-0.17-0.022-0.506,1.359,0.239,3.445
	c0.379,1.02,1.039,2.193,2.105,3.222c1.061,1.026,2.529,1.87,4.195,2.233c0.831,0.186,1.668,0.257,2.475,0.212
	c0.348-0.015,0.9-0.086,1.064-0.122c0.146-0.026,0.128-0.059,0.155-0.04c0.017,0.016,0.027,0.047,0.025,0.085
	c-0.061,0.202-0.168,0.392-0.321,0.562c-0.307,0.344-0.75,0.604-1.186,0.82C284.499,146.638,283.238,146.898,283.272,147.125"/>
<path fill="#FFFFFF" d="M293.109,147.635L276.956,154C276.956,154,291.153,163.791,293.109,147.635"/>
<path fill="#F4B19F" d="M270.057,150.698c0.573,1.09,2.353,1.282,3.977,0.428c1.621-0.854,2.472-2.43,1.896-3.518
	c-0.574-1.091-2.352-1.28-3.975-0.429C270.335,148.034,269.482,149.609,270.057,150.698"/>
<path fill="#F4B19F" d="M288.085,141.138c0.49,1.129,2.251,1.457,3.933,0.729c1.683-0.729,2.651-2.234,2.162-3.364
	c-0.489-1.13-2.249-1.457-3.932-0.729C288.566,138.503,287.599,140.008,288.085,141.138"/>
<path fill="#EDA091" d="M294.071,165.354c0,0-5.664,4.743-11.572,3.216c0,0,2.037,3.054,9.88,1.934
	C292.379,170.503,291.727,167.137,294.071,165.354"/>
<path fill="#2C373F" d="M271.605,140.552c0,0.706,0.574,1.28,1.281,1.28s1.278-0.574,1.278-1.28s-0.571-1.28-1.278-1.28
	S271.605,139.846,271.605,140.552"/>
<path fill="#2C373F" d="M282.081,136.779c0,0.706,0.573,1.28,1.28,1.28c0.705,0,1.278-0.574,1.278-1.28s-0.573-1.281-1.278-1.281
	C282.654,135.498,282.081,136.073,282.081,136.779"/>
<path fill="#6E5395" d="M267.493,137.142c0.395,0.168,1.16-0.757,2.315-1.503c1.132-0.784,2.28-1.134,2.278-1.563
	c0.039-0.411-1.565-0.744-3.119,0.302C267.407,135.414,267.099,137.018,267.493,137.142"/>
<path fill="#6E5395" d="M285.954,130.931c0.025-0.399-1.35-0.903-3.189-0.852c-1.874,0.037-3.257,0.947-3.067,1.327
	c0.18,0.384,1.483,0.221,3.128,0.188C284.478,131.544,285.929,131.366,285.954,130.931"/>
<path fill="#2C373F" d="M280.185,524.997c0,0-6.721,23.852-13.658,21.898c-6.941-1.95-1.723-35.242-1.723-35.242l6.926-10.942
	C271.729,500.711,265.225,556.438,280.185,524.997"/>
<path fill="#2C373F" d="M195.442,392.748c0,0-4.889-5.332-10.811-6.218c-5.926-0.893-27.104-3.41-30.214-0.595
	c-3.11,2.815,17.165,12.249,17.165,12.249s-7.065-4.5-4.131-6.175C172.634,389.044,195.442,392.748,195.442,392.748"/>
<polygon fill="#2C373F" points="203.844,399.135 197.214,412.598 193.598,410.589 202.438,397.328 "/>
<polygon fill="#2C373F" points="277.981,490.151 294.257,504.819 289.435,508.837 275.772,493.969 "/>
</svg>
