<?xml version="1.0" encoding="utf-8"?>
<!-- Generator: Adobe Illustrator 13.0.0, SVG Export Plug-In . SVG Version: 6.00 Build 14948)  -->
<!DOCTYPE svg PUBLIC "-//W3C//DTD SVG 1.1//EN" "http://www.w3.org/Graphics/SVG/1.1/DTD/svg11.dtd">
<svg version="1.1" id="Layer_1" xmlns="http://www.w3.org/2000/svg" xmlns:xlink="http://www.w3.org/1999/xlink" x="0px" y="0px"
	 width="500px" height="600px" viewBox="0 0 500 600" enable-background="new 0 0 500 600" xml:space="preserve">
<path fill="#2C373F" d="M304.069,145.371c4.464-11.078,6.179-23.409,12.84-33.321c9.584-14.266,27.993-21.343,35.771-36.667
	c3.304-6.507,4.34-13.953,4.374-21.251c0.063-14.441-4.26-29.791-15.414-38.967c-12.814-10.543-32.042-10.396-47.053-3.313
	c-15.005,7.084-26.473,19.942-36.223,33.371c-9.748,13.429-18.282,27.841-29.635,39.944c-8.419,8.974-18.404,16.711-24.745,27.256
	c-17.384,28.901,0.502,65.469,31.19,75.901C262.141,197.488,294.742,168.526,304.069,145.371"/>
<path fill="#FFC5B1" d="M342.485,349.214c-2.669,2.195,0.243,0.676-3.639,3.202c0.866,9.699,9.837,15.811,9.837,15.811
	s0.378,15.443,3.261,15.126c2.889-0.313,1.039-14.868,1.039-14.868s5.907,15.209,8.404,14.24c2.498-0.965-6.543-18.418-6.543-18.418
	s12.672,17.443,14.413,14.694c1.739-2.748-9.412-19.58-9.412-19.58s13.77,14.435,15.325,12.098
	c1.553-2.332-16.432-22.406-16.432-22.406c8.324-0.092,7.734-5.759,7.734-5.759l-20.276,1.202
	C346.197,344.556,343.713,348.201,342.485,349.214"/>
<path fill="#FFC5B1" d="M148.785,57.977c-3.47,0.609-0.777-0.54-5.277,0.768c-7.396-6.715-6.415-17.272-6.415-17.272
	s-12.401-9.944-10.344-11.888c2.068-1.947,12.826,8.533,12.826,8.533s-8.751-13.906-6.401-15.159
	c2.353-1.25,10.987,16.392,10.987,16.392s-6.353-20.334-3.014-19.908c3.336,0.428,10.146,19.242,10.146,19.242
	s-3.204-19.261-0.322-18.957c2.88,0.304,7.542,25.537,7.542,25.537c6.792-5.527,11.543-1.99,11.543-1.99l-14.861,14.571
	C155.196,57.847,150.38,57.7,148.785,57.977"/>
<path fill="#FFC5B1" d="M233.669,142.312c-6.273-0.979-25.403,11.418-20.534,36.59c0.407,2.114,3.167,6.768,3.854,8.69
	c0.869,2.439-5.898,11.358-5.898,11.358l17.468,5.581c0.746-5.276-0.507-12.988,5.139-15.28c2.109-0.857,4.368-1.401,6.362-2.487
	c5.38-2.938,8.25-9.364,10.458-14.623c1.65-3.932,2.907-8.158,2.86-12.424C253.263,148.976,243.75,143.888,233.669,142.312"/>
<path fill="#FFC5B1" d="M198.688,211.255c0-9.061,2.875-12.519,12.382-12.519c9.511,0,22.066,3.458,22.066,12.519
	c0,9.063-6.717,20.404-16.229,20.404C207.397,231.659,198.688,220.318,198.688,211.255"/>
<path fill="#FFC5B1" d="M206.197,194.345c0,0-29.569-30.489-35.485-60.355c-5.916-29.864-15.966-78.328-15.966-78.328l-11.241,3.084
	c0,0-5.325,66.228,0,76.373c5.324,10.141,35.488,80.582,34.896,98.609L206.197,194.345z"/>
<path fill="#FFC5B1" d="M258.909,209.106c0,0,10.056,1.69,25.433,36.629c15.38,34.937,62.695,99.978,62.695,99.978l-7.69,7.082
	c0,0-46.132-34.369-55.005-55.218c-8.869-20.85-20.106-46.771-25.433-45.646C253.589,253.062,231.112,222.065,258.909,209.106"/>
<path fill="#F97A5D" d="M179.742,238.388l-13.77-38.004c0,0,2.123-17.826,29.301-24.216l15.394,22.183L179.742,238.388z"/>
<path fill="#F97A5D" d="M254.318,206.191c0,0,16.245,1.369,29.412,30.288c0,0-14.479,19.99-25.072,20.665
	C258.658,257.144,219.314,223.513,254.318,206.191"/>
<path fill="#FFC5B1" d="M209.687,549.146c0,0,23.45,47.883,26.19,39.017c2.737-8.868,1.833-30.165,0.361-33.204
	c-1.472-3.043-11.059-16.474-11.059-16.474L209.687,549.146z"/>
<path fill="#5D4484" d="M207.895,321.494l-21.443-8.198c0,0-63.643,112.44-63.379,143.639c0.265,31.194,87.408,93.655,87.408,93.655
	l14.699-12.104c0,0-41.305-60.727-55.688-76.489c-7.191-7.883,44.297-46.504,52.096-83.667
	C229.387,341.165,207.895,321.494,207.895,321.494"/>
<path fill="#FFC5B1" d="M336.828,524.061c0,0,43.864,32.332,42.04,23.258c-1.83-9.083-12.873-27.616-15.643-29.679
	c-2.772-2.06-17.749-9.815-17.749-9.815L336.828,524.061z"/>
<path fill="#6E5395" d="M266.237,361.31l-63.444-36.767c0,0-2.519,127.726,12.712,155.342
	c15.227,27.615,122.724,45.113,122.724,45.113l7.247-17.174c0,0-66.319-39.514-86.681-47.246
	C238.433,452.841,266.237,361.31,266.237,361.31"/>
<path fill="#6E5395" d="M228.451,299.39c0,0,46.718,16.54,37.785,61.919c-8.929,45.381-23.813,53.889-23.813,53.889l-26.792-43.96
	l-26.898-57.569l26.898-3.41L228.451,299.39z"/>
<path fill="#F97A5D" d="M206.197,194.345c0,0-34.392,19.275-34.392,62.828c0,0,4.37,49.656,11.449,60.508c0,0,11.512,2.809,25.865,0
	c15.047-2.948,29.611-13.525,29.611-13.525l11.753-60.792l9.144-35.497l-4.958-1.637l-25.867-2.839c0,0,3.718,38.64-25.167,19.45
	c-6.083-4.042,7.572-24.188,7.572-24.188L206.197,194.345z"/>
<path fill="#2C373F" d="M338.765,79.604c-0.136-0.122-1.729,1.324-4.247,4.271c-2.506,2.953-5.926,7.441-9.36,13.499
	c-3.445,6.032-6.858,13.686-9.29,22.57c-2.52,8.818-4.21,18.731-8.084,28.278c-2.012,4.718-4.448,9.108-7.349,12.99
	c-2.928,3.857-6.174,7.244-9.516,10.196c-6.829,5.745-13.981,9.697-20.357,11.983c-6.369,2.314-11.824,3.353-15.615,3.729
	c-3.789,0.416-5.93,0.48-5.933,0.727c-0.01,0.155,2.125,0.481,6.016,0.406c3.888-0.029,9.547-0.772,16.214-2.909
	c6.67-2.107,14.208-6.006,21.415-11.879c3.532-3.018,6.971-6.511,10.065-10.53c3.068-4.04,5.661-8.658,7.767-13.603
	c4.035-9.98,5.63-19.98,7.977-28.681c2.243-8.731,5.358-16.245,8.51-22.29c3.131-6.063,6.237-10.657,8.439-13.791
	C337.632,81.444,338.931,79.75,338.765,79.604"/>
<path fill="#2C373F" d="M250.167,30.388c-0.53-0.082-1.045,7.017-5.017,17.517c-1.983,5.23-4.935,11.247-9.171,17.279
	c-2.121,3.021-4.556,5.996-7.314,8.961c-2.74,2.978-5.722,6.002-8.546,9.396c-5.653,6.847-9.544,14.247-13.208,20.779
	c-3.636,6.596-6.533,12.872-8.007,18.484c-1.534,5.595-1.625,10.412-1.139,13.607c0.509,3.208,1.308,4.835,1.441,4.791
	c0.253-0.065-0.16-1.782-0.307-4.893c-0.124-3.105,0.271-7.63,1.988-12.921c1.662-5.31,4.647-11.295,8.374-17.751
	c3.785-6.454,7.709-13.705,13.112-20.229c2.709-3.268,5.654-6.281,8.409-9.333c2.771-3.038,5.293-6.2,7.417-9.365
	c4.266-6.337,7.115-12.65,8.898-18.111c1.823-5.458,2.6-10.062,2.969-13.237C250.432,32.183,250.333,30.402,250.167,30.388"/>
<path fill="#F97A5D" d="M228.06,169.675c0.027-0.205-1.146-0.391-2.256-1.695c-0.256-0.3-0.512-0.739-0.508-0.994
	c0.004-0.274,0.196-0.751,0.528-1.026c0.341-0.307,0.719-0.456,1.224-0.404c0.521,0.039,1.152,0.296,1.977,0.42
	c1.811,0.24,3.222-0.781,4.149-1.61c0.954-0.87,1.682-1.753,2.224-2.545c1.08-1.594,1.417-2.746,1.25-2.831
	c-0.191-0.103-0.841,0.851-2.062,2.188c-0.61,0.664-1.376,1.427-2.282,2.161c-0.895,0.713-1.991,1.362-3.081,1.19
	c-0.581-0.075-1.256-0.345-2.077-0.4c-0.835-0.083-1.765,0.302-2.276,0.877c-0.544,0.587-0.848,1.278-0.786,2.098
	c0.163,0.839,0.607,1.231,0.977,1.597C226.651,170.091,228.111,169.864,228.06,169.675"/>
<path fill="#FFFFFF" d="M219.538,170.874l13.848,5.037C233.386,175.91,221.636,186.192,219.538,170.874"/>
<path fill="#F4B19F" d="M234.769,170.017c-0.554,1.05,0.268,2.57,1.831,3.394c1.563,0.823,3.279,0.64,3.833-0.412
	c0.552-1.05-0.267-2.571-1.83-3.392C237.038,168.782,235.324,168.966,234.769,170.017"/>
<path fill="#F4B19F" d="M218.35,161.597c-0.455,1.098,0.504,2.535,2.136,3.209c1.636,0.675,3.328,0.333,3.782-0.766
	c0.454-1.099-0.505-2.533-2.14-3.208C220.495,160.159,218.803,160.5,218.35,161.597"/>
<path fill="#EDA091" d="M232.978,189.62c0,0-4.634,0.943-10.542-0.532c0,0,2.915,2.829,7.67,3.487
	C230.106,192.574,231.172,190.603,232.978,189.62"/>
<path fill="#2C373F" d="M228.243,158.487c-0.519,0.441-0.581,1.22-0.141,1.739c0.441,0.52,1.217,0.583,1.739,0.145
	c0.52-0.441,0.581-1.22,0.141-1.739C229.54,158.111,228.763,158.046,228.243,158.487"/>
<path fill="#2C373F" d="M237.552,163.842c-0.519,0.44-0.584,1.219-0.144,1.739c0.438,0.52,1.216,0.583,1.74,0.146
	c0.519-0.44,0.582-1.22,0.141-1.742C238.848,163.464,238.071,163.401,237.552,163.842"/>
<path fill="#2C373F" d="M228.189,153.336c0.123,0.396,1.278,0.381,2.549,0.766c1.28,0.345,2.253,0.971,2.569,0.7
	c0.326-0.226-0.428-1.61-2.166-2.104C229.406,152.194,228.031,152.969,228.189,153.336"/>
<path fill="#2C373F" d="M244.266,163.045c0.312-0.229-0.175-1.554-1.36-2.878c-1.197-1.353-2.727-1.805-2.889-1.428
	c-0.17,0.368,0.762,1.227,1.813,2.416C242.893,162.341,243.93,163.299,244.266,163.045"/>
<path fill="#FFC5B1" d="M249.489,173.331c0,0,4.441-3.731,6.574-0.355c2.131,3.375-9.596,5.153-9.596,5.153L249.489,173.331z"/>
<path fill="#6E5395" d="M356.3,513.554c0,0,6.368,2.769,8.028,4.432c1.663,1.66,16.893,27.963,14.952,31.286
	c-1.938,3.321-17.21-7.955-17.21-7.955S374.849,543.734,356.3,513.554"/>
<path fill="#6E5395" d="M232.03,548.336c0,0,4.524,4.891,5.222,7.134c0.695,2.243,1.945,32.61-1.318,34.649
	c-3.258,2.041-12.174-14.716-12.174-14.716s10.657,8.348,8.271-26.996"/>
</svg>
