<?xml version="1.0" encoding="utf-8"?>
<!-- Generator: Adobe Illustrator 13.0.0, SVG Export Plug-In . SVG Version: 6.00 Build 14948)  -->
<!DOCTYPE svg PUBLIC "-//W3C//DTD SVG 1.1//EN" "http://www.w3.org/Graphics/SVG/1.1/DTD/svg11.dtd">
<svg version="1.1" id="Layer_1" xmlns="http://www.w3.org/2000/svg" xmlns:xlink="http://www.w3.org/1999/xlink" x="0px" y="0px"
	 width="500px" height="550px" viewBox="0 0 500 550" enable-background="new 0 0 500 550" xml:space="preserve">
<path fill="#F97A5D" d="M200.226,137.754c0,0-5.205,3.602-2.601,9.609c2.601,6.007,14.013,23.824,29.429,23.223
	c0.632-0.021-19.421-32.832-19.421-32.832H200.226z"/>
<path fill="#6E5395" d="M176.644,466.229c0,0-19.277-17.226-25.448-14.14c-7.541,3.77-50.699,46.057-49.014,65.979
	c0.694,8.158,10.192,1.167,27.117-16.389c16.93-17.555,38.247-10.031,38.247-10.031L176.644,466.229z"/>
<path fill="#6E5395" d="M223.48,495.27l-23.272-13.962c0,0-60.322,56.555-50.898,64.094c7.148,5.719,11.35,0.59,28.277-16.965
	c16.925-17.554,38.371-7.463,38.371-7.463L223.48,495.27z"/>
<polygon fill="#E0A584" points="365.638,309.217 370.003,371.184 273.128,345.949 "/>
<path fill="#1D262D" d="M273.128,348.08c0,0,84.738,5.34,96.021,1.577c0,0,16.563,162.682-12.905,180.233
	c-29.469,17.557-95.596-8.15-95.596-8.15l17.856-35.104l38.494-2.511v-62.691l-2.762,0.625L273.128,348.08z"/>
<path fill="#2C373F" d="M166.905,459.049c0,0-21.313,8.777-14.418,30.094c0,0,72.759,57.051,108.162,43.883
	c19.833-7.372,41.141-63.647,56.047-111.723l52.452-71.649c0,0-24.738,1.241-32.99,1.207c-15.773-0.058-63.03-2.78-63.03-2.78
	s-24.685,129.15-33.48,132.283C230.853,483.496,166.905,459.049,166.905,459.049"/>
<path fill="#FFC5B1" d="M292.873,186.095c0,0,50.787-47.648,59.561-60.189c8.774-12.539,27.59-54.539,50.782-72.096l-11.285-23.824
	c0,0,6.9-3.76,11.285,6.269c0,0,16.297-32.598,20.059-31.974c3.767,0.627-7.521,25.08-7.521,25.08S431.433,6.787,435.82,7.417
	c4.383,0.628-11.287,25.375-11.287,25.375s17.553-20.36,20.06-17.853c2.509,2.508-13.792,17.853-13.792,17.853
	s17.555-10.08,19.436-6.758c1.881,3.326-17.553,12.103-17.553,12.103s-1.883,14.418-13.793,20.688c0,0-23.583,63.719-44.901,84.407
	l-68.477,71.17L292.873,186.095z"/>
<path fill="#FFC5B1" d="M232.252,210.789c0,0-48.117,50.336-60.739,58.995c-12.623,8.655-54.797,27.076-72.568,50.107
	l-23.719-11.506c0,0-3.824,6.857,6.165,11.339c0,0-32.749,15.995-32.158,19.765c0.59,3.768,25.146-7.289,25.146-7.289
	s-22.717,15.467-22.13,19.856c0.586,4.392,25.477-11.048,25.477-11.048s-20.521,17.36-18.035,19.89
	c2.48,2.535,17.978-13.62,17.978-13.62s-10.243,17.458-6.934,19.37c3.304,1.91,12.263-17.438,12.263-17.438
	s14.435-1.744,20.818-13.601c0,0,60.355-24.012,81.244-45.134l75.108-53.22L232.252,210.789z"/>
<path fill="#61E7A6" d="M250.292,190.729l-24.338,23.82l6.171,26.861c0,0,23.979,57.563,27.604,71.605
	c5.633,21.836-3.479,55.128-3.479,55.128s40.646-3.371,77.634-4.628c36.984-1.252,49.085-13.166,49.085-13.166
	s-32.069-106.803-54.205-136.657c-22.146-29.851-30.199-39.196-30.199-39.196l-32.6,7.126L250.292,190.729z"/>
<path fill="#61E7A6" d="M321.716,210.173l25.358-16.203c0,0,3.875-17.36-26.706-37.833l-35.859,22.468L321.716,210.173z"/>
<path fill="#61E7A6" d="M231.083,212.667c-13.903,1.951-39.307,37.184-42.14,37.119c0,0,17.879,29.177,32.043,30.123
	C220.987,279.909,283.312,205.342,231.083,212.667"/>
<path fill="#FFC5B1" d="M280.157,189.744c0,0-20.208-15.098-19.508-21.117c0.179-1.518,2.979-3.979,3.706-6.163
	c3.918-11.754-14.972-42.041-26.579-48.425c-9.131-5.02-5.129-5.463-24.344,5.956c-19.216,11.418-8.268,31.167,0.313,41.378
	c8.112,9.653,17.404,13.79,25.764,14.486l11.886,26.398L280.157,189.744z"/>
<path fill="#FFC5B1" d="M243.695,210.703c-3.822-9.376,3.414-21.185,16.167-26.385c12.753-5.203,26.186-1.82,30.015,7.552
	c3.818,9.371-9.012,23.461-16.176,26.382C266.537,221.172,247.513,220.069,243.695,210.703"/>
<path fill="#FFC5B1" d="M213.747,161.373c0,0-6.555-0.363-7.282,4.006c-0.729,4.367,12.013,4.367,16.748,1.09L213.747,161.373z"/>
<path fill="#F97A5D" d="M217.024,165.378c-1.245-7.894-9.656-13.762-9.237-21.453c4.032,0.031,6.62-4.962,4.786-9.228
	c-0.723-1.677-1.946-3.115-2.728-4.766c-0.779-1.655-0.986-3.819,0.209-4.752c0.567-0.44,1.334-0.518,2.069-0.592
	c5.977-0.614,16.217,1.179,21.718-0.86c5.237-1.941,10.85-5.719,10.304-12.134c-0.476-5.585-5.409-10.117-9.942-13.538
	c-2.596-1.963-10.016-7.094-12.814-6.63c-4.273,0.713-5.309,6.411-5.617,11.185c-2.989-2.847-7.397-2.388-9.996-0.073
	c-2.599,2.313-3.83,5.992-4.961,9.546c-1.135,3.552-2.336,7.241-4.9,9.597c-2.389,2.203-6.169,3.867-5.673,7.607
	c0.588,4.458,6.413,6.044,9.105,9.844c-0.663-0.932-1.225,5.021-0.843,6.031c1.148,3.041,4.017,5.054,6.09,7.378
	C209.013,157.496,211.172,162.486,217.024,165.378"/>
<path fill="#FFFFFF" d="M253.637,147.33l-14.933,7.723C238.704,155.052,256.64,168.072,253.637,147.33"/>
<path fill="#F4B19F" d="M233.094,150.391c0.816,1.548-0.393,3.788-2.697,5c-2.306,1.217-4.837,0.942-5.651-0.606
	c-0.814-1.549,0.391-3.785,2.697-5.001C229.75,148.572,232.277,148.843,233.094,150.391"/>
<path fill="#F4B19F" d="M254.897,135.497c0.816,1.548-0.393,3.788-2.696,5c-2.306,1.216-4.837,0.942-5.652-0.606
	c-0.814-1.549,0.392-3.785,2.697-5.001C251.553,133.676,254.082,133.948,254.897,135.497"/>
<path fill="#F97A5D" d="M243.213,146.782c-0.069-0.088,0.21-0.456,0.856-0.919c0.616-0.478,1.688-0.989,2.484-1.847
	c0.789-0.833,1.074-2.567-0.136-2.807c-1.254-0.431-2.68,1.012-4.314,2.381c-0.404,0.335-0.803,0.668-1.201,0.996
	c-0.369,0.338-1.148,0.836-1.957,0.738c-1.541-0.25-2.198-1.28-2.789-1.966c-1.184-1.52-1.915-3.111-2.318-4.485
	c-0.802-2.781-0.442-4.576-0.25-4.562c0.269-0.012,0.358,1.715,1.375,4.159c0.513,1.216,1.28,2.595,2.397,3.899
	c0.545,0.664,1.23,1.28,1.719,1.299c0.205,0.009,0.365-0.059,0.749-0.382c0.393-0.327,0.787-0.66,1.187-0.998
	c0.823-0.664,1.536-1.336,2.477-1.964c0.916-0.616,2.22-1.007,3.388-0.608c1.249,0.326,1.98,1.78,1.764,2.794
	c-0.141,1.03-0.654,1.79-1.235,2.344c-1.231,1.029-2.331,1.277-3.023,1.585C243.677,146.709,243.286,146.879,243.213,146.782"/>
<path fill="#EDA091" d="M239.509,175.859c0,0,9.524,0.054,14.692-3.127c0,0-4.371,5.369-13.119,6.759L239.509,175.859z"/>
<path fill="#2C373F" d="M243.639,133.144c-0.086,0.47-1.418,0.616-2.826,1.237c-1.425,0.577-2.459,1.432-2.856,1.169
	c-0.407-0.217,0.268-1.917,2.195-2.728C242.079,132.004,243.765,132.698,243.639,133.144"/>
<path fill="#2C373F" d="M224.972,145.387c-0.36-0.266,0.206-1.8,1.577-3.335c1.388-1.565,3.161-2.089,3.348-1.652
	c0.198,0.426-0.883,1.421-2.098,2.798C226.563,144.571,225.363,145.679,224.972,145.387"/>
<path fill="#F97A5D" d="M217.736,143.02c-0.771-0.571-1.374-3.021,1.581-6.32c2.981-3.373,6.313-2.778,6.712-1.841
	c0.429,0.92-0.681,2.229-3.297,5.195C220.077,143.011,218.572,143.649,217.736,143.02"/>
<path fill="#F97A5D" d="M233.417,130.025c-0.426-0.799,0.044-3.125,3.886-4.744c3.895-1.675,6.492,0.173,6.455,1.132
	c-0.007,0.953-1.473,1.622-4.894,3.097C235.415,130.957,233.879,130.895,233.417,130.025"/>
</svg>
