<?xml version="1.0" encoding="utf-8"?>
<!-- Generator: Adobe Illustrator 13.0.0, SVG Export Plug-In . SVG Version: 6.00 Build 14948)  -->
<!DOCTYPE svg PUBLIC "-//W3C//DTD SVG 1.1//EN" "http://www.w3.org/Graphics/SVG/1.1/DTD/svg11.dtd">
<svg version="1.1" id="Layer_1" xmlns="http://www.w3.org/2000/svg" xmlns:xlink="http://www.w3.org/1999/xlink" x="0px" y="0px"
	 width="500px" height="550px" viewBox="0 0 500 550" enable-background="new 0 0 500 550" xml:space="preserve">
<polyline fill="#FFFFFF" points="381.939,157.359 381.939,126.581 375.41,126.581 375.41,73.664 340.399,73.664 340.399,126.581 
	307.671,126.581 307.671,40.352 271.552,40.352 271.552,96.329 263.313,96.329 263.313,29.5 227.195,29.5 227.195,154.798 
	181.516,154.798 181.516,227.865 164.446,227.865 164.446,246.273 125.242,246.273 125.242,214.577 102.735,214.577 
	102.735,128.448 74.93,128.448 74.93,287.441 47.125,287.441 47.125,425.79 74.93,425.79 98.763,425.79 102.735,425.79 
	125.242,425.79 137.965,425.79 158.343,425.79 164.446,425.79 181.516,425.79 197.548,425.79 227.195,425.79 236.273,425.79 
	254.337,425.79 263.313,425.79 271.552,425.79 290.455,425.79 303.328,425.79 307.671,425.79 340.399,425.79 374.827,425.79 
	375.41,425.79 381.939,425.79 409.834,425.79 409.834,157.359 381.939,157.359 "/>
<polyline fill="#C7DCEF" points="138.063,234.19 129.74,234.19 129.74,222.458 138.063,222.458 138.063,234.19 "/>
<polyline fill="#C7DCEF" points="152.767,234.19 144.445,234.19 144.445,222.458 152.767,222.458 152.767,234.19 "/>
<polyline fill="#C7DCEF" points="273.646,234.19 265.324,234.19 265.324,222.458 273.646,222.458 273.646,234.19 "/>
<polyline fill="#C7DCEF" points="288.074,234.19 279.752,234.19 279.752,222.458 288.074,222.458 288.074,234.19 "/>
<polyline fill="#C7DCEF" points="302.777,234.19 294.457,234.19 294.457,222.458 302.777,222.458 302.777,234.19 "/>
<polyline fill="#C7DCEF" points="123.64,254.89 115.317,254.89 115.317,243.157 123.64,243.157 123.64,254.89 "/>
<polyline fill="#C7DCEF" points="138.063,254.89 129.74,254.89 129.74,243.157 138.063,243.157 138.063,254.89 "/>
<polyline fill="#C7DCEF" points="152.767,254.89 144.445,254.89 144.445,243.157 152.767,243.157 152.767,254.89 "/>
<polyline fill="#C7DCEF" points="273.646,254.89 265.324,254.89 265.324,243.157 273.646,243.157 273.646,254.89 "/>
<polyline fill="#C7DCEF" points="288.074,254.89 279.752,254.89 279.752,243.157 288.074,243.157 288.074,254.89 "/>
<polyline fill="#C7DCEF" points="302.777,254.89 294.457,254.89 294.457,243.157 302.777,243.157 302.777,254.89 "/>
<polyline fill="#C7DCEF" points="213.295,275.275 204.973,275.275 204.973,263.544 213.295,263.544 213.295,275.275 "/>
<polyline fill="#C7DCEF" points="227.998,275.275 219.677,275.275 219.677,263.544 227.998,263.544 227.998,275.275 "/>
<polyline fill="#C7DCEF" points="242.869,275.275 234.547,275.275 234.547,263.544 242.869,263.544 242.869,275.275 "/>
<polyline fill="#C7DCEF" points="258.432,275.275 250.108,275.275 250.108,263.544 258.432,263.544 258.432,275.275 "/>
<polyline fill="#C7DCEF" points="273.646,275.275 265.324,275.275 265.324,263.544 273.646,263.544 273.646,275.275 "/>
<polyline fill="#C7DCEF" points="288.074,275.275 279.752,275.275 279.752,263.544 288.074,263.544 288.074,275.275 "/>
<polyline fill="#C7DCEF" points="302.777,275.275 294.457,275.275 294.457,263.544 302.777,263.544 302.777,275.275 "/>
<polyline fill="#C7DCEF" points="198.866,296.93 190.544,296.93 190.544,285.202 198.866,285.202 198.866,296.93 "/>
<polyline fill="#C7DCEF" points="213.295,296.93 204.973,296.93 204.973,285.202 213.295,285.202 213.295,296.93 "/>
<polyline fill="#C7DCEF" points="227.998,296.93 219.677,296.93 219.677,285.202 227.998,285.202 227.998,296.93 "/>
<polyline fill="#C7DCEF" points="273.646,296.93 265.324,296.93 265.324,285.202 273.646,285.202 273.646,296.93 "/>
<polyline fill="#C7DCEF" points="288.074,296.93 279.752,296.93 279.752,285.202 288.074,285.202 288.074,296.93 "/>
<polyline fill="#C7DCEF" points="302.777,296.93 294.457,296.93 294.457,285.202 302.777,285.202 302.777,296.93 "/>
<polyline fill="#C7DCEF" points="213.295,317.634 204.973,317.634 204.973,305.9 213.295,305.9 213.295,317.634 "/>
<polyline fill="#C7DCEF" points="227.998,317.634 219.677,317.634 219.677,305.9 227.998,305.9 227.998,317.634 "/>
<polyline fill="#C7DCEF" points="288.074,317.634 279.752,317.634 279.752,305.9 288.074,305.9 288.074,317.634 "/>
<polyline fill="#C7DCEF" points="302.777,317.634 294.457,317.634 294.457,305.9 302.777,305.9 302.777,317.634 "/>
<polyline fill="#C7DCEF" points="92.862,338.016 84.534,338.016 84.534,326.282 92.862,326.282 92.862,338.016 "/>
<polyline fill="#C7DCEF" points="108.424,338.016 100.102,338.016 100.102,326.282 108.424,326.282 108.424,338.016 "/>
<polyline fill="#C7DCEF" points="123.64,338.016 115.317,338.016 115.317,326.282 123.64,326.282 123.64,338.016 "/>
<polyline fill="#C7DCEF" points="138.063,338.016 129.74,338.016 129.74,326.282 138.063,326.282 138.063,338.016 "/>
<polyline fill="#C7DCEF" points="152.767,338.016 144.445,338.016 144.445,326.282 152.767,326.282 152.767,338.016 "/>
<path fill="#C7DCEF" d="M204.973,335.563v-9.28h8.322v7.198C210.512,334.188,207.732,334.887,204.973,335.563"/>
<path fill="#C7DCEF" d="M219.677,331.85v-5.566h8.321v3.48C225.221,330.443,222.446,331.148,219.677,331.85"/>
<path fill="#C7DCEF" d="M302.777,328.186c-1.668-0.709-3.354-1.345-5.063-1.902h5.063V328.186"/>
<polygon fill="#D5E7F7" points="91.618,394.496 55.679,394.496 55.679,375.227 91.618,375.227 "/>
<polygon fill="#D5E7F7" points="136.008,394.496 100.064,394.496 100.064,375.227 136.008,375.227 "/>
<path fill="#DCEAF9" d="M337.768,384.428c-0.512,1.379-1.76,2.189-2.782,1.807c-1.027-0.381-1.441-1.811-0.928-3.188
	c0.514-1.383,4.282-5.814,4.282-5.814S338.283,383.046,337.768,384.428"/>
<path fill="#DCEAF9" d="M327.658,350.434c-0.517,1.379-1.767,2.186-2.789,1.808c-1.027-0.384-1.441-1.812-0.926-3.193
	c0.516-1.377,4.279-5.812,4.279-5.812S328.17,349.052,327.658,350.434"/>
<path fill="#DCEAF9" d="M288.891,401.694c-0.517,1.378-1.762,2.188-2.789,1.807c-1.021-0.383-1.438-1.812-0.922-3.188
	c0.514-1.384,4.276-5.816,4.276-5.816S289.406,400.313,288.891,401.694"/>
<polygon fill="#D5E7F7" points="365.426,342.739 363.463,342.739 363.463,317.634 365.426,317.634 "/>
<polyline fill="#C4D9ED" points="266.375,394.496 398.825,394.496 398.825,365.549 266.375,365.549 266.375,394.496 "/>
<polyline fill="#C4D9ED" points="282.193,412.667 275.393,412.667 275.393,403.077 282.193,403.077 282.193,412.667 "/>
<polyline fill="#C4D9ED" points="294.917,412.667 288.115,412.667 288.115,403.077 294.917,403.077 294.917,412.667 "/>
<polyline fill="#C4D9ED" points="307.354,412.667 300.548,412.667 300.548,403.077 307.354,403.077 307.354,412.667 "/>
<polyline fill="#C4D9ED" points="319.143,412.667 312.34,412.667 312.34,403.077 319.143,403.077 319.143,412.667 "/>
<polyline fill="#C4D9ED" points="331.16,412.667 324.358,412.667 324.358,403.077 331.16,403.077 331.16,412.667 "/>
<polyline fill="#C4D9ED" points="343.315,412.667 336.515,412.667 336.515,403.077 343.315,403.077 343.315,412.667 "/>
<polyline fill="#C4D9ED" points="356.034,412.667 349.233,412.667 349.233,403.077 356.034,403.077 356.034,412.667 "/>
<polyline fill="#C4D9ED" points="368.472,412.667 361.67,412.667 361.67,403.077 368.472,403.077 368.472,412.667 "/>
<polyline fill="#C4D9ED" points="380.264,412.667 373.462,412.667 373.462,403.077 380.264,403.077 380.264,412.667 "/>
<polyline fill="#C4D9ED" points="392.281,412.667 385.475,412.667 385.475,403.077 392.281,403.077 392.281,412.667 "/>
<polyline fill="#C4D9ED" points="282.193,429.583 275.393,429.583 275.393,419.998 282.193,419.998 282.193,429.583 "/>
<polyline fill="#C4D9ED" points="294.917,429.583 288.115,429.583 288.115,419.998 294.917,419.998 294.917,429.583 "/>
<polyline fill="#C4D9ED" points="307.354,429.583 300.548,429.583 300.548,419.998 307.354,419.998 307.354,429.583 "/>
<polyline fill="#C4D9ED" points="319.143,429.583 312.34,429.583 312.34,419.998 319.143,419.998 319.143,429.583 "/>
<polyline fill="#C4D9ED" points="331.16,429.583 324.358,429.583 324.358,419.998 331.16,419.998 331.16,429.583 "/>
<polyline fill="#C4D9ED" points="343.315,429.583 336.515,429.583 336.515,419.998 343.315,419.998 343.315,429.583 "/>
<polyline fill="#C4D9ED" points="356.034,429.583 349.233,429.583 349.233,419.998 356.034,419.998 356.034,429.583 "/>
<polyline fill="#C4D9ED" points="368.472,429.583 361.67,429.583 361.67,419.998 368.472,419.998 368.472,429.583 "/>
<polyline fill="#C4D9ED" points="380.264,429.583 373.462,429.583 373.462,419.998 380.264,419.998 380.264,429.583 "/>
<polyline fill="#C4D9ED" points="392.281,429.583 385.475,429.583 385.475,419.998 392.281,419.998 392.281,429.583 "/>
<polyline fill="#C4D9ED" points="331.16,446.245 324.358,446.245 324.358,436.656 331.16,436.656 331.16,446.245 "/>
<polyline fill="#C4D9ED" points="343.315,446.245 336.515,446.245 336.515,436.656 343.315,436.656 343.315,446.245 "/>
<polyline fill="#C4D9ED" points="356.034,446.245 349.233,446.245 349.233,436.656 356.034,436.656 356.034,446.245 "/>
<polyline fill="#C4D9ED" points="368.472,446.245 361.67,446.245 361.67,436.656 368.472,436.656 368.472,446.245 "/>
<polyline fill="#C4D9ED" points="380.264,446.245 373.462,446.245 373.462,436.656 380.264,436.656 380.264,446.245 "/>
<polyline fill="#C4D9ED" points="392.281,446.245 385.475,446.245 385.475,436.656 392.281,436.656 392.281,446.245 "/>
<polyline fill="#ADC9E0" points="282.193,383.57 276.48,383.57 276.48,373.682 282.193,373.682 282.193,383.57 "/>
<polyline fill="#ADC9E0" points="338.947,383.57 333.229,383.57 333.229,373.682 338.947,373.682 338.947,383.57 "/>
<polyline fill="#ADC9E0" points="384.088,383.57 378.374,383.57 378.374,373.682 384.088,373.682 384.088,383.57 "/>
<path fill="#C6DBEE" d="M213.295,338.016h-8.322v-2.451c2.76-0.678,5.539-1.377,8.322-2.084V338.016"/>
<path fill="#C6DBEE" d="M227.998,338.016h-8.321v-6.166c2.771-0.699,5.544-1.406,8.321-2.086V338.016"/>
<polyline fill="#C6DBEE" points="288.074,338.016 279.752,338.016 279.752,326.282 288.074,326.282 288.074,338.016 "/>
<path fill="#C6DBEE" d="M302.777,338.016h-8.32v-11.732h3.257c1.71,0.559,3.396,1.193,5.063,1.902V338.016"/>
<path fill="#C4D9ED" d="M398.825,394.496L398.825,394.496h-132.45v-17.313v-11.636h106.17h8.756
	c5.704,2.29,11.553,4.534,17.524,6.69V394.496 M378.374,373.682v9.89h5.714v-9.89H378.374 M333.229,373.682v9.89h5.72v-9.89H333.229
	 M276.48,373.682v9.89h5.713v-9.89H276.48"/>
<polyline fill="#C4D9ED" points="282.193,412.667 275.393,412.667 275.393,403.077 282.193,403.077 282.193,412.667 "/>
<polyline fill="#C4D9ED" points="294.917,412.667 288.115,412.667 288.115,403.077 294.917,403.077 294.917,412.667 "/>
<polyline fill="#C4D9ED" points="307.354,412.667 300.548,412.667 300.548,403.077 307.354,403.077 307.354,412.667 "/>
<polyline fill="#C4D9ED" points="319.143,412.667 312.34,412.667 312.34,403.077 319.143,403.077 319.143,412.667 "/>
<polyline fill="#C4D9ED" points="331.16,412.667 324.358,412.667 324.358,403.077 331.16,403.077 331.16,412.667 "/>
<polyline fill="#C4D9ED" points="343.315,412.667 336.515,412.667 336.515,403.077 343.315,403.077 343.315,412.667 "/>
<polyline fill="#C4D9ED" points="356.034,412.667 349.233,412.667 349.233,403.077 356.034,403.077 356.034,412.667 "/>
<polyline fill="#C4D9ED" points="368.472,412.667 361.67,412.667 361.67,403.077 368.472,403.077 368.472,412.667 "/>
<polyline fill="#C4D9ED" points="380.264,412.667 373.462,412.667 373.462,403.077 380.264,403.077 380.264,412.667 "/>
<polyline fill="#C4D9ED" points="392.281,412.667 385.475,412.667 385.475,403.077 392.281,403.077 392.281,412.667 "/>
<polyline fill="#C4D9ED" points="294.917,429.583 288.115,429.583 288.115,419.998 294.917,419.998 294.917,429.583 "/>
<polyline fill="#C4D9ED" points="307.354,429.583 300.548,429.583 300.548,419.998 307.354,419.998 307.354,429.583 "/>
<polyline fill="#C4D9ED" points="319.143,429.583 312.34,429.583 312.34,419.998 319.143,419.998 319.143,429.583 "/>
<polyline fill="#C4D9ED" points="331.16,429.583 324.358,429.583 324.358,419.998 331.16,419.998 331.16,429.583 "/>
<polyline fill="#C4D9ED" points="343.315,429.583 336.515,429.583 336.515,419.998 343.315,419.998 343.315,429.583 "/>
<polyline fill="#C4D9ED" points="356.034,429.583 349.233,429.583 349.233,419.998 356.034,419.998 356.034,429.583 "/>
<polyline fill="#C4D9ED" points="368.472,429.583 361.67,429.583 361.67,419.998 368.472,419.998 368.472,429.583 "/>
<polyline fill="#C4D9ED" points="380.264,429.583 373.462,429.583 373.462,419.998 380.264,419.998 380.264,429.583 "/>
<polyline fill="#C4D9ED" points="392.281,429.583 385.475,429.583 385.475,419.998 392.281,419.998 392.281,429.583 "/>
<polyline fill="#C4D9ED" points="331.16,446.245 324.358,446.245 324.358,436.656 331.16,436.656 331.16,446.245 "/>
<polyline fill="#C4D9ED" points="343.315,446.245 336.515,446.245 336.515,436.656 343.315,436.656 343.315,446.245 "/>
<polyline fill="#C4D9ED" points="356.034,446.245 349.233,446.245 349.233,436.656 356.034,436.656 356.034,446.245 "/>
<polyline fill="#C4D9ED" points="368.472,446.245 361.67,446.245 361.67,436.656 368.472,436.656 368.472,446.245 "/>
<polyline fill="#C4D9ED" points="380.264,446.245 373.462,446.245 373.462,436.656 380.264,436.656 380.264,446.245 "/>
<polyline fill="#C4D9ED" points="392.281,446.245 385.475,446.245 385.475,436.656 392.281,436.656 392.281,446.245 "/>
<polyline fill="#B6CFE5" points="282.193,383.57 276.48,383.57 276.48,373.682 282.193,373.682 282.193,383.57 "/>
<polyline fill="#B6CFE5" points="338.947,383.57 333.229,383.57 333.229,373.682 338.947,373.682 338.947,383.57 "/>
<polyline fill="#B6CFE5" points="384.088,383.57 378.374,383.57 378.374,373.682 384.088,373.682 384.088,383.57 "/>
<polygon fill="#699FF0" points="380.618,328.338 377.817,326.053 415.359,276.986 428.907,276.424 "/>
<polygon fill="#699FF0" points="331.561,328.338 329.243,326.053 360.306,276.986 371.518,276.424 "/>
<path fill="#699FF0" d="M102.313,200.459c0-9.313,7.367-16.861,16.465-16.861c9.092,0,16.465,7.548,16.465,16.861
	s-7.373,16.861-16.465,16.861C109.681,217.32,102.313,209.772,102.313,200.459L102.313,200.459z"/>
<path fill="#699FF0" d="M311.17,427.754H143.763c-1.82,0-3.309-1.504-3.309-3.332v-15.824c0-1.834,1.488-3.332,3.309-3.332h147.883
	c1.815,0,3.304,1.498,3.304,3.332L311.17,427.754L311.17,427.754z"/>
<path fill="#2B478B" d="M312.645,415.357c0-27.631,22.4-50.029,50.03-50.029s50.029,22.398,50.029,50.029
	s-22.399,50.029-50.029,50.029S312.645,442.988,312.645,415.357L312.645,415.357z"/>
<path fill="#85B2EF" d="M337.173,415.361c0-14.087,11.415-25.506,25.502-25.506s25.501,11.419,25.501,25.506
	c0,14.083-11.414,25.502-25.501,25.502S337.173,429.444,337.173,415.361L337.173,415.361z"/>
<path fill="#699FF0" d="M105.516,344.738c-7.064-2.248-14.584-3.456-22.377-3.456c-5.507,0-10.88,0.604-16.041,1.751
	c-29.63,6.566-52.638,30.934-57.204,61.255c-0.876,5.83,3.663,11.069,9.557,11.069h0.327c3.175,0,5.802-2.425,6.106-5.591
	c2.824-29.108,27.422-51.938,57.255-51.938c8.907,0,17.354,2.032,24.888,5.663c19.295,9.3,32.64,29.055,32.64,51.864h16.548
	C157.214,382.309,135.459,354.245,105.516,344.738L105.516,344.738z"/>
<path fill="#699FF0" d="M182.287,405.266l-25.073,10.093c-17.358-33.755-35.086-50.32-50.247-58.49
	c-27.275-14.704-46.26-2.249-39.869-13.834l46.792-98.729c4.386-6.091,10.101-10.723,16.486-13.745
	c6.944-3.282,14.687-4.664,22.382-3.959c8.927,0.825,14.76,9.834,11.916,18.336c-6.124,18.321-8.479,36.735-8.479,54.219
	C156.195,357.352,182.287,405.266,182.287,405.266L182.287,405.266z"/>
<path fill="#699FF0" d="M156.726,238.024l-18.88-7.217c-2.571,0-7.47,2.323-7.47-0.248l2.798-46.114c0-2.566,2.101-4.67,4.672-4.67
	h12.17c2.571,0,12.871,4.928,12.143,14.154l3.239,46.482C165.397,242.982,159.297,238.024,156.726,238.024L156.726,238.024z"/>
<path fill="#699FF0" d="M478.343,278.704H352.588c-3.641,0-6.618-2.976-6.618-6.616v-4.539c0-3.641,2.979-6.623,6.618-6.623h125.755
	c3.642,0,6.617,2.982,6.617,6.623v4.539C484.96,275.729,481.983,278.704,478.343,278.704L478.343,278.704z"/>
<path fill="#2B478B" d="M33.113,415.357c0-27.631,22.399-50.029,50.03-50.029c27.63,0,50.03,22.398,50.03,50.029
	s-22.4,50.029-50.03,50.029C55.513,465.388,33.113,442.988,33.113,415.357L33.113,415.357z"/>
<path fill="#AFCDFB" d="M108.645,415.357c0,4.3-1.064,8.346-2.939,11.894c-0.125,0.23-0.249,0.456-0.383,0.682
	c-4.373,7.725-12.667,12.932-22.179,12.932c-14.088,0-25.507-11.419-25.507-25.506c0-10.612,6.484-19.71,15.705-23.538
	c0.092-0.045,0.193-0.084,0.291-0.125c2.939-1.184,6.151-1.834,9.511-1.834C97.226,389.859,108.645,401.274,108.645,415.357
	L108.645,415.357z"/>
<path fill="#699FF0" d="M266.384,314.588c0,0,19.507,43.449-24.068,90.678h100.572L329.243,301.87L266.384,314.588L266.384,314.588z
	"/>
<path fill="#699FF0" d="M463.527,421.136c0,1.82-0.741,3.476-1.949,4.679c-1.194,1.192-2.848,1.939-4.668,1.939H296.415
	c-3.642,0-6.622-2.978-6.622-6.618l2.129-104.972l54.048-3.313C417.962,312.852,463.527,349.141,463.527,421.136L463.527,421.136z"
	/>
<path fill="#F99746" d="M135.243,199.5c0,1.626-0.153,3.216-0.438,4.76c-2.235,12.027-12.787,21.128-25.455,21.128v-51.774
	C123.645,173.615,135.243,185.206,135.243,199.5L135.243,199.5z"/>
<path fill="#2B478B" d="M176.103,202.999c-0.098,0-1.176-0.213-1.276-0.23l-28.479-7.903c-1.133-0.222-1.912-1.622-1.746-3.129
	c0.162-1.507,1.212-2.553,2.346-2.327l28.547,5.571c1.134,0.221,2.032,1.94,2.3,3.419
	C178.241,200.883,177.111,202.999,176.103,202.999L176.103,202.999z"/>
<path fill="#F99746" d="M107.28,358.867c0.258,1.594,0.508,3.138,0.746,4.626c-0.073-0.032-0.146-0.073-0.221-0.104
	c-7.479-3.563-15.847-5.559-24.667-5.559c-29.833,0-54.431,22.828-57.255,51.938c-0.305,3.166-2.932,5.591-6.106,5.591H19.45
	c-5.894,0-10.433-5.239-9.557-11.069c4.548-30.221,27.417-54.521,56.904-61.182c0.102-0.027,0.198-0.051,0.3-0.073l46.792-98.729
	c4.386-6.091,10.101-10.723,16.486-13.745c-7.977,13.423-29.979,56.338-24.86,114.178c0.355,3.973,0.834,8.015,1.451,12.13
	C107.073,357.53,107.17,358.198,107.28,358.867L107.28,358.867z"/>
<path fill="#F99746" d="M373.867,294.077v15.595c0,2.699-2.212,4.916-4.92,4.916H266.384c-2.7,0-4.917-2.217-4.917-4.916v-15.595
	c0-2.709,2.217-4.922,4.917-4.922h102.563C371.655,289.155,373.867,291.368,373.867,294.077L373.867,294.077z"/>
<path fill="#578DDD" d="M450.813,427.754H296.415c0,0-9.424-57.168,25.326-76.472c8.368-4.65,18.884-6.249,30.339-5.13
	C388.181,349.688,433.645,380.275,450.813,427.754L450.813,427.754z"/>
<path fill="#ED7D2B" d="M134.805,204.261c-2.235,12.027-12.787,21.128-25.455,21.128v-14.446
	C116.958,211.247,127.915,210.417,134.805,204.261L134.805,204.261z"/>
<path fill="#ED7D2B" d="M341.399,314.588h-75.017c-2.699,0-4.917-2.217-4.917-4.916v-15.595c0-2.709,2.218-4.922,4.917-4.922h51.395
	C322.243,295.46,330.639,306.15,341.399,314.588L341.399,314.588z"/>
<path fill="#5C96E3" d="M450.813,427.754h-64.125c-38.709-19.645-36.34-67.029-34.607-81.602
	C388.181,349.688,433.645,380.275,450.813,427.754L450.813,427.754z"/>
<path fill="#85B2EF" d="M105.322,427.933c-4.373,7.725-12.667,12.932-22.179,12.932c-14.088,0-25.507-11.419-25.507-25.506
	c0-10.612,6.484-19.71,15.705-23.538C75.559,402.855,82.696,423.307,105.322,427.933L105.322,427.933z"/>
<path fill="#ED7D2B" d="M107.28,358.867c0.258,1.594,0.508,3.138,0.746,4.626c-0.073-0.032-0.146-0.073-0.221-0.104
	c-9.238-8.545-28.759-16.111-41.008-20.281c0.102-0.027,0.198-0.051,0.3-0.073l46.792-98.729
	c4.386-6.091,10.101-10.723,16.486-13.745c-7.977,13.423-29.979,56.338-24.86,114.179c0.355,3.972,0.834,8.014,1.451,12.129
	C107.073,357.53,107.17,358.198,107.28,358.867L107.28,358.867z"/>
<polygon fill="#D3671E" points="356.298,260.926 436.229,260.926 436.229,195.017 356.298,195.017 "/>
<polyline fill="#F1A34F" points="476.19,195.017 476.19,260.926 396.263,260.926 396.263,195.017 476.19,195.017 "/>
<polygon fill="#F1A34F" points="356.344,244.213 369.005,244.213 367.891,240.646 369.005,238.103 356.344,238.103 "/>
<polygon fill="#E78B37" points="476.19,238.715 476.19,260.926 396.263,260.926 396.263,195.017 410.42,195.017 "/>
<rect x="476.19" y="203.689" fill="#E5BCA1" width="0" height="6.11"/>
<polyline fill="#E78B37" points="476.19,209.8 463.527,209.8 464.643,206.237 463.527,203.689 476.19,203.689 476.19,209.8 "/>
<polygon fill="#F1A34F" points="476.19,250.323 463.527,250.323 464.643,246.756 463.527,244.213 476.19,244.213 "/>
<path fill="#FFB27D" d="M275.301,135.289c13.819,5.611,39.081-6.386,39.081-6.386s-8.387-7.423-9.981-21.481
	c-0.082-0.709-0.143-1.432-0.188-2.172c-1.456-0.518-4.203-1.496-7.143-2.54l-12.239,8.334c0,0-0.296,4.1,0.14,11.272
	c0.072,1.251,0.17,2.596,0.299,4.033C278.918,129.2,275.301,135.289,275.301,135.289L275.301,135.289z"/>
<path fill="#ED975D" d="M284.83,111.044c0,0-0.296,4.1,0.139,11.272c11.137-2.024,17.266-11.02,19.432-14.894
	c-0.082-0.709-0.143-1.432-0.188-2.172c-1.456-0.518-4.203-1.496-7.143-2.54L284.83,111.044L284.83,111.044z"/>
<path fill="#FFB27D" d="M282.572,117.016c0,0,23.796-0.776,23.087-15.589c-0.711-14.813,1.885-24.891-13.347-25.021
	c-15.226-0.131-17.901,5.663-18.864,10.666C272.48,92.073,276.361,116.836,282.572,117.016L282.572,117.016z"/>
<path fill="#2B478B" d="M304.4,107.422c0,0,0.927-4.926-1.752-8.177c0,0,1.729-4.832-0.129-5.915
	c-1.856-1.083-2.83,3.045-3.641,2.268c-0.814-0.776-4.419-4.43-5.525-9.251c-1.109-4.821-17.61-1.365-19.561-0.784
	c-1.945,0.583,10.948-23.484,24.879-17.784c13.926,5.699,14.978,12.85,13.367,18.644S310.576,106.23,304.4,107.422L304.4,107.422z"
	/>
<path fill="#6BB7BF" d="M327.165,248.813c0,0-1.65,29.072-8.269,37.353c-6.62,8.281-133.486,5.068-133.486,5.068
	s-0.548-18.645,4.415-23.438c4.964-4.792,28.133-18.561,102.097-26.362L327.165,248.813L327.165,248.813z"/>
<path fill="#F99746" d="M328.855,187.962c-2.068,24.971,0.658,62.951-1.69,69.532c-2.023,5.677-25.103,2.299-34.304,0.41
	c-3.409-0.706-7.543-1.706-11.807-2.891c-11.893-3.304-24.854-8.027-26.242-11.533c-0.056-0.139-0.102-0.272-0.129-0.406
	c-0.129-0.506-0.102-0.985,0.023-1.465c0.34-1.322,1.409-2.724,2.032-5.156c0.211-0.858,0.372-1.839,0.428-2.991
	c0.218-4.525,0.203-9.779,0.358-15.438c0.016-0.521,0.033-1.046,0.052-1.567c0.009-0.709,0.019-1.474,0.101-2.174l0.01-0.258
	c0-0.134,0.006-0.267,0.011-0.396c0.196-6.981,0.608-14.308,1.073-21.584c0.15-2.267,0.31-4.525,0.488-6.75
	c0.055-0.793,0.119-1.572,0.18-2.351c0.119-1.456,0.244-2.902,0.377-4.326c1.037-11.186,2.438-21.136,4.285-27.424
	c3.023-10.254,9.691-16.939,15.756-21.838l4.393-3.381c4.898,0.96,10.689,0.319,15.93-1.903c5.664-2.422,7.622-4.153,8.612-3.498
	C321.884,129.643,331.302,157.432,328.855,187.962L328.855,187.962z"/>
<path fill="#1C4575" d="M231.059,386.875c0,0-1.124,18.096-4.623,18.358c-0.465,0.031-17.759,0.031-17.759,0.031l-22.073-0.129
	c0,0,0.144-5.316,6.599-6.441c6.452-1.124,17.248-5.659,21.161-14.185C218.474,375.539,231.059,386.875,231.059,386.875
	L231.059,386.875z"/>
<path fill="#6BB7BF" d="M235.671,388.055c0,0-4.268,3.28-12.962,3.699c-2.24,0.107-4.29-0.009-6.088-0.238
	c-4.792-0.607-7.787-1.99-7.787-1.99L185.41,291.23c0,0,25.373-22.17,38.612-8.383c1.729,1.797,3.197,4.911,4.455,8.977
	C236.874,318.924,235.671,388.055,235.671,388.055L235.671,388.055z"/>
<path fill="#ED7D2B" d="M291.922,168.982c0,0-16.424,60.14-35.182,67.471c0.211-0.858,0.371-1.839,0.428-2.991
	c0.217-4.525,0.203-9.779,0.357-15.438c0.017-0.521,0.033-1.046,0.053-1.567c0.009-0.709,0.018-1.474,0.102-2.174l0.01-0.258
	c0-0.134,0.004-0.267,0.01-0.396c0.197-6.981,0.607-14.308,1.072-21.584c0.151-2.267,0.311-4.525,0.49-6.75
	C267.52,175.313,278.725,168.144,291.922,168.982L291.922,168.982z"/>
<path fill="#FFB27D" d="M193.393,192.15c0,0-7.152,0.549-8.99,0c-1.84-0.552-10.483-5.699-13.608-4.599
	c-3.124,1.102-11.031,9.194-9.009,12.871c0,0,3.678,0.092,7.078-3.401c3.4-3.493,7.078-1.106,6.714-0.646
	c-0.369,0.461-5.7,2.576-4.783,3.493c0.922,0.921,7.907,0.737,9.562-0.363c1.655-1.106,13.973,0.271,13.973,0.271L193.393,192.15
	L193.393,192.15z"/>
<path fill="#F99746" d="M291.922,137.266c0,0-44.481,37.918-56.19,41.574c-11.709,3.657-53.076,11.698-53.076,11.698
	s-1.138,9.792,2.737,13.47c0,0,53.154-3.083,59.776-4.484c6.617-1.4,55.938-26.957,59.96-28.887
	C309.151,168.707,308.524,134.14,291.922,137.266L291.922,137.266z"/>
<path fill="#5AA9AD" d="M235.671,388.055c0,0-4.268,3.28-12.962,3.699c-2.24,0.107-4.29-0.009-6.088-0.238
	c13.359-16.897,11.856-99.691,11.856-99.691C236.874,318.924,235.671,388.055,235.671,388.055L235.671,388.055z"/>
<path fill="#F99746" d="M315.547,87.402v0.226c0,0.624-0.285,1.158-0.689,1.384c-0.139,0.078-0.291,0.122-0.438,0.122h-56.394
	c-0.623,0-1.131-0.679-1.131-1.506v-0.226c0-0.827,0.508-1.507,1.131-1.507l12.594-1.615c1.176-9.355,7.391-16.989,15.604-19.62
	h0.01c2.004-0.645,4.119-0.987,6.313-0.987c11.57,0,21.055,9.559,22.04,21.743c0.01,0.144,0.024,0.282,0.033,0.425
	c0.143,0.104,0.226,0.17,0.239,0.176C315.262,86.243,315.547,86.785,315.547,87.402L315.547,87.402z"/>
<path fill="#ED7D2B" d="M296.493,85.416c4.202-22.24-9.792-20.811-10.263-20.756c2.004-0.645,4.119-0.987,6.313-0.987
	c11.57,0,21.055,9.559,22.04,21.743H296.493L296.493,85.416z"/>
<path fill="#F99746" d="M68.654,38.04c-6.268,0-11.348-5.06-11.348-11.327c0-1.534,0.307-2.991,0.863-4.333
	c1.706-4.121,5.75-7.015,10.485-7.015c6.268,0,11.348,5.079,11.348,11.348c0,5.424-3.794,9.929-8.875,11.041
	C70.341,37.945,69.498,38.04,68.654,38.04L68.654,38.04z M68.654,2.694c-5.789,0-11.118,2.032-15.296,5.425
	c-5.482,4.466-8.971,11.252-8.971,18.842c0,13.4,24.268,43.187,24.268,43.187s11.022-13.533,18.191-26.452
	c3.488-6.249,6.076-12.365,6.076-16.735C92.921,13.562,82.053,2.694,68.654,2.694L68.654,2.694z"/>
<path fill="#ED7D2B" d="M86.845,43.695c-7.169,12.919-18.191,26.452-18.191,26.452S44.386,40.36,44.386,26.96
	c0-7.59,3.489-14.375,8.971-18.842c0.92,4.389,2.415,9.412,4.812,14.261c-0.556,1.342-0.863,2.799-0.863,4.333
	c0,6.268,5.08,11.327,11.348,11.327c0.844,0,1.687-0.095,2.473-0.286C75.363,40.647,80.539,42.775,86.845,43.695L86.845,43.695z"/>
<path fill="#FF9136" d="M334.224,25.618c-1.503-0.397-3.032-0.791-4.542-1.167l-0.003,0c-0.419-0.104-0.843,0.152-0.945,0.567
	c-0.104,0.421,0.151,0.845,0.57,0.948c1.505,0.375,3.026,0.767,4.522,1.162l0.012,0.003c0.412,0.102,0.834-0.145,0.942-0.558
	C334.889,26.156,334.641,25.728,334.224,25.618L334.224,25.618z"/>
<path fill="#FF9136" d="M325.129,23.352l-0.013-0.003c-1.507-0.353-3.047-0.701-4.574-1.034c-0.423-0.091-0.839,0.172-0.929,0.597
	c-0.092,0.411,0.166,0.822,0.571,0.922l0.022,0.006c1.521,0.332,3.057,0.679,4.556,1.029c0.42,0.098,0.838-0.163,0.937-0.582
	C325.796,23.871,325.541,23.454,325.129,23.352L325.129,23.352z"/>
<path fill="#FF9136" d="M343.26,28.163c-1.487-0.444-3.004-0.883-4.508-1.307c-0.411-0.111-0.846,0.126-0.966,0.54
	c-0.114,0.416,0.127,0.845,0.543,0.963c1.496,0.421,3.006,0.859,4.482,1.298l0.037,0.009c0.404,0.1,0.816-0.133,0.937-0.534
	C343.906,28.718,343.673,28.284,343.26,28.163L343.26,28.163z"/>
<path fill="#FF9136" d="M315.947,21.344c-1.514-0.31-3.063-0.612-4.601-0.905c-0.425-0.079-0.832,0.196-0.909,0.621
	c-0.081,0.411,0.176,0.805,0.574,0.903l0.044,0.008c1.533,0.292,3.074,0.596,4.583,0.904c0.424,0.085,0.833-0.189,0.92-0.611
	C316.645,21.84,316.361,21.43,315.947,21.344L315.947,21.344z"/>
<path fill="#FF9136" d="M352.211,30.985c-1.47-0.492-2.971-0.978-4.467-1.447c-0.415-0.131-0.851,0.099-0.976,0.508
	c-0.132,0.411,0.097,0.85,0.505,0.979c1.485,0.467,2.98,0.952,4.443,1.439l0.058,0.017c0.392,0.096,0.799-0.121,0.928-0.51
	C352.841,31.562,352.616,31.121,352.211,30.985L352.211,30.985z"/>
<path fill="#FF9136" d="M306.73,19.597c-1.528-0.269-3.084-0.534-4.625-0.783c-0.429-0.067-0.826,0.22-0.896,0.647
	c-0.066,0.404,0.191,0.783,0.582,0.88l0.064,0.016c1.536,0.248,3.084,0.508,4.604,0.774c0.426,0.076,0.832-0.206,0.903-0.632
	C307.438,20.074,307.165,19.672,306.73,19.597L306.73,19.597z"/>
<path fill="#FF9136" d="M361.065,34.093c-1.466-0.542-2.949-1.077-4.417-1.589c-0.406-0.143-0.852,0.069-0.994,0.477
	c-0.143,0.405,0.071,0.851,0.478,0.993c1.458,0.515,2.937,1.047,4.392,1.583c0.024,0.009,0.056,0.02,0.084,0.027
	c0.382,0.094,0.777-0.113,0.916-0.488C361.674,34.69,361.467,34.243,361.065,34.093L361.065,34.093z"/>
<path fill="#FF9136" d="M297.47,18.097c-1.538-0.229-3.101-0.451-4.646-0.663c-0.428-0.057-0.82,0.241-0.88,0.667
	c-0.054,0.401,0.205,0.771,0.588,0.866c0.025,0.006,0.055,0.01,0.084,0.014c1.539,0.209,3.094,0.43,4.623,0.657
	c0.426,0.063,0.822-0.231,0.886-0.656C298.188,18.554,297.896,18.16,297.47,18.097L297.47,18.097z"/>
<path fill="#FF9136" d="M369.812,37.494c-1.438-0.586-2.905-1.171-4.362-1.736c-0.405-0.158-0.852,0.043-1.011,0.445
	c-0.153,0.399,0.044,0.853,0.446,1.01c1.45,0.561,2.906,1.142,4.335,1.727c0.033,0.014,0.068,0.026,0.105,0.035
	c0.371,0.092,0.761-0.101,0.913-0.462C370.399,38.112,370.207,37.656,369.812,37.494L369.812,37.494z"/>
<path fill="#FF9136" d="M288.852,17.703c0.051-0.427-0.252-0.817-0.68-0.872c-1.536-0.187-3.103-0.371-4.657-0.543
	c-0.43-0.048-0.815,0.262-0.864,0.69c-0.047,0.394,0.214,0.75,0.587,0.842c0.035,0.008,0.066,0.013,0.101,0.019
	c1.552,0.171,3.116,0.355,4.644,0.542C288.41,18.433,288.797,18.13,288.852,17.703L288.852,17.703z"/>
<path fill="#FF9136" d="M279.546,16.651c0.043-0.427-0.269-0.809-0.699-0.851c-1.547-0.155-3.118-0.298-4.67-0.434
	c-0.43-0.035-0.809,0.283-0.845,0.71c-0.032,0.388,0.221,0.733,0.589,0.824c0.039,0.01,0.077,0.016,0.124,0.021
	c1.543,0.134,3.107,0.279,4.648,0.432C279.121,17.395,279.506,17.082,279.546,16.651L279.546,16.651z"/>
<path fill="#FF9136" d="M378.436,41.194c-1.422-0.637-2.865-1.273-4.298-1.888c-0.394-0.168-0.856,0.013-1.024,0.413
	c-0.172,0.394,0.016,0.852,0.408,1.023c1.425,0.609,2.86,1.241,4.271,1.875c0.042,0.021,0.09,0.036,0.135,0.047
	c0.357,0.088,0.74-0.088,0.896-0.438C379.001,41.833,378.823,41.371,378.436,41.194L378.436,41.194z"/>
<path fill="#FF9136" d="M270.221,15.826c0.034-0.429-0.288-0.804-0.719-0.836c-1.55-0.116-3.123-0.226-4.681-0.327
	c-0.432-0.026-0.8,0.301-0.825,0.731c-0.028,0.379,0.23,0.716,0.587,0.805c0.046,0.011,0.092,0.019,0.14,0.021
	c1.551,0.101,3.118,0.208,4.662,0.326C269.813,16.577,270.189,16.255,270.221,15.826L270.221,15.826z"/>
<path fill="#FF9136" d="M386.924,45.198c-1.396-0.689-2.818-1.375-4.23-2.039c-0.387-0.186-0.854-0.019-1.037,0.37
	c-0.181,0.393-0.016,0.854,0.373,1.041c1.402,0.658,2.817,1.342,4.204,2.025c0.051,0.026,0.106,0.045,0.157,0.058
	c0.348,0.086,0.722-0.079,0.885-0.412C387.467,45.856,387.309,45.389,386.924,45.198L386.924,45.198z"/>
<path fill="#FF9136" d="M260.88,15.209c0.021-0.429-0.308-0.796-0.737-0.819c-1.547-0.083-3.122-0.157-4.686-0.222
	c-0.431-0.02-0.796,0.314-0.815,0.747c-0.015,0.376,0.24,0.703,0.595,0.79c0.051,0.013,0.1,0.019,0.153,0.022
	c1.56,0.067,3.13,0.14,4.668,0.221C260.49,15.971,260.857,15.641,260.88,15.209L260.88,15.209z"/>
<path fill="#FF9136" d="M395.263,49.505c-1.363-0.739-2.76-1.476-4.15-2.192c-0.384-0.198-0.855-0.047-1.053,0.334
	c-0.196,0.382-0.046,0.854,0.335,1.051c1.379,0.713,2.768,1.445,4.128,2.18c0.058,0.03,0.12,0.055,0.183,0.07
	c0.337,0.083,0.698-0.068,0.871-0.389C395.783,50.184,395.643,49.708,395.263,49.505L395.263,49.505z"/>
<path fill="#FF9136" d="M251.523,14.801c0.017-0.431-0.321-0.791-0.753-0.807c-0.729-0.022-1.463-0.043-2.196-0.064
	c-0.832-0.021-1.665-0.042-2.494-0.056c-0.433-0.007-0.787,0.335-0.795,0.768c-0.005,0.372,0.248,0.685,0.593,0.771
	c0.055,0.013,0.114,0.021,0.175,0.024c0.825,0.014,1.649,0.031,2.48,0.057c0.731,0.02,1.459,0.039,2.186,0.061
	C251.15,15.57,251.511,15.231,251.523,14.801L251.523,14.801z"/>
<path fill="#FF9136" d="M403.437,54.116c-1.339-0.79-2.705-1.579-4.064-2.345c-0.374-0.211-0.852-0.078-1.062,0.297
	c-0.213,0.375-0.081,0.851,0.293,1.063c1.352,0.761,2.711,1.544,4.042,2.329c0.065,0.039,0.136,0.069,0.209,0.087
	c0.326,0.081,0.678-0.058,0.858-0.363C403.934,54.814,403.809,54.337,403.437,54.116L403.437,54.116z"/>
<path fill="#FF9136" d="M242.168,14.607c-0.001-0.431-0.346-0.783-0.779-0.784c-1.559-0.006-3.138,0.002-4.691,0.021
	c-0.431,0.006-0.776,0.361-0.769,0.791c0.003,0.364,0.256,0.664,0.593,0.747c0.062,0.015,0.129,0.026,0.196,0.023
	c1.544-0.02,3.116-0.024,4.667-0.02C241.813,15.385,242.164,15.037,242.168,14.607L242.168,14.607z"/>
<path fill="#FF9136" d="M411.436,59.035c-1.311-0.842-2.65-1.681-3.977-2.497c-0.367-0.226-0.849-0.113-1.074,0.255
	c-0.227,0.368-0.108,0.848,0.257,1.073c1.319,0.811,2.649,1.648,3.951,2.481c0.072,0.047,0.15,0.082,0.232,0.102
	c0.313,0.078,0.658-0.049,0.846-0.337C411.901,59.75,411.795,59.268,411.436,59.035L411.436,59.035z"/>
<path fill="#FF9136" d="M232.809,14.696c-0.011-0.43-0.37-0.77-0.804-0.758c-1.56,0.045-3.135,0.103-4.686,0.169
	c-0.431,0.019-0.768,0.383-0.748,0.815c0.015,0.354,0.266,0.641,0.594,0.722c0.07,0.017,0.144,0.025,0.222,0.023
	c1.543-0.069,3.112-0.125,4.665-0.169C232.482,15.487,232.822,15.13,232.809,14.696L232.809,14.696z"/>
<path fill="#FF9136" d="M419.237,64.254c-1.273-0.887-2.576-1.778-3.876-2.649c-0.358-0.239-0.842-0.143-1.08,0.216
	c-0.242,0.358-0.146,0.842,0.21,1.081c1.291,0.865,2.591,1.752,3.853,2.633c0.08,0.055,0.172,0.094,0.261,0.116
	c0.305,0.076,0.64-0.038,0.826-0.31C419.677,64.987,419.591,64.499,419.237,64.254L419.237,64.254z"/>
<path fill="#FF9136" d="M223.458,15.083c-0.027-0.428-0.394-0.756-0.825-0.731c-1.563,0.093-3.14,0.201-4.682,0.319
	c-0.432,0.035-0.753,0.409-0.721,0.838c0.029,0.345,0.273,0.621,0.591,0.699c0.079,0.02,0.163,0.027,0.249,0.02
	c1.533-0.116,3.104-0.224,4.657-0.315C223.155,15.883,223.483,15.514,223.458,15.083L223.458,15.083z"/>
<path fill="#FF9136" d="M214.127,15.774c-0.044-0.432-0.425-0.748-0.853-0.706c-1.549,0.145-3.119,0.303-4.668,0.471
	c-0.426,0.049-0.737,0.432-0.689,0.861c0.037,0.334,0.279,0.596,0.587,0.672c0.088,0.021,0.179,0.029,0.271,0.019
	c1.54-0.169,3.102-0.327,4.646-0.469C213.85,16.58,214.165,16.201,214.127,15.774L214.127,15.774z"/>
<path fill="#FF9136" d="M426.832,69.773c-1.241-0.94-2.511-1.88-3.771-2.797c-0.349-0.252-0.836-0.177-1.091,0.172
	c-0.254,0.349-0.173,0.838,0.176,1.091c1.249,0.91,2.51,1.846,3.745,2.777c0.089,0.067,0.183,0.109,0.282,0.134
	c0.294,0.073,0.616-0.028,0.812-0.285C427.241,70.521,427.176,70.032,426.832,69.773L426.832,69.773z"/>
<path fill="#FF9136" d="M204.818,16.766c-0.057-0.428-0.444-0.729-0.872-0.678c-1.546,0.197-3.108,0.409-4.652,0.628
	c-0.427,0.062-0.719,0.456-0.659,0.882c0.045,0.326,0.284,0.575,0.584,0.648c0.097,0.024,0.194,0.029,0.298,0.013
	c1.534-0.219,3.09-0.429,4.626-0.622C204.571,17.583,204.871,17.193,204.818,16.766L204.818,16.766z"/>
<path fill="#FF9136" d="M434.206,75.581c-1.204-0.985-2.434-1.977-3.657-2.938c-0.34-0.267-0.831-0.212-1.098,0.127
	s-0.208,0.83,0.131,1.097c1.216,0.959,2.439,1.94,3.635,2.923c0.096,0.075,0.199,0.126,0.311,0.153
	c0.279,0.069,0.594-0.023,0.788-0.262C434.59,76.348,434.54,75.857,434.206,75.581L434.206,75.581z"/>
<path fill="#FF9136" d="M195.55,18.067c-0.069-0.425-0.467-0.713-0.894-0.646c-1.535,0.245-3.093,0.509-4.628,0.782
	c-0.424,0.076-0.706,0.479-0.631,0.905c0.058,0.313,0.291,0.547,0.583,0.62c0.104,0.026,0.211,0.029,0.321,0.012
	c1.529-0.272,3.078-0.536,4.605-0.778C195.327,18.893,195.618,18.492,195.55,18.067L195.55,18.067z"/>
<path fill="#FF9136" d="M186.333,19.68c-0.087-0.423-0.494-0.698-0.919-0.616c-1.523,0.299-3.07,0.615-4.598,0.941
	c-0.421,0.088-0.691,0.504-0.598,0.926c0.063,0.302,0.293,0.526,0.576,0.596c0.107,0.027,0.23,0.028,0.347,0.002
	c1.519-0.323,3.058-0.637,4.572-0.932C186.137,20.512,186.415,20.105,186.333,19.68L186.333,19.68z"/>
<path fill="#FF9136" d="M177.172,21.605c-0.098-0.42-0.517-0.681-0.939-0.586c-1.514,0.353-3.049,0.722-4.562,1.098
	c-0.419,0.105-0.671,0.529-0.567,0.946c0.073,0.291,0.3,0.501,0.569,0.568c0.122,0.03,0.25,0.033,0.378,0
	c1.503-0.375,3.029-0.74,4.539-1.09C177.007,22.445,177.27,22.025,177.172,21.605L177.172,21.605z"/>
<path fill="#FF9136" d="M168.083,23.844c-0.11-0.417-0.539-0.664-0.957-0.551c-1.507,0.402-3.028,0.824-4.524,1.251
	c-0.414,0.12-0.652,0.55-0.533,0.965c0.078,0.28,0.299,0.479,0.562,0.544c0.128,0.032,0.266,0.031,0.401-0.007
	c1.49-0.426,3.002-0.847,4.496-1.246C167.947,24.688,168.194,24.26,168.083,23.844L168.083,23.844z"/>
<path fill="#FF9136" d="M159.078,26.393c-0.126-0.414-0.562-0.644-0.974-0.521c-1.487,0.456-2.994,0.929-4.476,1.408
	c-0.414,0.133-0.637,0.573-0.504,0.985c0.085,0.265,0.302,0.454,0.557,0.517c0.136,0.034,0.281,0.031,0.424-0.017
	c1.478-0.477,2.975-0.946,4.455-1.397C158.97,27.241,159.204,26.807,159.078,26.393L159.078,26.393z"/>
<path fill="#FF9136" d="M150.163,29.251c-0.139-0.408-0.581-0.626-0.99-0.486c-1.474,0.507-2.963,1.03-4.427,1.562
	c-0.406,0.147-0.615,0.593-0.467,1c0.091,0.254,0.302,0.431,0.545,0.491c0.145,0.036,0.302,0.03,0.451-0.026
	c1.458-0.527,2.937-1.049,4.402-1.548C150.084,30.103,150.302,29.658,150.163,29.251L150.163,29.251z"/>
<path fill="#FF9136" d="M141.354,32.411c-0.153-0.401-0.604-0.603-1.006-0.448c-1.455,0.554-2.927,1.128-4.374,1.71
	c-0.4,0.159-0.594,0.615-0.434,1.015c0.096,0.243,0.302,0.409,0.539,0.468c0.153,0.038,0.318,0.027,0.474-0.034
	c1.443-0.579,2.906-1.15,4.351-1.703C141.305,33.267,141.506,32.815,141.354,32.411L141.354,32.411z"/>
<path fill="#FF9136" d="M132.657,35.872c-0.169-0.395-0.625-0.582-1.023-0.414c-1.427,0.599-2.878,1.224-4.311,1.858
	c-0.394,0.172-0.57,0.633-0.397,1.026c0.099,0.23,0.297,0.388,0.527,0.445c0.159,0.04,0.335,0.028,0.503-0.045
	c1.419-0.626,2.863-1.247,4.284-1.848C132.638,36.729,132.823,36.27,132.657,35.872L132.657,35.872z"/>
<path fill="#FF9136" d="M124.08,39.626c-0.18-0.391-0.645-0.561-1.035-0.381c-1.413,0.651-2.84,1.327-4.245,2.003
	c-0.391,0.186-0.552,0.654-0.365,1.041c0.105,0.219,0.297,0.366,0.515,0.42c0.17,0.042,0.357,0.027,0.527-0.056
	c1.395-0.672,2.818-1.342,4.22-1.989C124.091,40.481,124.259,40.018,124.08,39.626L124.08,39.626z"/>
<path fill="#FF9136" d="M115.635,43.667c-0.193-0.386-0.662-0.54-1.049-0.346c-1.388,0.695-2.791,1.416-4.177,2.141
	c-0.382,0.198-0.529,0.669-0.329,1.054c0.107,0.207,0.296,0.343,0.503,0.394c0.181,0.045,0.375,0.025,0.551-0.066
	c1.378-0.72,2.771-1.437,4.152-2.131C115.673,44.522,115.825,44.052,115.635,43.667L115.635,43.667z"/>
<path fill="#FF9136" d="M107.33,47.987c-0.21-0.38-0.682-0.52-1.06-0.313c-1.364,0.744-2.747,1.507-4.104,2.278
	c-0.379,0.212-0.508,0.688-0.295,1.062c0.108,0.194,0.289,0.326,0.489,0.375c0.187,0.046,0.391,0.022,0.573-0.081
	c1.35-0.762,2.724-1.525,4.081-2.265C107.395,48.839,107.534,48.362,107.33,47.987L107.33,47.987z"/>
<path fill="#FF9136" d="M99.165,52.573c-0.217-0.372-0.694-0.496-1.066-0.276c-1.334,0.783-2.694,1.595-4.03,2.409
	c-0.367,0.224-0.485,0.703-0.261,1.07c0.113,0.185,0.288,0.306,0.48,0.353c0.196,0.048,0.409,0.021,0.593-0.091
	c1.329-0.81,2.678-1.618,4.006-2.398C99.259,53.422,99.386,52.945,99.165,52.573L99.165,52.573z"/>
<path fill="#FF9136" d="M91.155,57.422c-0.229-0.365-0.711-0.475-1.075-0.243c-1.326,0.833-2.657,1.687-3.954,2.534
	c-0.358,0.236-0.459,0.719-0.225,1.079c0.114,0.172,0.281,0.288,0.464,0.333c0.204,0.051,0.428,0.019,0.615-0.105
	c1.291-0.841,2.615-1.69,3.928-2.523C91.276,58.269,91.387,57.785,91.155,57.422L91.155,57.422z"/>
<path fill="#F99746" d="M457.631,82.74c-3.153,0-5.708-2.545-5.708-5.698c0-0.772,0.154-1.505,0.434-2.18
	c0.858-2.073,2.893-3.529,5.274-3.529c3.153,0,5.708,2.555,5.708,5.708c0,2.729-1.908,4.995-4.464,5.554
	C458.479,82.692,458.056,82.74,457.631,82.74L457.631,82.74z M457.631,64.959c-2.912,0-5.593,1.022-7.694,2.729
	c-2.758,2.247-4.514,5.66-4.514,9.478c0,6.741,12.208,21.725,12.208,21.725s5.545-6.808,9.15-13.307
	c1.755-3.144,3.058-6.22,3.058-8.418C469.839,70.427,464.371,64.959,457.631,64.959L457.631,64.959z"/>
<path fill="#ED7D2B" d="M466.781,85.585c-3.605,6.499-9.15,13.307-9.15,13.307s-12.208-14.984-12.208-21.725
	c0-3.818,1.756-7.231,4.514-9.478c0.463,2.208,1.215,4.735,2.42,7.174c-0.279,0.675-0.434,1.408-0.434,2.18
	c0,3.153,2.555,5.698,5.708,5.698c0.425,0,0.849-0.048,1.244-0.144C461.006,84.051,463.609,85.122,466.781,85.585L466.781,85.585z"
	/>
</svg>
