<?xml version="1.0" encoding="utf-8"?>
<!-- Generator: Adobe Illustrator 13.0.0, SVG Export Plug-In . SVG Version: 6.00 Build 14948)  -->
<!DOCTYPE svg PUBLIC "-//W3C//DTD SVG 1.1//EN" "http://www.w3.org/Graphics/SVG/1.1/DTD/svg11.dtd">
<svg version="1.1" id="Layer_1" xmlns="http://www.w3.org/2000/svg" xmlns:xlink="http://www.w3.org/1999/xlink" x="0px" y="0px"
	 width="500px" height="600px" viewBox="0 0 500 600" enable-background="new 0 0 500 600" xml:space="preserve">
<path fill="#2B478B" d="M239.336,553.792c7.607-5.38,16.017-12.306,24.72-15.791c8.389-3.362,19.654,0.273,27.951,2.369
	c0.93,0.233,1.217,1.024,1.063,1.748c0.004,0.003,0.009,0.006,0.013,0.011c8.236,13.269-6.265,23.76-17.055,28.409
	c-10.136,4.37-20.785,7.627-31.607,9.781c-5.617,1.118-17.393,4.978-22.517,1.193C209.781,572.559,233.781,557.72,239.336,553.792"
	/>
<path fill="#2B478B" d="M164.8,550.728c7.906-3.673,16.607-8.198,25.13-10.129c8.852-2.004,16.998,1.4,24.948,4.997
	c0.312,0.142,0.499,0.348,0.633,0.569c0.455,0.039,0.9,0.357,0.885,0.899c-0.192,7.068-0.976,14.526-6.407,19.657
	c-5.721,5.406-14.517,6.504-21.904,7.875c-10.987,2.038-22.121,3.393-33.279,3.981c-4.579,0.243-16.043,1.522-19.207-3.256
	C129.581,566.233,159.313,553.276,164.8,550.728"/>
<path fill="#699FF0" d="M160.328,409.142c9.129-43.448,18.939-87.79,33.587-129.74c0.305-0.879,1.061-1.267,1.965-1.116
	c29.089,4.873,58.35,6.683,87.816,6.901c0.879,0.006,1.217,0.789,1.05,1.436c2.003,22.253,1.84,44.773,2.994,67.091
	c1.158,22.361,2.65,44.705,4.324,67.033c3.283,43.808,7.144,87.572,10.847,131.343c0.08,0.945,0.555,2.469,0.246,3.025
	c-0.488,0.41-1.8,0.247-2.861,0.313c-9.682,0.61-18.811-1.425-27.939-4.563c-5.605-1.929-14.947-3.874-18.71-9.11
	c-4.015-5.588-2.937-15.416-3.51-21.862c-0.996-11.147-1.945-22.299-2.881-33.454c-3.811-45.346-7.437-90.707-11.134-136.063
	c-0.01-0.119,0.026-0.209,0.039-0.313c-0.914-0.007-1.831-0.058-2.756-0.185c-0.262-0.034-0.515-0.098-0.771-0.144
	c-2.89,16.917-7.13,33.553-12.948,49.721c-7.091,19.701-17.798,36.559-13.433,58.295c3.801,18.916,9.304,37.518,13.287,56.418
	c2.019,9.582,3.903,19.195,5.651,28.831c0.755,4.151,3.364,11.193-0.07,14.923c-2.781,3.026-7.753,1.792-11.211,1.252
	c-8.099-1.265-16.454-3.534-23.874-7.084c-14.013-6.703-14.532-22.124-17.479-35.832c-4.077-18.967-7.901-37.989-11.463-57.06
	C157.891,442.035,156.709,426.376,160.328,409.142"/>
<path fill="#EFC5BC" d="M293.974,202.368c-1.052-0.559-1.277-2.31,0.173-2.583c11.157-2.104,22.106-4.922,33.194-7.3
	c0.405-0.392,1.237-0.311,1.428,0.354c6.096,21.255,4.968,45.563,5.438,67.482c0.47,21.947,0.651,43.934-3.389,65.596
	c-0.115,0.612-0.485,0.933-0.922,1.064c-0.107,0.333-0.389,0.62-0.849,0.677c-5.887,0.71-11.879,0.777-17.807,0.928
	c-0.037,0.001-0.072,0.003-0.11,0.003c-0.133,0.003-0.263,0.007-0.394,0.01c-0.9,0.024-1.3-0.71-1.231-1.403
	c-0.008-0.053-0.036-0.092-0.04-0.147C306.745,285.667,289.582,244.067,293.974,202.368"/>
<path fill="#EFC5BC" d="M186.124,243.25c-6.215,17.978-15.903,34.5-21.398,52.755c-0.22,0.734-0.784,1.074-1.375,1.113
	c-0.138,0.111-0.297,0.194-0.49,0.206c-5.75,0.393-11.718-0.707-17.221-2.322c-0.589-0.176-0.854-0.628-0.876-1.1
	c-0.15-0.283-0.222-0.622-0.121-1.022c5.255-20.373,8.521-41.117,12.65-61.729c3.815-19.063,7.895-39.82,17.892-56.759
	c0.394-0.665,1.4-0.43,1.586,0.19c4.902,0.577,9.348,3.133,13.466,5.732c3.76,2.374,10.02,5.374,12.213,9.414
	c0.147,0.271,0.163,0.564,0.087,0.834c0.341,0.038,0.654,0.32,0.496,0.706C196.082,208.217,192.094,225.985,186.124,243.25"/>
<path fill="#F99746" d="M169.839,165.061c8.681-19.471,19.487-39.083,42.878-41.278c6.479-0.606,19.85-3.616,24.271,2.288
	c4.493,6.002,3.205,14.556,14.449,11.718c7.602-1.918,12.566-7.135,18.326-11.994c0.664-0.56,2.24-0.333,3.434-0.415
	c0.035-0.005,0.065-0.023,0.103-0.023c12.225-0.291,29.579,1.188,39.465,9.249c9.175,7.48,12.242,21.951,15.302,32.671
	c2.479,8.685,4.417,17.526,5.822,26.448c0.32,2.039,1.206,4.496-0.264,6.188c-3.43,3.943-16.445,4.328-21.356,5.12
	c-7.854,1.266-15.754,2.007-23.696,2.399c2.82,29.747,7.722,59.192,10.29,88.963c0.061,0.671-0.536,1.405-1.18,1.552
	c-35.29,8.03-72.517,5.315-105.994-8.67c-4.29-1.793-9.18-2.839-9.84-8.038c-0.972-7.618,3.324-18.411,4.976-25.8
	c4.032-18.029,8.936-35.835,14.587-53.418c-0.162-0.006-0.326-0.045-0.494-0.12c-10.549-4.729-20.49-11.527-29.396-18.877
	c-6.743-5.566-5.973-10.7-1.775-17.556C169.767,165.333,169.773,165.2,169.839,165.061"/>
<path fill="#297FA6" d="M299.467,54.444c-1.887,0.147-3.478,0.093-5.082-0.134c5.608,7.862,7.453,18.57,5.001,27.942
	c-1.196,4.571-5.981,9.144-9.938,7.189c0.365,5.104-0.381,10.796-5.821,12.585c-3.811,1.25-7.263-0.861-7.787-4.484
	c-0.498-0.181-0.874-0.619-0.821-1.324c1.148-15.477-13.566-31.779-26.602-38.712c-10.212-5.432-14.38-4.137-23.437-11.831
	c-5.879-4.992-2.551-12.413,3.85-17.349c7.002-5.402,2.981-4.39,10.529-1.322c-0.01-5.218,7.766-5.706,12.53-4.395
	c11.521,3.17,21.908,9.337,30.762,17.265c0.289-1.419,0.654-2.797,1.175-4.254c0.299-0.844,1.578-1.469,2.256-0.597
	c2.669,3.429,3.723,9.54,6.61,12.207c0.328,0.302,3.976,1.24,4.604,1.654c1.595,1.048,2.243,2.046,3.326,3.546
	C301.265,53.327,300.374,54.375,299.467,54.444"/>
<path fill="#EFC5BC" d="M230.514,106.711c-7.382-4.883-10.159-13.529-8.75-22.267c1.031-6.395,4.91-12.196,5.141-18.743
	c0.227-6.467-2.497-11.515-0.013-17.645c-0.083-1.185,0.506-2.371,2.014-2.728c5.705-1.353,10.499-0.088,15.596,2.739
	c10.398,5.769,18.689,10.742,30.589,4.853c1.852-0.917,3.686,0.229,3.879,2.224c0.372,3.862,0.783,7.72,1.12,11.585
	c0.172,1.651,0.3,3.305,0.383,4.965c0.179,0.446,0.302,0.829,0.4,1.185c2.238-1.26,4.804-1.803,7.351-0.869
	c3.155,1.156,4.704,4.324,4.316,7.567c-0.649,5.433-6.896,10.93-11.966,8.462c-0.658,5.504-3.735,10.493-8.111,14.545
	c0.026,0.154,0.014,0.317-0.071,0.479c-2.33,4.395-3.235,8.652-3.134,13.641c0.069,3.484,1.979,8.673,0.853,12.061
	c-0.723,2.176-2.998,3.891-5.42,5.329c-4.71,3.845-11.584,6.462-16.48,7.565c-8.817,1.985-11.579-7.356-14.49-14.107
	c-0.209-0.483-0.28-0.955-0.264-1.405c-0.235-0.78-0.366-1.556-0.291-2.304c0.196-1.934,1.211-3.937,1.707-5.818
	c0.516-1.942,0.949-3.902,1.387-5.862c0.021-0.257,0.053-0.508,0.072-0.764c-0.023-0.197-0.039-0.394-0.063-0.592
	C234.119,109.817,232.16,108.48,230.514,106.711"/>
<path fill="#8ECDD3" d="M279.07,86.328c0.443,0.721,0.947,1.308,1.488,1.786c-0.043,0.354-0.123,0.7-0.187,1.049
	c-5.125,15.511-29.967,18.453-47.262,19.816c-0.929-0.664-1.8-1.414-2.598-2.27c-7.381-4.882-10.16-13.526-8.75-22.266
	c0.55-3.411,1.904-6.655,3.089-9.931c8.033-4.777,19.536,2.045,28.063,2.127c9.483,0.09,18.183-5.004,27.596-4.831
	c0.104,0.278,0.187,0.526,0.261,0.767C277.111,75.788,276.411,82.015,279.07,86.328"/>
<path fill="#79C9F1" d="M138.427,318.563c-2.645,5.326-8.581,10.292-8.108,16.571c0.53,7.014,11.61,17.435,19.229,22.198
	c0.408,0.256,1.215,0.951,2.22,1.435c1.605,0.083,3.208-1.064,3.685-2.614c0.229-0.752-0.141-2.019-0.424-2.843
	c1.436-0.236,3.036-1.302,3.03-3.205c-0.009-2.147-1.587-3.639-2.84-5.189c-1.861-2.309-10.282-14.466-4.218-16.117
	c2.887-0.787,3.4,7.664,5.58,10.883c1.563,2.308,5.459,1.795,5.833-0.45c0.577-2.687-0.709-7.098-1.495-12.047
	c-0.921-5.781,0.637-12.474,1.642-18.375c0.826-4.862,2.432-9.667,3.891-14.366c0.297-0.958,0.03-2.037-2.122-2.386
	c-7.508-1.221-14.37-2.701-21.518-5.242c-0.414-0.147-2.089-0.006-1.475,2.821C143.517,299.686,143.1,309.156,138.427,318.563"/>
<path fill="#79C9F1" d="M329.378,348.811c1.371,5.783,5.396,11.802,4.152,17.974c-2.027,10.066-16.575,15.521-25.073,18.441
	c-0.455,0.156-0.854,0.005-1.158-0.268c-1.586-0.281-2.886-1.761-3-3.378c-0.053-0.783,0.209-1.653,0.669-2.39
	c-1.346-0.556-2.278-2.24-1.84-4.091c0.493-2.09,2.366-3.187,3.937-4.414c2.338-1.828,12.858-11.082,7.754-14.745
	c-0.23-0.167-0.369-0.392-0.444-0.629c-4.063,0.862-3.857,7.988-6.708,10.629c-2.046,1.896-5.158,1.987-6.892-0.279
	c-0.317-0.413-0.269-0.819-0.038-1.128c-2.62-4.381,0.268-9.551,2.15-14.193c2.202-5.426,4.831-10.51,5.186-16.485
	c0.294-4.922-0.185-9.966-0.543-14.872c-0.074-1.002,0.729-1.453,1.516-1.386c0.247-0.315,0.606-0.524,1.089-0.462
	c7.547,0.968,14.61,0.618,22.146-0.241c0.437-0.051,0.745,0.137,0.934,0.417c0.533,0.27,0.892,0.795,0.914,1.414
	c0.295,0.227,0.439,0.621,0.192,1.085C329.441,328.861,326.951,338.594,329.378,348.811"/>
<path fill="#79C9F1" d="M329.622,348.779c2.081,5.525,5.152,11.833,3.909,18.005c-2.029,10.068-16.575,15.521-25.075,18.442
	c-0.453,0.153-0.853,0.004-1.156-0.269c-1.586-0.281-2.888-1.76-3-3.378c-0.055-0.785,0.207-1.651,0.669-2.391
	c-1.346-0.557-2.278-2.239-1.842-4.09c0.493-2.09,2.366-3.186,3.937-4.414c2.34-1.826,12.858-11.08,7.753-14.747
	c-0.229-0.163-0.368-0.389-0.443-0.628c-4.063,0.864-3.857,7.989-6.706,10.631c-2.046,1.894-5.16,1.986-6.894-0.278
	c-0.315-0.415-0.268-0.823-0.038-1.128c-2.618-4.382,0.27-9.553,2.152-14.194c2.201-5.426,4.83-10.509,5.186-16.486
	c0.292-4.923-0.184-9.966-0.544-14.872c-0.073-1.002,0.73-1.451,1.515-1.386c0.249-0.315,0.608-0.524,1.091-0.46
	c7.545,0.968,14.61,0.618,22.145-0.243c0.438-0.049,0.746,0.137,0.935,0.417c0.534,0.268,0.891,0.797,0.915,1.415
	c0.293,0.226,0.438,0.622,0.191,1.082C329.442,328.859,325.923,338.949,329.622,348.779"/>
<path fill="#D1A57F" d="M277.891,375.52c3.447-4.129,7.471-9.486,12.665-11.548c5.812-2.307,13.588-0.938,19.671-0.949
	c18.066-0.034,36.267-0.503,54.31,0.564c0.736,0.046,1.059,0.649,0.988,1.201c0.101,0.214,0.164,0.445,0.141,0.688
	c-1.991,20.097-4.465,40.211-5.959,60.348c-0.633,8.523,1.919,17.779,0.864,26.061c-0.695,5.455-4.949,6.651-9.705,9.059
	c-1.008,0.512-1.8-0.41-1.595-1.245c-0.631-0.318-1.042-0.963-0.71-1.836c3.411-8.923,0.521-20.688,0.184-30.107
	c-0.351-9.785-0.349-19.583,0.005-29.364c0.219-6.042-1.016-16.369,1.169-22.601c-5.785,0.769-13.058-0.207-18.341-0.063
	c-17.535,0.473-35.062,1.35-52.564,2.506C277.516,378.332,277.084,376.486,277.891,375.52"/>
<path fill="#E0B891" d="M348.745,427.753c-0.351-9.781-0.349-19.581,0.004-29.362c0.193-5.314-1.146-17.486,0.111-23.727
	c5.416-4.514,11.243-5.477,16.659-9.99c0,0.039,0.011,0.076,0.006,0.114c0.101,0.214,0.163,0.443,0.139,0.688
	c-1.989,20.095-4.464,40.209-5.957,60.35c-0.634,8.521,1.919,17.777,0.862,26.059c-0.695,5.455-4.95,6.649-9.703,9.059
	c-1.008,0.511-1.802-0.41-1.595-1.245c-0.632-0.318-1.044-0.963-0.711-1.834C351.972,448.939,349.082,437.175,348.745,427.753"/>
<path fill="#ECC7A3" d="M278.338,375.501c-0.968,0.075-1.125,1.362-0.771,2.563c7.95,26.773,12.199,54.244,12.75,82.17
	c0.019,0.87,0.76,1.728,1.681,1.683c19.193-1.011,38.972-1.201,58.187-0.826c0.901,0.019,1.168-0.89,1.134-1.802
	c-1.028-28.948,1.164-53.882,2.676-82.739c0.011-0.197,0.73-5.245,0.022-5.284c-8.633-0.46-18.037-0.472-26.933-0.037
	c0.565-3.083,0.534-7.597-2.505-8.616c-2.406-0.808-6.005,0.022-8.567,0.103c-3.57,0.114-7.142,0.224-10.712,0.336
	c-0.958,0.029-1.685,0.768-1.719,1.717c-0.095,2.738-0.298,5.501-0.182,8.241c-7.812,0.747-15.567,1.584-23.139,2.376
	C279.748,375.439,278.918,375.426,278.338,375.501 M322.541,368.375c0.325,0.494,0.319,2,0.351,3.097
	c-4.804,0.284-9.611,0.649-14.409,1.072c-0.033-1.622-0.187-3.396,0.01-4.99c2.883-0.679,6.509-0.326,9.307-0.259
	C319.35,367.329,321.563,366.895,322.541,368.375"/>
<path fill="#7AC9F0" d="M307.095,353.981c5.088-4.967,13.209-1.429,12.569,5.407c0.67-0.209,1.417-0.189,2.023,0.076
	c0.294,0.131,0.533,0.309,0.752,0.498c0.517-0.213,1.05-0.396,1.606-0.535c0.651-0.167,1.253-0.118,1.801,0.042
	c0.817-1.279,2.495-2.03,3.982-1.596c2.14,0.625,3.323,2.369,3.432,4.365c0.112,0.258,0.188,0.528,0.179,0.8
	c-0.249,8.335-13.876,9.386-19.973,9.157c-0.118-0.005-0.231-0.024-0.348-0.035c-0.213,0.105-0.413,0.06-0.562-0.055
	c-2.415-0.368-4.387-1.851-3.83-4.755c0.294-1.542,1.396-2.546,2.344-3.721c0.521-0.645,2.283-2.264,2.215-3.237
	c-0.215-3.022-2.596-3.414-4.874-3.232C306.771,357.29,305.997,355.054,307.095,353.981"/>
<path fill="#7AC9F0" d="M329.943,318.523c0.025-0.059,0.048-0.117,0.071-0.176c0.357-0.885,1.125-1.741,2.189-1.668l0.167,0.013
	c1.436,0.102,2.353,1.274,2.054,2.697c-0.152,0.725-0.62,1.259-1.25,1.617c-0.767,0.436-1.753,0.379-2.443-0.173
	C330.104,320.336,329.615,319.338,329.943,318.523"/>
<path fill="#7AC9F0" d="M310.61,317.667c0.315,0.331,0.545,0.706,0.729,1.124c0.267,0.605,0.314,1.238-0.127,1.792
	c-0.368,0.462-1.097,0.815-1.696,0.577c-1.041-0.409-1.726-1.16-1.761-2.312C307.708,317.412,309.623,316.627,310.61,317.667"/>
<g>
	<g>
		<rect x="311.199" y="369.263" fill="none" width="3.2" height="2.159"/>
		<path fill="#CCECF9" d="M311.315,371.074c1.061-0.311,1.874-0.911,2.592-1.73c0.182-0.205,0.576,0.014,0.475,0.276
			c-0.488,1.281-1.736,1.956-3.066,1.771C311.146,371.367,311.174,371.114,311.315,371.074"/>
	</g>
</g>
<g>
	<g>
		<rect x="317.449" y="369.468" fill="none" width="2.964" height="2.589"/>
		<path fill="#CCECF9" d="M317.565,371.585c0.818-0.578,1.499-1.126,2.096-1.942c0.295-0.401,0.96-0.042,0.687,0.401
			c-0.576,0.941-1.499,1.74-2.589,2.003C317.472,372.115,317.335,371.748,317.565,371.585"/>
	</g>
</g>
<g>
	<g>
		<rect x="323.604" y="368.312" fill="none" width="2.968" height="2.907"/>
		<path fill="#CCECF9" d="M323.69,370.761c0.841-0.729,1.482-1.393,2.159-2.28c0.247-0.326,0.832-0.159,0.703,0.298
			c-0.323,1.153-1.409,2.204-2.599,2.436C323.712,371.264,323.47,370.951,323.69,370.761"/>
	</g>
</g>
<g>
	<g>
		<rect x="195.791" y="304.275" fill="none" width="60.623" height="45.817"/>
		<path fill="#CCECF9" d="M198.115,337.028c8.916,4.144,18.154,7.471,27.603,9.216c-3.699-14.271-0.373-28.654,5.817-41.765
			c0.201-0.424,0.872-0.122,0.749,0.316c-3.807,13.725-7.224,26.799-4.04,41.064c0.068,0.305,0.015,0.56-0.083,0.788
			c9.112,1.406,18.407,1.294,27.798-1.077c0.477-0.121,0.632,0.544,0.197,0.718c-20.159,8.148-40.623,1.924-59.575-6.633
			C194.806,338.856,196.345,336.208,198.115,337.028"/>
	</g>
</g>
<g>
	<g>
		<rect x="238.008" y="304.637" fill="none" width="6.066" height="42.924"/>
		<path fill="#CCECF9" d="M243.159,304.958c0.222-0.544,1.038-0.354,0.9,0.248c-3.179,13.974-4.235,27.041-2.481,41.258
			c0.153,1.248-1.973,1.542-2.206,0.301C236.775,332.886,237.802,318.078,243.159,304.958"/>
	</g>
</g>
<g>
	<g>
		<rect x="141.337" y="337.701" fill="none" width="14.341" height="15.76"/>
		<path fill="#CCECF9" d="M141.688,337.82c1.356,3.427,3.225,6.617,5.787,9.291c2.41,2.514,5.266,4.092,8.118,5.992
			c0.17,0.114,0.068,0.415-0.147,0.348c-6.727-2.083-11.98-9.11-14.099-15.536C141.273,337.696,141.604,337.613,141.688,337.82"/>
	</g>
</g>
<g>
	<g>
		<rect x="141.427" y="288.613" fill="none" width="23.49" height="6.913"/>
		<path fill="#CCECF9" d="M142.254,288.674c7.288,3.556,14.58,5.392,22.559,6.57c0.165,0.022,0.124,0.289-0.037,0.284
			c-7.983-0.266-15.855-2.567-23.07-5.916C141.075,289.32,141.624,288.367,142.254,288.674"/>
	</g>
</g>
<g>
	<g>
		<rect x="308.412" y="319.027" fill="none" width="25.298" height="2.942"/>
		<path fill="#CCECF9" d="M309.148,319.205c8.34,2.19,15.854,1.507,24.198-0.169c0.381-0.075,0.506,0.429,0.156,0.571
			c-7.795,3.196-16.645,2.849-24.67,0.744C308.094,320.157,308.407,319.012,309.148,319.205"/>
	</g>
</g>
<g>
	<g>
		<rect x="232.079" y="88.53" fill="none" width="46.09" height="18.664"/>
		<path fill="#CCECF9" d="M232.857,105.562c16.941-1.618,32.56-4.41,44.989-16.982c0.142-0.142,0.416,0.051,0.287,0.222
			c-10.563,14.081-28.825,16.986-45.276,18.39C231.813,107.28,231.826,105.66,232.857,105.562"/>
	</g>
</g>
<g>
	<g>
		<rect x="224.978" y="75.126" fill="none" width="52.617" height="6.992"/>
		<path fill="#CCECF9" d="M225.915,76.133c8.375-0.592,15.392,3.806,23.657,4.39c9.629,0.678,18.726-2.621,27.771-5.384
			c0.263-0.08,0.354,0.304,0.11,0.403c-7.845,3.123-16.242,6.08-24.758,6.538c-9.296,0.502-17.542-4.097-26.78-4.002
			C224.652,78.089,224.679,76.219,225.915,76.133"/>
	</g>
</g>
<g>
	<g>
		<rect x="222.809" y="87.49" fill="none" width="43.512" height="7.05"/>
		<path fill="#CCECF9" d="M223.621,91.313c14.891,1.995,28.249,1.29,42.516-3.814c0.153-0.055,0.261,0.194,0.112,0.265
			c-13.138,6.298-28.579,8.617-42.852,5.198C222.5,92.747,222.668,91.186,223.621,91.313"/>
	</g>
</g>
<g>
	<g>
		<rect x="231.709" y="86.122" fill="none" width="16.263" height="1.245"/>
		<path fill="#CCECF9" d="M231.986,86.512c5.326,0.43,10.525,0.414,15.818-0.388c0.166-0.024,0.239,0.226,0.07,0.256
			c-5.253,0.93-10.572,1.28-15.889,0.711C231.62,87.053,231.61,86.48,231.986,86.512"/>
	</g>
</g>
<g>
	<g>
		<rect x="240.354" y="94.425" fill="none" width="15.533" height="4.977"/>
		<path fill="#CCECF9" d="M240.654,98.769c5.204-0.623,10.142-2.021,14.859-4.316c0.284-0.139,0.533,0.281,0.249,0.424
			c-4.766,2.403-9.798,3.945-15.108,4.521C240.25,99.443,240.256,98.815,240.654,98.769"/>
	</g>
</g>
<g>
	<g>
		<rect x="283.604" y="75.2" fill="none" width="5.186" height="10.292"/>
		<path fill="#E3B4AC" d="M283.983,84.896c1.827-0.626,3.07-1.878,3.571-3.31c-0.765-1.174-2.014-1.655-3.383-1.453
			c-0.563,0.083-0.818-0.709-0.241-0.877c1.412-0.411,2.948,0.207,3.839,1.33c0.16-1.572-0.535-3.232-2.3-4.458
			c-0.523-0.363-0.07-1.167,0.503-0.861c4.53,2.408,3.379,9.827-1.91,10.224C283.705,85.518,283.676,85.002,283.983,84.896"/>
	</g>
</g>
<g>
	<g>
		<rect x="264.107" y="98.153" fill="none" width="11.89" height="7.953"/>
		<path fill="#E3B4AC" d="M264.232,105.761c4.693-1.489,8.427-3.877,11.677-7.594c0.038-0.043,0.112,0.014,0.08,0.062
			c-2.67,3.934-6.989,6.895-11.663,7.872C264.104,106.147,264.015,105.832,264.232,105.761"/>
	</g>
</g>
<g>
	<g>
		<rect x="235.469" y="106.705" fill="none" width="26.145" height="4.963"/>
		<path fill="#E3B4AC" d="M236.178,110.189c8.553-0.588,17.008-1.563,25.375-3.481c0.061-0.016,0.088,0.077,0.025,0.097
			c-8.294,2.536-16.727,4.337-25.4,4.86C235.227,111.723,235.236,110.254,236.178,110.189"/>
	</g>
</g>
<g>
	<g>
		<rect x="285.397" y="172.268" fill="none" width="13.382" height="125.502"/>
		<path fill="#FFDB00" d="M285.667,172.396c2.877,41.559,10.213,82.633,13.107,124.136c0.117,1.656-2.453,1.645-2.575,0
			c-3.069-41.646-11.035-82.179-10.798-124.136C285.402,172.223,285.655,172.227,285.667,172.396"/>
	</g>
</g>
<g>
	<g>
		<rect x="195.233" y="163.609" fill="none" width="23.073" height="59.304"/>
		<path fill="#FFDB00" d="M195.266,222.039c6.267-19.712,14.111-39.434,22.565-58.305c0.118-0.259,0.552-0.075,0.462,0.195
			c-6.43,19.69-13.461,39.659-21.771,58.64C196.209,223.283,195.031,222.774,195.266,222.039"/>
	</g>
</g>
<g>
	<g>
		<rect x="184.532" y="282.229" fill="none" width="110.312" height="16.445"/>
		<path fill="#FFDB00" d="M185.596,282.291c34.65,14.758,71.242,18.842,108.354,12.382c0.009-0.001,0.009,0.006,0.016,0.008
			c0.273-0.09,0.549-0.176,0.825-0.268c0.054-0.018,0.076,0.068,0.021,0.086c-0.299,0.096-0.6,0.194-0.898,0.291
			c-0.024,0.008-0.039-0.007-0.045-0.026c-36.574,7.685-74.808,4.098-108.973-11.275
			C184.075,283.121,184.79,281.946,185.596,282.291"/>
	</g>
</g>
<g>
	<g>
		<rect x="289.272" y="194.251" fill="none" width="42.114" height="8.239"/>
		<path fill="#FFDB00" d="M290.026,200.926c14.035-0.846,27.404-3.192,41.005-6.663c0.366-0.093,0.501,0.433,0.153,0.56
			c-13.109,4.754-27.23,7.216-41.158,7.669C289.016,202.525,289.027,200.985,290.026,200.926"/>
	</g>
</g>
<g>
	<g>
		<rect x="170.217" y="172.768" fill="none" width="33.085" height="23.556"/>
		<path fill="#FFDB00" d="M171.562,173.001c9.151,9.269,19.71,16.77,31.469,22.366c0.613,0.292,0.077,1.175-0.53,0.906
			c-12.094-5.367-22.763-12.747-32.055-22.156C169.73,173.394,170.847,172.278,171.562,173.001"/>
	</g>
</g>
<g>
	<g>
		<rect x="248.593" y="548.434" fill="none" width="12.419" height="11.248"/>
		<path fill="#33B2E9" d="M249.029,548.435c5.782,0.43,10.532,5.291,11.968,10.707c0.144,0.543-0.688,0.771-0.842,0.231
			c-1.559-5.518-5.879-8.706-11.246-10.059C248.431,549.193,248.516,548.397,249.029,548.435"/>
	</g>
</g>
<g>
	<g>
		<rect x="239.596" y="557.012" fill="none" width="10.015" height="8.317"/>
		<path fill="#33B2E9" d="M240.189,557.039c3.776,1.463,7.177,4.216,9.361,7.631c0.257,0.403-0.371,0.909-0.674,0.519
			c-2.496-3.206-5.379-5.533-9.051-7.281C239.348,557.678,239.685,556.846,240.189,557.039"/>
	</g>
</g>
<g>
	<g>
		<rect x="231.095" y="563.208" fill="none" width="6.646" height="6.958"/>
		<path fill="#33B2E9" d="M231.97,563.294c2.427,1.402,4.499,3.602,5.715,6.126c0.277,0.575-0.516,1.055-0.86,0.505
			c-1.444-2.31-3.181-4.109-5.452-5.605C230.736,563.903,231.304,562.911,231.97,563.294"/>
	</g>
</g>
<g>
	<g>
		<rect x="171.61" y="548.026" fill="none" width="10.495" height="9.591"/>
		<path fill="#33B2E9" d="M172.273,548.043c4.587,1.079,8.182,4.608,9.796,8.967c0.23,0.615-0.736,0.86-0.973,0.268
			c-1.637-4.086-4.973-6.865-9.107-8.199C171.333,548.865,171.598,547.883,172.273,548.043"/>
	</g>
</g>
<g>
	<g>
		<rect x="162.502" y="554.145" fill="none" width="7.313" height="6.085"/>
		<path fill="#33B2E9" d="M162.959,554.164c2.928,0.906,5.316,2.879,6.812,5.545c0.218,0.392-0.377,0.741-0.601,0.351
			c-1.434-2.498-3.674-4.283-6.407-5.176C162.31,554.733,162.5,554.021,162.959,554.164"/>
	</g>
</g>
<g>
	<g>
		<rect x="153.271" y="556.604" fill="none" width="7.479" height="6.77"/>
		<path fill="#33B2E9" d="M154.197,556.676c2.665,1.333,4.9,3.391,6.467,5.924c0.364,0.589-0.528,1.085-0.917,0.535
			c-1.622-2.303-3.678-4.09-6.168-5.401C152.879,557.362,153.497,556.323,154.197,556.676"/>
	</g>
</g>
<g>
	<g>
		<rect x="140.941" y="560.721" fill="none" width="67.996" height="14.229"/>
		<path fill="#33B2E9" d="M141.934,571.679c4.224,3.923,12.577,1.612,17.494,1.024c5.134-0.614,10.263-1.229,15.395-1.842
			c9.897-1.184,26.975-0.927,33.376-9.966c0.287-0.401,0.941-0.042,0.678,0.395c-5.731,9.455-22.585,9.265-32.344,10.439
			c-8.522,1.028-17.095,2.433-25.654,3.084c-3.836,0.294-6.839,0.354-9.757-2.322C140.578,571.992,141.393,571.176,141.934,571.679"
			/>
	</g>
</g>
<g>
	<g>
		<rect x="221.928" y="558.393" fill="none" width="64.034" height="21.039"/>
		<path fill="#33B2E9" d="M222.639,577.81c10.549,0.477,20.973-0.38,31.235-2.938c10.423-2.597,25.268-6.766,31.392-16.305
			c0.257-0.401,0.884-0.042,0.642,0.377c-4.955,8.587-16.644,12.417-25.602,15.412c-12.213,4.081-24.831,5.579-37.667,4.933
			C221.695,579.239,221.686,577.769,222.639,577.81"/>
	</g>
</g>
<g>
	<g>
		<rect x="182.955" y="535.861" fill="none" width="41.002" height="11.521"/>
		<path fill="#33B2E9" d="M183.59,535.894c13.112,5.296,26.116,8.734,40.109,10.78c0.398,0.059,0.307,0.739-0.095,0.707
			c-13.933-1.064-27.715-4.732-40.404-10.563C182.688,536.581,183.06,535.679,183.59,535.894"/>
	</g>
</g>
<g>
	<g>
		<rect x="256.812" y="534.334" fill="none" width="40.624" height="10.292"/>
		<path fill="#33B2E9" d="M257.505,534.366c12.99,4.934,25.863,8.241,39.701,9.78c0.299,0.032,0.313,0.494,0,0.479
			c-13.803-0.686-27.444-3.721-40.124-9.254C256.517,535.124,256.921,534.145,257.505,534.366"/>
	</g>
</g>
<g>
	<g>
		<rect x="246.525" y="126.968" fill="none" width="33.271" height="27.478"/>
		<path fill="#ED9926" d="M247.036,143.558c2.326,0.498,4.039,1.458,5.525,3.403c0.893,1.168,1.65,4.562,2.412,4.893
			c2.24,0.973,10.878-5.477,12.654-6.826c5.177-3.927,11.777-9.702,10.318-17.091c-0.192-0.969,1.259-1.392,1.496-0.413
			c3.142,13.064-15.36,23.624-25.517,26.883c-0.575,0.186-1.253-0.317-1.22-0.929c0.249-4.496-2.192-7.423-5.978-9.19
			C246.301,144.087,246.615,143.467,247.036,143.558"/>
	</g>
</g>
<g>
	<g>
		<rect x="224.292" y="124.019" fill="none" width="16.822" height="28.349"/>
		<path fill="#ED9926" d="M227.057,124.336c0.798-0.947,2.207,0.439,1.368,1.37c-2.855,3.175-2.485,9.986-2.043,13.973
			c0.466,4.171,1.896,7.66,4.883,10.522c2.157-3.529,5.219-5.82,9.357-6.819c0.504-0.122,0.7,0.604,0.215,0.771
			c-4.138,1.405-6.871,3.879-8.651,7.81c-0.245,0.539-0.953,0.483-1.329,0.17c-4.096-3.409-5.976-8.042-6.384-13.295
			C224.124,134.325,223.964,128.002,227.057,124.336"/>
	</g>
</g>
<g>
	<g>
		<rect x="256.841" y="179.488" fill="none" width="23.814" height="8.441"/>
		<path fill="#ED9926" d="M257.113,181.401c-0.019-0.497,0.258-0.804,0.613-0.926c0.081-0.515,0.438-0.982,1.113-0.984
			c6.89-0.032,13.934,0.148,20.677,1.69c0.406,0.092,0.56,0.463,0.507,0.805c0.132,0.088,0.237,0.222,0.257,0.44
			c0.019,0.202,0.023,0.401,0.04,0.601c0.34,0.354,0.46,0.912,0.177,1.374c-0.022,0.039-0.053,0.061-0.078,0.097
			c0.042,0.842,0.068,1.684,0.087,2.539c0.009,0.449-0.416,0.934-0.891,0.89c-7.26-0.668-14.456-1.387-21.755-1.48
			c-0.717-0.009-1.119-0.65-0.997-1.311C257.152,183.903,257.235,182.656,257.113,181.401"/>
	</g>
</g>
<path fill="#F09C26" d="M272.131,359.16c2.416-5.926,16.505,3.895,23.874,9.745c-4.781-5.398-10.43-13.864-3.541-15.618
	c3.707-0.945,7.748,3.73,9.71,6.238c0.907,1.157,1.736,2.428,2.456,3.765c-0.603,0.316-1.004,0.919-1.138,1.897
	c-0.184,1.347,0.042,2.786,0.005,4.148c-0.031,1.226-0.095,2.451-0.142,3.675c-4.488,0.321-8.981,0.416-13.39,1.337
	c-2.497-0.555-4.932-1.671-7.664-3.655C279.864,368.918,270.416,363.363,272.131,359.16"/>
<g>
	<g>
		<rect x="294.854" y="368.122" fill="none" width="6.856" height="5.051"/>
		<path fill="#F09C26" d="M300.915,373.171c-0.832-0.459-1.58-1.282-2.313-1.804c-1.097-0.779-2.252-1.424-3.435-2.061
			c-0.718-0.389-0.073-1.501,0.64-1.099c1.203,0.681,2.338,1.498,3.415,2.355c0.853,0.679,2.109,1.493,2.489,2.56
			C301.444,373.139,301.181,373.154,300.915,373.171"/>
	</g>
</g>
<g>
	<g>
		<rect x="292.467" y="357.76" fill="none" width="6.285" height="2.709"/>
		<path fill="#F09C26" d="M292.553,360.063c1.77-1.379,3.795-2.171,6.035-2.303c0.221-0.014,0.214,0.319,0,0.341
			c-2.102,0.207-4.042,0.979-5.687,2.31C292.656,360.608,292.304,360.255,292.553,360.063"/>
	</g>
</g>
<g>
	<g>
		<rect x="295.392" y="362.339" fill="none" width="6.648" height="3.087"/>
		<path fill="#F09C26" d="M295.467,364.978c1.726-1.57,4.065-2.395,6.356-2.638c0.295-0.032,0.288,0.423,0,0.457
			c-2.32,0.286-4.175,1.242-6.044,2.587C295.542,365.557,295.251,365.173,295.467,364.978"/>
	</g>
</g>
<g>
	<g>
		<rect x="300.244" y="363.986" fill="none" width="3.253" height="1.335"/>
		<path fill="#F09C26" d="M300.329,364.993c0.916-0.555,1.943-0.861,2.999-1.007c0.169-0.021,0.246,0.23,0.072,0.264
			c-1.039,0.183-1.962,0.556-2.895,1.049C300.308,365.403,300.134,365.111,300.329,364.993"/>
	</g>
</g>
<g>
	<g>
		<rect x="283.101" y="366.396" fill="none" width="4.466" height="3.726"/>
		<path fill="#F09C26" d="M283.134,369.676c0.715-1.498,2.583-2.631,4.054-3.256c0.288-0.122,0.541,0.292,0.248,0.426
			c-0.799,0.367-1.543,0.817-2.207,1.402c-0.615,0.54-1.052,1.22-1.634,1.783C283.346,370.274,282.995,369.971,283.134,369.676"/>
	</g>
</g>
<g>
	<g>
		<rect x="280.591" y="362.694" fill="none" width="4.013" height="2.273"/>
		<path fill="#F09C26" d="M280.679,364.511c1.07-0.927,2.308-1.541,3.697-1.813c0.228-0.042,0.326,0.299,0.098,0.353
			c-1.303,0.313-2.439,0.926-3.412,1.845C280.807,365.133,280.416,364.735,280.679,364.511"/>
	</g>
</g>
<g>
	<g>
		<rect x="277.498" y="361.405" fill="none" width="2.081" height="2.041"/>
		<path fill="#F09C26" d="M277.58,362.955c0.49-0.577,1.036-1.073,1.649-1.513c0.209-0.151,0.479,0.194,0.277,0.361
			c-0.553,0.445-1.036,0.937-1.466,1.508C277.789,363.649,277.303,363.282,277.58,362.955"/>
	</g>
</g>
<g>
	<g>
		<rect x="291.695" y="370.995" fill="none" width="1.689" height="1.379"/>
		<path fill="#F09C26" d="M291.828,371.865c0.426-0.28,0.852-0.562,1.28-0.842c0.17-0.111,0.379,0.151,0.219,0.285
			c-0.388,0.33-0.775,0.661-1.165,0.992C291.86,372.558,291.493,372.086,291.828,371.865"/>
	</g>
</g>
<path fill="#3AA735" d="M281.519,340.579c0.034-2.596,1.621-4.32,4.781-3.189c4.014,1.431,6.285,5.574,6.476,9.646
	c0.448-0.032,0.93,0.093,1.419,0.484c2.033,1.624,0.073,4.411-0.926,5.885c-0.099,0.144-0.232,0.23-0.374,0.284
	c-0.091,0.124-0.202,0.243-0.356,0.343c-1.276,0.817-2.021,0.83-3.518,0.677c-2.749-0.277-5.35-0.102-8.096-0.316
	c-3.32-0.265-7.684-1.95-9.589-4.888C267.345,343.342,276.251,340.124,281.519,340.579"/>
<path fill="#3AA735" d="M251.583,360.073c1.463-3.864,5.15-5.292,8.858-5.027c-0.082-1.446,0.827-2.833,2.571-3.391
	c2.588-0.828,5.163,0.67,7.022,2.529c1.141-1.215,3.672,0.553,4.097,3.004c0.181,0.414,0.172,0.912-0.205,1.343
	c-2.001,2.285-2.521,6.441-5.496,6.924c1.027,7.161-0.094,18.925-10.06,16.84c-5.261-1.099-7.998-10.697-4.396-14.188
	C251.52,366.353,250.362,363.308,251.583,360.073"/>
<path fill="#3AA735" d="M333.372,360.839c-0.63-7.154-6.237-13.65-4.821-21.24c0.011-0.056-0.005-0.1-0.001-0.153
	c3.41-1.333,7.254,0.26,9.471,3.066c1.244-1.143,2.979-1.441,4.927-0.426c2.867,1.493,3.698,4.825,3.522,7.911
	c0.672-0.109,1.36,0.036,2.021,0.627c1.842,1.635,0.932,4.68-0.113,6.951c0.73,0.375,1.219,1.155,1.382,2.306
	c0.298,2.084-1.229,4.222-2.792,5.834c0.369,0.35,0.625,0.849,0.688,1.513c0.199,2.071-1.819,3.037-3.563,3.701
	c-1.648-0.175-3.278-0.335-4.852-0.34c-2.749-0.006-5.478,0.131-8.201,0.364c-0.933-0.375-1.624-0.97-2.044-1.656
	C332.183,367.789,333.688,364.428,333.372,360.839"/>
<path fill="#92BE1F" d="M331.146,345.966c1.301-2.138,3.663-1.786,5.354-0.443c2.715,2.159,3.347,5.96,2.412,9.151
	c-0.14,0.124-0.273,0.251-0.4,0.384c-0.526,0.545,0.249,1.275,0.813,0.813c1.663-1.354,4.061-2.127,4.438,0.86
	c0.144,1.146,0.002,2.384-0.221,3.5c-0.458,2.292-1.497,4.229-2.829,6.115c-0.068,0.096-0.075,0.194-0.059,0.289
	c-0.033,0.035-0.085,0.071-0.113,0.107c-0.375,0.502,0.245,1.173,0.782,1.02c0.539-0.155,1.116-0.37,1.64-0.562
	c0.363-0.135,0.255-0.124,0.166,0.199c-0.058,0.214-0.096,0.431-0.166,0.642c-0.348,1.034-1.101,1.816-1.862,2.565
	c-0.015,0.013-0.012,0.032-0.022,0.049c1.027,0.063,2.074,0.171,3.127,0.285c1.536-0.414,3.072-1.166,3.817-2.411
	c0.613-1.021,0.362-2.475-0.511-3.08c1.381-1.233,2.553-2.848,2.917-4.644c0.222-1.097-0.236-2.621-1.233-3.086
	c1.015-1.556,1.708-3.298,0.982-5.183c-0.613-1.593-2.129-2.67-3.811-2.446c-0.264-0.596-0.748-1.082-1.425-1.172
	c-0.112-0.015-0.223,0-0.332,0.008c0.478-1.545,0.391-3.483-0.879-4.49c-1.153-0.917-2.706-0.396-3.308,0.788
	c-0.804-0.465-1.899-0.798-2.546-0.369c-0.663-0.637-1.435-1.178-2.356-1.527c-0.526-0.2-1.063-0.304-1.59-0.326
	c-0.757-2.081-3.448-2.815-5.479-1.893c-0.035,0.016-0.061,0.042-0.094,0.059c-0.032,0.472-0.038,0.938-0.023,1.401
	c0.197-0.195,0.446-0.374,0.813-0.513c1.408-0.528,3.167-0.205,4.082,0.968c-1.062,0.118-2.055,0.61-2.817,1.52
	c-0.711,0.852-1.079,1.851-1.221,2.896c0.484,1.635,1.109,3.247,1.736,4.854c0.051-0.114,0.08-0.242,0.055-0.394
	C330.659,349.956,330.034,347.796,331.146,345.966 M339.906,353.941c0.942-2.784,0.431-6.089-1.387-8.372
	c0.635-0.064,1.549,0.62,1.808,0.863c0.271,0.253,0.815,0.179,0.893-0.234c0.352-1.931,2.194-0.979,2.577,0.282
	c0.274,0.904,0.146,1.844-0.027,2.758c-0.207,0.158-0.381,0.362-0.461,0.64c-0.099,0.344,0.381,0.659,0.629,0.365
	c0.436-0.514,1.092-0.571,1.505,0.061c0.306,0.47,0.261,1.109,0.152,1.629c-0.169,0.804-0.397,1.836-1.209,2.214
	c-0.103,0.049-0.086,0.199,0,0.253c1.402,0.877,2.125-1.868,2.188-3.195c3.272,0.337,3.117,3.997,1.933,6.378
	c-0.191,0.006-0.388,0.034-0.604,0.114c-0.445,0.166-0.554,0.905,0,1.018c3.047,0.625,0.184,4.7-1.303,6.463
	c-0.166,0.001-0.333,0.005-0.521,0.054c-0.513,0.142-0.434,0.856,0.03,0.964c0.085,0.106,0.221,0.147,0.359,0.077
	c0.976,0.181,0.874,1.445,0.271,2.108c-0.341,0.374-0.792,0.643-1.232,0.886c-0.689,0.382-1.419,0.679-2.157,0.953
	c0.842-0.88,1.404-2.082,1.409-3.232c0.007-1.337-1.21-1.554-2.366-1.276c2.081-2.826,3.313-6.775,2.475-10.163
	C344.159,352.696,341.833,352.765,339.906,353.941"/>
<path fill="#8C517B" d="M353.767,371.187c-3.269,0.558-6.835,0.036-10.307-0.321c2.416-6.761,7.905-14.225,15.608-15.024
	c4.65-0.481,8.529,2.576,8.32,6.571c-0.169,0.031-0.338,0.095-0.493,0.245c-3.712,3.611-8.034,6.392-12.711,8.544
	C354.056,371.169,353.917,371.16,353.767,371.187"/>
<path fill="#3AA735" d="M359.277,355.277c1.217-0.354,2.468-0.397,3.678,0.021c0.23,0.08,0.441,0.168,0.663,0.272
	c0.114,0.049,0.221,0.111,0.328,0.173c0.471-0.93,0.74-1.877,0.762-2.982c0.021-1.23,1.799-1.205,1.89,0
	c0.082,1.09-0.052,3.04-0.872,4.142c0.162,0.098,0.294,0.238,0.35,0.421c1.441,0.496,2.313,1.628,2.521,3.203
	c0.094,0.705-0.767,0.949-1.268,0.727c-1.063-0.474-1.852-1.247-2.344-2.227c-0.337,0.462-0.649,0.977-1.062,1.291
	c-0.652,0.496-1.314,0.739-2.116,0.832c-0.429,0.049-0.693-0.514-0.484-0.847c0.478-0.769,0.971-1.518,1.487-2.254
	c-1.328-0.098-2.582-0.551-3.72-1.343C358.549,356.33,358.599,355.475,359.277,355.277"/>
<path fill="#EC632B" d="M223.39,41.474c0.486-0.341,1.141-0.063,1.438,0.378c9.372,13.837,30.736,11.397,45.075,9.668
	c0.335-0.134,0.67-0.246,1.005-0.383c0.938-0.388,1.786,1.097,1.003,1.723c-11.835,9.461-29.755,10.001-44.169,7.772
	c-4.417-0.686-11.953-2.354-13.096-7.602C213.534,47.937,219.839,43.947,223.39,41.474"/>
<path fill="#F49800" d="M224.57,25.847c4.054-8.13,15.882-11.16,26.339-10.374c13.849,0.083,28.005,5.096,39.334,12.53
	c12.708,8.338,19.172,24.626,10.237,38.056c-0.339,0.509-0.911,0.444-1.227,0.118c-0.083,0.035-0.181,0.059-0.292,0.062
	c-10.244,0.282-20.347-2.562-30.26-4.834c-10.046-2.304-20.167-4.695-29.887-8.167c-5.233-1.869-13.856-4.747-16.898-9.852
	C219.209,38.844,222.41,30.176,224.57,25.847"/>
<path fill="#EC632B" d="M206.614,50.2c-0.956,5.118,3.761,8.652,7.795,10.581c7.682,3.674,16.542,3.968,24.897,4.124
	c8.649,0.161,17.23,0.072,25.176-3.476c0.638-0.187,1.253-0.412,1.797-0.702c0.025,0.001,0.055,0.003,0.08,0.003
	c0.396,0.017,0.466-0.586,0.094-0.68l-0.04-0.01c-0.068-0.07-0.156-0.123-0.274-0.111c-0.039,0.005-0.077,0.012-0.116,0.015
	c-0.03-0.006-0.058-0.013-0.088-0.021c-0.137-0.17-0.353-0.275-0.602-0.204c-0.039,0.01-0.077,0.019-0.115,0.028
	c-1.22-0.297-2.46-0.583-3.708-0.866c-0.204-0.144-0.442-0.241-0.74-0.212c-0.049,0.005-0.095,0.009-0.143,0.014
	c-13.723-3.073-28.703-5.757-38.839-15.808c-0.066-0.067-0.137-0.105-0.208-0.145c-0.162-0.434-0.323-0.866-0.485-1.301
	c-0.176-0.475-0.769-0.705-1.163-0.306c-0.082,0.083-0.153,0.161-0.231,0.243c-0.031,0.006-0.055-0.007-0.087,0.001
	C215.032,42.505,207.646,44.664,206.614,50.2 M220.99,44.652c7.595,8.134,20.386,12.613,32.413,14.68
	c-1.965,0.161-3.931,0.294-5.898,0.426c-3.336,0.081-6.675,0.051-10.042-0.107c-4.321-0.202-11.497,0.236-16.884-1.335
	c-0.052-0.199-0.14-0.387-0.305-0.528c-0.766-0.663-1.479-1.173-2.215-1.614c-0.368-1.687-1.753-3.79-3.4-3.874
	c0.533-0.606,0.829-1.22,0.796-1.954c0.233,0.035,0.49,0,0.748-0.135c0.723-0.383,1.514-1.009,2.116-1.736
	c0.87-0.68,1.688-1.474,2.52-2.458C221.163,45.637,221.182,45.082,220.99,44.652"/>
<path fill="#EC632B" d="M230.791,38.008c0.438-2.472,1.094-9.2,4.945-8.395c2.348,0.491,5.307,3.211,7.454,4.366
	c3.903,2.101,7.942,3.646,12.376,4.134c0.849,0.095,1.793,0.879,1.415,1.86c-0.735,1.915-1.405,3.834-2,5.799
	c-0.179,0.588-0.737,1.056-1.37,1.042c-4.473-0.099-8.866-0.961-12.794-2.782c-3.264-1.247-6.411-2.933-9.424-4.545
	C230.847,39.194,230.691,38.569,230.791,38.008"/>
</svg>
