<?xml version="1.0" encoding="utf-8"?>
<!-- Generator: Adobe Illustrator 13.0.0, SVG Export Plug-In . SVG Version: 6.00 Build 14948)  -->
<!DOCTYPE svg PUBLIC "-//W3C//DTD SVG 1.1//EN" "http://www.w3.org/Graphics/SVG/1.1/DTD/svg11.dtd">
<svg version="1.1" id="Layer_1" xmlns="http://www.w3.org/2000/svg" xmlns:xlink="http://www.w3.org/1999/xlink" x="0px" y="0px"
	 width="200px" height="200px" viewBox="0 0 200 200" enable-background="new 0 0 200 200" xml:space="preserve">
<title>Home, Website</title>
<linearGradient id="SVGID_1_" gradientUnits="userSpaceOnUse" x1="-92.6875" y1="345.2188" x2="25.3129" y2="515.2194" gradientTransform="matrix(1 0 0 1 138 -343)">
	<stop  offset="0" style="stop-color:#68FE9A"/>
	<stop  offset="1" style="stop-color:#43DCA4"/>
</linearGradient>
<path fill="url(#SVGID_1_)" d="M76.887,96.107l38.433-38.432c1.875-1.877,4.916-1.877,6.793,0c1.877,1.876,1.877,4.917,0,6.792
	L87.078,99.495l35.035,35.026c1.877,1.875,1.877,4.926,0,6.793c-0.946,0.938-2.178,1.404-3.405,1.404l0.01,0.014
	c-1.229,0-2.459-0.461-3.397-1.4l-38.429-38.43C75.01,101.023,75.01,97.984,76.887,96.107"/>
<linearGradient id="SVGID_2_" gradientUnits="userSpaceOnUse" x1="-101.6885" y1="351.4658" x2="16.3115" y2="521.4658" gradientTransform="matrix(1 0 0 1 138 -343)">
	<stop  offset="0" style="stop-color:#68FE9A"/>
	<stop  offset="1" style="stop-color:#43DCA4"/>
</linearGradient>
<path fill="url(#SVGID_2_)" d="M99.5,4.5c-52.467,0-95,42.533-95,95s42.533,95,95,95s95-42.533,95-95S151.967,4.5,99.5,4.5z
	 M99.5,184.5c-46.944,0-85-38.057-85-85c0-46.944,38.056-85,85-85c46.943,0,85,38.056,85,85C184.5,146.443,146.443,184.5,99.5,184.5
	z"/>
</svg>
