<?xml version="1.0" encoding="utf-8"?>
<!-- Generator: Adobe Illustrator 13.0.0, SVG Export Plug-In . SVG Version: 6.00 Build 14948)  -->
<!DOCTYPE svg PUBLIC "-//W3C//DTD SVG 1.1//EN" "http://www.w3.org/Graphics/SVG/1.1/DTD/svg11.dtd">
<svg version="1.1" id="Layer_1" xmlns="http://www.w3.org/2000/svg" xmlns:xlink="http://www.w3.org/1999/xlink" x="0px" y="0px"
	 width="200px" height="200px" viewBox="0 0 200 200" enable-background="new 0 0 200 200" xml:space="preserve">
<title>Home, Website</title>
<linearGradient id="SVGID_1_" gradientUnits="userSpaceOnUse" x1="66.6987" y1="15.5278" x2="250.7004" y2="-148.4737" gradientTransform="matrix(1 0 0 -1 -56 53)">
	<stop  offset="0" style="stop-color:#68FE9A"/>
	<stop  offset="1" style="stop-color:#43DCA4"/>
</linearGradient>
<path fill="url(#SVGID_1_)" d="M122.113,96.107c1.875,1.877,1.875,4.917-0.002,6.795l-38.431,38.43
	c-0.938,0.939-2.167,1.4-3.397,1.4l0.01-0.014c-1.229,0-2.459-0.47-3.406-1.404c-1.876-1.867-1.876-4.918,0-6.793l35.035-35.026
	L76.887,64.468c-1.876-1.876-1.876-4.917,0-6.792c1.877-1.877,4.918-1.877,6.794,0L122.113,96.107"/>
<linearGradient id="SVGID_2_" gradientUnits="userSpaceOnUse" x1="75.2036" y1="25.0684" x2="259.2036" y2="-138.9316" gradientTransform="matrix(1 0 0 -1 -56 53)">
	<stop  offset="0" style="stop-color:#68FE9A"/>
	<stop  offset="1" style="stop-color:#43DCA4"/>
</linearGradient>
<path fill="url(#SVGID_2_)" d="M99.5,4.5c-52.467,0-95,42.533-95,95s42.533,95,95,95s95-42.533,95-95S151.967,4.5,99.5,4.5z
	 M99.5,184.5c-46.944,0-85-38.057-85-85c0-46.944,38.056-85,85-85c46.943,0,85,38.056,85,85C184.5,146.443,146.443,184.5,99.5,184.5
	z"/>
</svg>
