<?xml version="1.0" encoding="utf-8"?>
<!-- Generator: Adobe Illustrator 13.0.0, SVG Export Plug-In . SVG Version: 6.00 Build 14948)  -->
<!DOCTYPE svg PUBLIC "-//W3C//DTD SVG 1.1//EN" "http://www.w3.org/Graphics/SVG/1.1/DTD/svg11.dtd">
<svg version="1.1" id="Layer_1" xmlns="http://www.w3.org/2000/svg" xmlns:xlink="http://www.w3.org/1999/xlink" x="0px" y="0px"
	 width="200px" height="200px" viewBox="0 0 200 200" enable-background="new 0 0 200 200" xml:space="preserve">
<title>Asset 60</title>
<linearGradient id="SVGID_1_" gradientUnits="userSpaceOnUse" x1="-98.3369" y1="356.8008" x2="19.6631" y2="525.8008" gradientTransform="matrix(1 0 0 1 138 -343)">
	<stop  offset="0" style="stop-color:#68FE9A"/>
	<stop  offset="1" style="stop-color:#43DCA4"/>
</linearGradient>
<path fill="url(#SVGID_1_)" d="M99.5,1C45.1,1,1,45.1,1,99.5C1,153.898,45.1,198,99.5,198c54.398,0,98.5-44.102,98.5-98.5
	C198,45.1,153.898,1,99.5,1z M99.5,184C52.832,184,15,146.168,15,99.5S52.832,15,99.5,15S184,52.832,184,99.5S146.168,184,99.5,184z
	"/>
<linearGradient id="SVGID_2_" gradientUnits="userSpaceOnUse" x1="-134.3262" y1="381.9307" x2="-16.3284" y2="550.9275" gradientTransform="matrix(1 0 0 1 138 -343)">
	<stop  offset="0" style="stop-color:#68FE9A"/>
	<stop  offset="1" style="stop-color:#43DCA4"/>
</linearGradient>
<rect x="31.958" y="85.443" fill="url(#SVGID_2_)" width="27.782" height="27.782"/>
<linearGradient id="SVGID_3_" gradientUnits="userSpaceOnUse" x1="-110.7407" y1="365.4629" x2="7.2585" y2="534.4618" gradientTransform="matrix(1 0 0 1 138 -343)">
	<stop  offset="0" style="stop-color:#68FE9A"/>
	<stop  offset="1" style="stop-color:#43DCA4"/>
</linearGradient>
<rect x="67.042" y="85.443" fill="url(#SVGID_3_)" width="27.782" height="27.782"/>
<linearGradient id="SVGID_4_" gradientUnits="userSpaceOnUse" x1="-85.2729" y1="347.6807" x2="32.7256" y2="516.6785" gradientTransform="matrix(1 0 0 1 138 -343)">
	<stop  offset="0" style="stop-color:#68FE9A"/>
	<stop  offset="1" style="stop-color:#43DCA4"/>
</linearGradient>
<rect x="104.925" y="85.443" fill="url(#SVGID_4_)" width="27.783" height="27.782"/>
<linearGradient id="SVGID_5_" gradientUnits="userSpaceOnUse" x1="-60.8765" y1="330.6426" x2="57.1258" y2="499.6457" gradientTransform="matrix(1 0 0 1 138 -343)">
	<stop  offset="0" style="stop-color:#68FE9A"/>
	<stop  offset="1" style="stop-color:#43DCA4"/>
</linearGradient>
<rect x="141.219" y="85.443" fill="url(#SVGID_5_)" width="27.781" height="27.782"/>
</svg>
