<?xml version="1.0" encoding="utf-8"?>
<!-- Generator: Adobe Illustrator 13.0.0, SVG Export Plug-In . SVG Version: 6.00 Build 14948)  -->
<!DOCTYPE svg PUBLIC "-//W3C//DTD SVG 1.1//EN" "http://www.w3.org/Graphics/SVG/1.1/DTD/svg11.dtd">
<svg version="1.1" id="Layer_1" xmlns="http://www.w3.org/2000/svg" xmlns:xlink="http://www.w3.org/1999/xlink" x="0px" y="0px"
	 width="200px" height="200px" viewBox="0 0 200 200" enable-background="new 0 0 200 200" xml:space="preserve">
<linearGradient id="SVGID_1_" gradientUnits="userSpaceOnUse" x1="-109.9976" y1="353.29" x2="26.0017" y2="522.2891" gradientTransform="matrix(1 0 0 1 138 -343)">
	<stop  offset="0" style="stop-color:#68FE9A"/>
	<stop  offset="1" style="stop-color:#43DCA4"/>
</linearGradient>
<path fill="url(#SVGID_1_)" d="M135.223,13H66.778C37.077,13,13,37.077,13,66.778v68.445C13,164.919,37.077,189,66.778,189h68.445
	C164.919,189,189,164.919,189,135.223V66.778C189,37.077,164.919,13,135.223,13z M174.333,135.223
	c-0.019,21.59-17.521,39.092-39.11,39.11H66.778c-21.589-0.019-39.087-17.521-39.111-39.11V66.778
	c0.023-21.59,17.521-39.088,39.111-39.111h68.445c21.59,0.024,39.092,17.522,39.11,39.111V135.223L174.333,135.223z"/>
<linearGradient id="SVGID_2_" gradientUnits="userSpaceOnUse" x1="-109.9985" y1="353.2881" x2="26.003" y2="522.29" gradientTransform="matrix(1 0 0 1 138 -343)">
	<stop  offset="0" style="stop-color:#68FE9A"/>
	<stop  offset="1" style="stop-color:#43DCA4"/>
</linearGradient>
<path fill="url(#SVGID_2_)" d="M101,57c-24.301,0-44,19.699-44,44c0,24.302,19.699,44,44,44c24.302,0,44-19.698,44-44l0,0
	C145,76.699,125.302,57,101,57z M101,130.333c-16.199,0-29.333-13.14-29.333-29.333c0-16.199,13.134-29.333,29.333-29.333
	c16.193,0,29.333,13.134,29.333,29.333C130.314,117.193,117.193,130.314,101,130.333z"/>
<linearGradient id="SVGID_3_" gradientUnits="userSpaceOnUse" x1="-59.6611" y1="312.7744" x2="76.3482" y2="481.7861" gradientTransform="matrix(1 0 0 1 138 -343)">
	<stop  offset="0" style="stop-color:#68FE9A"/>
	<stop  offset="1" style="stop-color:#43DCA4"/>
</linearGradient>
<path fill="url(#SVGID_3_)" d="M146.958,45.265c5.396,0,9.776,4.378,9.776,9.778s-4.383,9.778-9.776,9.778
	c-5.396,0-9.778-4.378-9.778-9.778S141.563,45.265,146.958,45.265z"/>
</svg>
