<?xml version="1.0" encoding="utf-8"?>
<!-- Generator: Adobe Illustrator 13.0.0, SVG Export Plug-In . SVG Version: 6.00 Build 14948)  -->
<!DOCTYPE svg PUBLIC "-//W3C//DTD SVG 1.1//EN" "http://www.w3.org/Graphics/SVG/1.1/DTD/svg11.dtd">
<svg version="1.1" id="Layer_1" xmlns="http://www.w3.org/2000/svg" xmlns:xlink="http://www.w3.org/1999/xlink" x="0px" y="0px"
	 width="200px" height="200px" viewBox="0 0 200 200" enable-background="new 0 0 200 200" xml:space="preserve">
<title>Asset 38</title>
<linearGradient id="SVGID_1_" gradientUnits="userSpaceOnUse" x1="-134.2979" y1="357.2354" x2="38.702" y2="534.2354" gradientTransform="matrix(1 0 0 1 138 -343)">
	<stop  offset="0" style="stop-color:#68FE9A"/>
	<stop  offset="1" style="stop-color:#43DCA4"/>
</linearGradient>
<rect x="40.009" y="48.06" fill="url(#SVGID_1_)" width="37.491" height="45"/>
<linearGradient id="SVGID_2_" gradientUnits="userSpaceOnUse" x1="-92.2837" y1="316.1689" x2="80.7163" y2="493.169" gradientTransform="matrix(1 0 0 1 138 -343)">
	<stop  offset="0" style="stop-color:#68FE9A"/>
	<stop  offset="1" style="stop-color:#43DCA4"/>
</linearGradient>
<rect x="92.49" y="48.06" fill="url(#SVGID_2_)" width="67.5" height="14.99"/>
<linearGradient id="SVGID_3_" gradientUnits="userSpaceOnUse" x1="-107.27" y1="330.8174" x2="65.7301" y2="507.8174" gradientTransform="matrix(1 0 0 1 138 -343)">
	<stop  offset="0" style="stop-color:#68FE9A"/>
	<stop  offset="1" style="stop-color:#43DCA4"/>
</linearGradient>
<rect x="92.49" y="78.041" fill="url(#SVGID_3_)" width="67.5" height="14.99"/>
<linearGradient id="SVGID_4_" gradientUnits="userSpaceOnUse" x1="-135.6836" y1="358.5898" x2="37.3157" y2="535.5892" gradientTransform="matrix(1 0 0 1 138 -343)">
	<stop  offset="0" style="stop-color:#68FE9A"/>
	<stop  offset="1" style="stop-color:#43DCA4"/>
</linearGradient>
<rect x="40.009" y="108.05" fill="url(#SVGID_4_)" width="120.009" height="14.991"/>
<linearGradient id="SVGID_5_" gradientUnits="userSpaceOnUse" x1="-150.0806" y1="372.6602" x2="22.9194" y2="549.6602" gradientTransform="matrix(1 0 0 1 138 -343)">
	<stop  offset="0" style="stop-color:#68FE9A"/>
	<stop  offset="1" style="stop-color:#43DCA4"/>
</linearGradient>
<rect x="40.009" y="136.85" fill="url(#SVGID_5_)" width="120.009" height="14.991"/>
<linearGradient id="SVGID_6_" gradientUnits="userSpaceOnUse" x1="-127.6704" y1="350.7559" x2="45.3296" y2="527.7559" gradientTransform="matrix(1 0 0 1 138 -343)">
	<stop  offset="0" style="stop-color:#68FE9A"/>
	<stop  offset="1" style="stop-color:#43DCA4"/>
</linearGradient>
<path fill="url(#SVGID_6_)" d="M167.5,11.75h-135c-12.426,0-22.5,10.074-22.5,22.5V92.3V122.9v41.85c0,12.426,10.074,22.5,22.5,22.5
	h135c12.426,0,22.5-10.074,22.5-22.5V122.9V92.3V34.25C190,21.824,179.926,11.75,167.5,11.75z M175.01,122.9v41.85
	c-0.017,4.143-3.367,7.493-7.51,7.51h-135c-4.141-0.017-7.495-3.367-7.509-7.51V122.9V92.3V34.25
	c0.015-4.141,3.368-7.495,7.509-7.509h135c4.143,0.015,7.493,3.368,7.51,7.509V92.3V122.9z"/>
</svg>
