<?xml version="1.0" encoding="utf-8"?>
<!-- Generator: Adobe Illustrator 13.0.0, SVG Export Plug-In . SVG Version: 6.00 Build 14948)  -->
<!DOCTYPE svg PUBLIC "-//W3C//DTD SVG 1.1//EN" "http://www.w3.org/Graphics/SVG/1.1/DTD/svg11.dtd">
<svg version="1.1" id="Layer_1" xmlns="http://www.w3.org/2000/svg" xmlns:xlink="http://www.w3.org/1999/xlink" x="0px" y="0px"
	 width="100px" height="100px" viewBox="0 0 100 100" enable-background="new 0 0 100 100" xml:space="preserve">
<linearGradient id="SVGID_1_" gradientUnits="userSpaceOnUse" x1="-130.1704" y1="446.6748" x2="-29.1714" y2="554.6737" gradientTransform="matrix(1 0 0 1 138 -443)">
	<stop  offset="0" style="stop-color:#68FE9A"/>
	<stop  offset="1" style="stop-color:#43DCA4"/>
</linearGradient>
<path fill="url(#SVGID_1_)" d="M95.908,95.436l-29.19-31.854c6.576-6.879,10.193-15.878,10.193-25.434
	c0-9.839-3.833-19.092-10.794-26.048c-6.96-6.956-16.209-10.793-26.05-10.793c-9.839,0-19.092,3.833-26.048,10.793
	C7.063,19.061,3.225,28.309,3.225,38.148S7.058,57.24,14.019,64.195C20.98,71.152,30.228,74.99,40.067,74.99
	c8.479,0,16.514-2.846,23.029-8.079l29.195,31.844c0.484,0.532,1.143,0.796,1.813,0.796c0.599,0,1.189-0.211,1.66-0.643
	c0.998-0.922,1.064-2.471,0.152-3.469L95.908,95.436z M8.132,38.148c0-17.605,14.324-31.929,31.93-31.929
	c17.603,0,31.926,14.324,31.926,31.929c0,17.606-14.323,31.93-31.926,31.93C22.457,70.078,8.132,55.754,8.132,38.148"/>
</svg>
