<?xml version="1.0" encoding="utf-8"?>
<!-- Generator: Adobe Illustrator 13.0.0, SVG Export Plug-In . SVG Version: 6.00 Build 14948)  -->
<!DOCTYPE svg PUBLIC "-//W3C//DTD SVG 1.1//EN" "http://www.w3.org/Graphics/SVG/1.1/DTD/svg11.dtd">
<svg version="1.1" id="Layer_1" xmlns="http://www.w3.org/2000/svg" xmlns:xlink="http://www.w3.org/1999/xlink" x="0px" y="0px"
	 width="200px" height="200px" viewBox="0 0 200 200" enable-background="new 0 0 200 200" xml:space="preserve">
<title>Asset 38</title>
<linearGradient id="SVGID_1_" gradientUnits="userSpaceOnUse" x1="-156.0913" y1="372.6006" x2="19.9088" y2="557.6007" gradientTransform="matrix(1 0 0 1 138 -343)">
	<stop  offset="0" style="stop-color:#68FE9A"/>
	<stop  offset="1" style="stop-color:#43DCA4"/>
</linearGradient>
<rect x="67.503" y="128.844" fill="url(#SVGID_1_)" width="33.487" height="16.656"/>
<linearGradient id="SVGID_2_" gradientUnits="userSpaceOnUse" x1="-173.8579" y1="389.5039" x2="2.1419" y2="574.5037" gradientTransform="matrix(1 0 0 1 138 -343)">
	<stop  offset="0" style="stop-color:#68FE9A"/>
	<stop  offset="1" style="stop-color:#43DCA4"/>
</linearGradient>
<rect x="33.656" y="128.844" fill="url(#SVGID_2_)" width="33.487" height="16.656"/>
<linearGradient id="SVGID_3_" gradientUnits="userSpaceOnUse" x1="-9.2163" y1="453.9941" x2="37.7837" y2="426.9941" gradientTransform="matrix(1 0 0 1 138 -343)">
	<stop  offset="0" style="stop-color:#68FE9A"/>
	<stop  offset="1" style="stop-color:#43DCA4"/>
</linearGradient>
<rect x="66.472" y="128.844" fill="url(#SVGID_3_)" width="33.487" height="16.656"/>
<linearGradient id="SVGID_4_" gradientUnits="userSpaceOnUse" x1="-173.8579" y1="389.5039" x2="2.1419" y2="574.5037" gradientTransform="matrix(1 0 0 1 138 -343)">
	<stop  offset="0" style="stop-color:#68FE9A"/>
	<stop  offset="1" style="stop-color:#43DCA4"/>
</linearGradient>
<rect x="33.656" y="128.844" fill="url(#SVGID_4_)" width="33.487" height="16.656"/>
<linearGradient id="SVGID_5_" gradientUnits="userSpaceOnUse" x1="-121.3154" y1="339.5186" x2="54.6844" y2="524.5184" gradientTransform="matrix(1 0 0 1 138 -343)">
	<stop  offset="0" style="stop-color:#68FE9A"/>
	<stop  offset="1" style="stop-color:#43DCA4"/>
</linearGradient>
<rect x="134" y="128.844" fill="url(#SVGID_5_)" width="32.99" height="16.656"/>
<linearGradient id="SVGID_6_" gradientUnits="userSpaceOnUse" x1="-138.8198" y1="356.168" x2="37.1819" y2="541.1697" gradientTransform="matrix(1 0 0 1 138 -343)">
	<stop  offset="0" style="stop-color:#68FE9A"/>
	<stop  offset="1" style="stop-color:#43DCA4"/>
</linearGradient>
<rect x="100.656" y="128.844" fill="url(#SVGID_6_)" width="32.99" height="16.656"/>
<linearGradient id="SVGID_7_" gradientUnits="userSpaceOnUse" x1="7.2266" y1="482.6143" x2="54.2253" y2="455.615" gradientTransform="matrix(1 0 0 1 138 -343)">
	<stop  offset="0" style="stop-color:#68FE9A"/>
	<stop  offset="1" style="stop-color:#43DCA4"/>
</linearGradient>
<rect x="132.984" y="128.844" fill="url(#SVGID_7_)" width="32.99" height="16.656"/>
<linearGradient id="SVGID_8_" gradientUnits="userSpaceOnUse" x1="-138.8198" y1="356.168" x2="37.1819" y2="541.1697" gradientTransform="matrix(1 0 0 1 138 -343)">
	<stop  offset="0" style="stop-color:#68FE9A"/>
	<stop  offset="1" style="stop-color:#43DCA4"/>
</linearGradient>
<rect x="100.656" y="128.844" fill="url(#SVGID_8_)" width="32.99" height="16.656"/>
<linearGradient id="SVGID_9_" gradientUnits="userSpaceOnUse" x1="-138.6123" y1="355.9736" x2="37.3877" y2="540.9736" gradientTransform="matrix(1 0 0 1 138 -343)">
	<stop  offset="0" style="stop-color:#68FE9A"/>
	<stop  offset="1" style="stop-color:#43DCA4"/>
</linearGradient>
<rect x="67.503" y="93.844" fill="url(#SVGID_9_)" width="33.487" height="16.656"/>
<linearGradient id="SVGID_10_" gradientUnits="userSpaceOnUse" x1="-156.3789" y1="372.876" x2="19.6211" y2="557.876" gradientTransform="matrix(1 0 0 1 138 -343)">
	<stop  offset="0" style="stop-color:#68FE9A"/>
	<stop  offset="1" style="stop-color:#43DCA4"/>
</linearGradient>
<rect x="33.656" y="93.844" fill="url(#SVGID_10_)" width="33.487" height="16.656"/>
<linearGradient id="SVGID_11_" gradientUnits="userSpaceOnUse" x1="-24.333" y1="427.6797" x2="22.6658" y2="400.6804" gradientTransform="matrix(1 0 0 1 138 -343)">
	<stop  offset="0" style="stop-color:#68FE9A"/>
	<stop  offset="1" style="stop-color:#43DCA4"/>
</linearGradient>
<rect x="66.472" y="93.844" fill="url(#SVGID_11_)" width="33.487" height="16.656"/>
<linearGradient id="SVGID_12_" gradientUnits="userSpaceOnUse" x1="-156.3789" y1="372.876" x2="19.6211" y2="557.876" gradientTransform="matrix(1 0 0 1 138 -343)">
	<stop  offset="0" style="stop-color:#68FE9A"/>
	<stop  offset="1" style="stop-color:#43DCA4"/>
</linearGradient>
<rect x="33.656" y="93.844" fill="url(#SVGID_12_)" width="33.487" height="16.656"/>
<linearGradient id="SVGID_13_" gradientUnits="userSpaceOnUse" x1="-103.8374" y1="322.8906" x2="72.1624" y2="507.8905" gradientTransform="matrix(1 0 0 1 138 -343)">
	<stop  offset="0" style="stop-color:#68FE9A"/>
	<stop  offset="1" style="stop-color:#43DCA4"/>
</linearGradient>
<rect x="134" y="93.844" fill="url(#SVGID_13_)" width="32.99" height="16.656"/>
<linearGradient id="SVGID_14_" gradientUnits="userSpaceOnUse" x1="-121.3413" y1="339.54" x2="54.6601" y2="524.5417" gradientTransform="matrix(1 0 0 1 138 -343)">
	<stop  offset="0" style="stop-color:#68FE9A"/>
	<stop  offset="1" style="stop-color:#43DCA4"/>
</linearGradient>
<rect x="100.656" y="93.844" fill="url(#SVGID_14_)" width="32.99" height="16.656"/>
<linearGradient id="SVGID_15_" gradientUnits="userSpaceOnUse" x1="-7.8916" y1="456.3008" x2="39.1097" y2="429.3001" gradientTransform="matrix(1 0 0 1 138 -343)">
	<stop  offset="0" style="stop-color:#68FE9A"/>
	<stop  offset="1" style="stop-color:#43DCA4"/>
</linearGradient>
<rect x="132.984" y="93.844" fill="url(#SVGID_15_)" width="32.99" height="16.656"/>
<linearGradient id="SVGID_16_" gradientUnits="userSpaceOnUse" x1="-121.3413" y1="339.54" x2="54.6601" y2="524.5417" gradientTransform="matrix(1 0 0 1 138 -343)">
	<stop  offset="0" style="stop-color:#68FE9A"/>
	<stop  offset="1" style="stop-color:#43DCA4"/>
</linearGradient>
<rect x="100.656" y="93.844" fill="url(#SVGID_16_)" width="32.99" height="16.656"/>
<linearGradient id="SVGID_17_" gradientUnits="userSpaceOnUse" x1="-112.4346" y1="331.0703" x2="63.5649" y2="516.0697" gradientTransform="matrix(1 0 0 1 138 -343)">
	<stop  offset="0" style="stop-color:#68FE9A"/>
	<stop  offset="1" style="stop-color:#43DCA4"/>
</linearGradient>
<rect x="33.344" y="58" fill="url(#SVGID_17_)" width="133.343" height="16.656"/>
<linearGradient id="SVGID_18_" gradientUnits="userSpaceOnUse" x1="-129.0093" y1="346.8369" x2="46.9906" y2="531.8368" gradientTransform="matrix(1 0 0 1 138 -343)">
	<stop  offset="0" style="stop-color:#68FE9A"/>
	<stop  offset="1" style="stop-color:#43DCA4"/>
</linearGradient>
<path fill="url(#SVGID_18_)" d="M175,2H25C11.193,2,0,13.193,0,27v64.5v34V172c0,13.807,11.193,25,25,25h150
	c13.807,0,25-11.193,25-25v-46.5v-34V27C200,13.193,188.807,2,175,2z M183.344,125.5V172c-0.018,4.602-3.742,8.326-8.344,8.344H25
	c-4.601-0.018-8.327-3.742-8.344-8.344v-46.5v-34V27c0.017-4.601,3.743-8.327,8.344-8.344h150c4.602,0.017,8.326,3.743,8.344,8.344
	v64.5V125.5z"/>
</svg>
