<?xml version="1.0" encoding="utf-8"?>
<!-- Generator: Adobe Illustrator 13.0.0, SVG Export Plug-In . SVG Version: 6.00 Build 14948)  -->
<!DOCTYPE svg PUBLIC "-//W3C//DTD SVG 1.1//EN" "http://www.w3.org/Graphics/SVG/1.1/DTD/svg11.dtd">
<svg version="1.1" id="Layer_1" xmlns="http://www.w3.org/2000/svg" xmlns:xlink="http://www.w3.org/1999/xlink" x="0px" y="0px"
	 width="200px" height="200px" viewBox="0 0 200 200" enable-background="new 0 0 200 200" xml:space="preserve">
<title>Asset 25</title>
<g id="Layer_2">
	<g id="Layer_1-2">
		
			<linearGradient id="SVGID_1_" gradientUnits="userSpaceOnUse" x1="-97.1616" y1="352.2803" x2="33.8381" y2="523.28" gradientTransform="matrix(1 0 0 1 138 -343)">
			<stop  offset="0" style="stop-color:#68FE9A"/>
			<stop  offset="1" style="stop-color:#43DCA4"/>
		</linearGradient>
		<path fill="url(#SVGID_1_)" d="M191.656,24.984H150v-8.313c0.018-4.591-3.689-8.327-8.281-8.344c-0.021,0-0.041,0-0.063,0H58.344
			c-4.591-0.017-8.327,3.69-8.344,8.281c0,0.021,0,0.042,0,0.063v8.313H8.344C3.736,24.984,0,28.72,0,33.328
			c0,4.608,3.736,8.344,8.344,8.344H25v125c0,13.807,11.193,25,25,25h100c13.807,0,25-11.193,25-25v-125h16.656
			c4.607,0,8.344-3.736,8.344-8.344C200,28.72,196.264,24.984,191.656,24.984L191.656,24.984z M158.344,166.672
			c-0.018,4.596-3.748,8.313-8.344,8.313H50c-4.596,0-8.327-3.717-8.344-8.313v-125h116.688V166.672z"/>
		
			<linearGradient id="SVGID_2_" gradientUnits="userSpaceOnUse" x1="-123.4419" y1="372.415" x2="7.559" y2="543.4163" gradientTransform="matrix(1 0 0 1 138 -343)">
			<stop  offset="0" style="stop-color:#68FE9A"/>
			<stop  offset="1" style="stop-color:#43DCA4"/>
		</linearGradient>
		<path fill="url(#SVGID_2_)" d="M75,149.984c4.596,0,8.327-3.717,8.344-8.313V74.984c0-4.608-3.736-8.344-8.344-8.344
			s-8.344,3.736-8.344,8.344v66.688C66.673,146.268,70.404,149.984,75,149.984z"/>
		
			<linearGradient id="SVGID_3_" gradientUnits="userSpaceOnUse" x1="-91.9326" y1="348.2783" x2="39.0674" y2="519.2783" gradientTransform="matrix(1 0 0 1 138 -343)">
			<stop  offset="0" style="stop-color:#68FE9A"/>
			<stop  offset="1" style="stop-color:#43DCA4"/>
		</linearGradient>
		<path fill="url(#SVGID_3_)" d="M125,149.984c4.596,0,8.326-3.717,8.344-8.313V74.984c0-4.608-3.736-8.344-8.344-8.344
			s-8.344,3.736-8.344,8.344v66.688C116.674,146.268,120.404,149.984,125,149.984z"/>
	</g>
</g>
</svg>
