<?xml version="1.0" encoding="utf-8"?>
<!-- Generator: Adobe Illustrator 13.0.0, SVG Export Plug-In . SVG Version: 6.00 Build 14948)  -->
<!DOCTYPE svg PUBLIC "-//W3C//DTD SVG 1.1//EN" "http://www.w3.org/Graphics/SVG/1.1/DTD/svg11.dtd">
<svg version="1.1" id="Layer_1" xmlns="http://www.w3.org/2000/svg" xmlns:xlink="http://www.w3.org/1999/xlink" x="0px" y="0px"
	 width="200px" height="200px" viewBox="0 0 200 200" enable-background="new 0 0 200 200" xml:space="preserve">
<title>Asset 59</title>
<g id="Layer_2">
	<g id="Layer_1-2">
		
			<linearGradient id="SVGID_1_" gradientUnits="userSpaceOnUse" x1="-92.2417" y1="343.9971" x2="34.7616" y2="525.0016" gradientTransform="matrix(1 0 0 1 138 -343)">
			<stop  offset="0" style="stop-color:#68FE9A"/>
			<stop  offset="1" style="stop-color:#43DCA4"/>
		</linearGradient>
		<path fill="url(#SVGID_1_)" d="M137.516,175h16.656v16.656c-0.281,4.6,3.219,8.557,7.818,8.838
			c4.599,0.281,8.557-3.219,8.838-7.817c0.021-0.34,0.021-0.681,0-1.021V175h16.688c4.603-0.281,8.103-4.238,7.818-8.838
			c-0.258-4.207-3.611-7.561-7.818-7.818h-16.688v-16.688c-0.281-4.6-4.238-8.1-8.838-7.818c-4.207,0.258-7.561,3.612-7.818,7.818
			v16.688h-16.656c-4.6-0.281-8.557,3.219-8.838,7.818c-0.283,4.599,3.217,8.557,7.816,8.838
			C136.834,175.021,137.176,175.021,137.516,175z"/>
		
			<linearGradient id="SVGID_2_" gradientUnits="userSpaceOnUse" x1="-77.8042" y1="333.873" x2="49.1943" y2="514.8709" gradientTransform="matrix(1 0 0 1 138 -343)">
			<stop  offset="0" style="stop-color:#68FE9A"/>
			<stop  offset="1" style="stop-color:#43DCA4"/>
		</linearGradient>
		<path fill="url(#SVGID_2_)" d="M95.828,83.344c-23.023,0-41.688-18.664-41.688-41.688c0-23.024,18.665-41.688,41.688-41.688
			c23.023,0,41.688,18.664,41.688,41.688l0,0C137.498,64.672,118.844,83.327,95.828,83.344z M95.828,16.656
			c-13.807,0-25,11.193-25,25c0,13.807,11.193,25,25,25c13.807,0,25-11.193,25-25C120.828,27.849,109.635,16.656,95.828,16.656
			L95.828,16.656z"/>
		
			<linearGradient id="SVGID_3_" gradientUnits="userSpaceOnUse" x1="-141.8862" y1="378.8359" x2="-14.8859" y2="559.8364" gradientTransform="matrix(1 0 0 1 138 -343)">
			<stop  offset="0" style="stop-color:#68FE9A"/>
			<stop  offset="1" style="stop-color:#43DCA4"/>
		</linearGradient>
		<path fill="url(#SVGID_3_)" d="M104.172,183.344H20.828c0.03-41.422,33.633-74.976,75.054-74.945
			c16.144,0.015,31.851,5.23,44.79,14.886c1.428,1.096,3.17,1.696,4.969,1.719l0,0c4.646-0.04,8.373-3.836,8.334-8.479
			c-0.021-2.635-1.279-5.105-3.396-6.679c-17.813-13.313-39.865-19.679-62.031-17.906c-48.188,3.75-84.375,45.969-84.375,94.313
			v4.375c-0.45,4.707,3.002,8.891,7.709,9.338c0.211,0.021,0.422,0.033,0.634,0.037h91.656c4.607,0,8.344-3.734,8.344-8.344l0,0
			C112.498,187.061,108.768,183.344,104.172,183.344z"/>
	</g>
</g>
</svg>
