<?xml version="1.0" encoding="utf-8"?>
<!-- Generator: Adobe Illustrator 13.0.0, SVG Export Plug-In . SVG Version: 6.00 Build 14948)  -->
<!DOCTYPE svg PUBLIC "-//W3C//DTD SVG 1.1//EN" "http://www.w3.org/Graphics/SVG/1.1/DTD/svg11.dtd">
<svg version="1.1" id="Layer_1" xmlns="http://www.w3.org/2000/svg" xmlns:xlink="http://www.w3.org/1999/xlink" x="0px" y="0px"
	 width="200px" height="200px" viewBox="0 0 200 200" enable-background="new 0 0 200 200" xml:space="preserve">
<title>Asset 60</title>
<g id="Layer_2">
	<g id="Layer_1-2">
		
			<linearGradient id="SVGID_1_" gradientUnits="userSpaceOnUse" x1="-105.9761" y1="380.3564" x2="38.0239" y2="516.3564" gradientTransform="matrix(1 0 0 1 138 -343)">
			<stop  offset="0" style="stop-color:#68FE9A"/>
			<stop  offset="1" style="stop-color:#43DCA4"/>
		</linearGradient>
		<path fill="url(#SVGID_1_)" d="M88,60c0-17.673-14.327-32-32-32S24,42.327,24,60s14.327,32,32,32
			C73.666,91.983,87.983,77.666,88,60z M56,76c-8.836,0.069-16.056-7.038-16.125-15.875S46.914,44.07,55.75,44.001
			s16.056,7.038,16.125,15.875c0,0.042,0,0.083,0,0.125C71.858,68.781,64.781,75.915,56,76z"/>
		
			<linearGradient id="SVGID_2_" gradientUnits="userSpaceOnUse" x1="-127.9985" y1="403.6738" x2="16.0022" y2="539.6745" gradientTransform="matrix(1 0 0 1 138 -343)">
			<stop  offset="0" style="stop-color:#68FE9A"/>
			<stop  offset="1" style="stop-color:#43DCA4"/>
		</linearGradient>
		<path fill="url(#SVGID_2_)" d="M144,92c-17.182,0.005-33.406,7.91-44,21.438c-19.082-24.315-54.264-28.563-78.582-9.479
			C7.894,114.568-0.003,130.809,0,148v16c0,4.418,3.582,8,8,8l0,0h184c4.418,0,8-3.582,8-8l0,0v-16
			C199.965,117.086,174.914,92.035,144,92z M184,156.125H16V148c0.091-22.092,18.074-39.926,40.165-39.834
			c12.459,0.051,24.183,5.904,31.71,15.834h24c13.346-17.604,38.438-21.057,56.041-7.71c9.928,7.526,15.783,19.251,15.834,31.71
			L184,156.125z"/>
		
			<linearGradient id="SVGID_3_" gradientUnits="userSpaceOnUse" x1="-64.4873" y1="336.4287" x2="79.513" y2="472.429" gradientTransform="matrix(1 0 0 1 138 -343)">
			<stop  offset="0" style="stop-color:#68FE9A"/>
			<stop  offset="1" style="stop-color:#43DCA4"/>
		</linearGradient>
		<path fill="url(#SVGID_3_)" d="M176,60c0-17.673-14.326-32-32-32s-32,14.327-32,32s14.326,32,32,32l0,0
			c17.656,0.017,31.982-14.282,32-31.938C176,60.042,176,60.021,176,60z M144,76c-8.836,0-16-7.164-16-16s7.164-16,16-16
			s16,7.164,16,16l0,0C159.982,68.83,152.83,75.983,144,76z"/>
	</g>
</g>
</svg>
