<?xml version="1.0" encoding="utf-8"?>
<!-- Generator: Adobe Illustrator 13.0.0, SVG Export Plug-In . SVG Version: 6.00 Build 14948)  -->
<!DOCTYPE svg PUBLIC "-//W3C//DTD SVG 1.1//EN" "http://www.w3.org/Graphics/SVG/1.1/DTD/svg11.dtd">
<svg version="1.1" id="Layer_1" xmlns="http://www.w3.org/2000/svg" xmlns:xlink="http://www.w3.org/1999/xlink" x="0px" y="0px"
	 width="200px" height="200px" viewBox="0 0 200 200" enable-background="new 0 0 200 200" xml:space="preserve">
<g>
	<g>
		<path d="M143.289,16.061v32.053h-15.35c-11.772,0-13.144,7.123-13.144,14.514v11.228h28.492l-2.743,34.771h-25.749v76.162H80.001
			v-76.162H60.012V73.856h19.989V48.365c0-20.817,11.788-32.313,34.795-32.313h28.492 M151.85,7.5h-8.561h-28.492
			c-27.56,0-43.356,14.898-43.356,40.882v16.921H60.012h-8.561v8.561v34.778v8.562h8.561H71.44v67.594v8.562h8.561h34.795h8.562
			v-8.562v-67.594h17.188h7.91l0.626-7.892l2.733-34.779l0.735-9.23h-9.263h-19.932v-2.675c0-5.944,0.25-5.944,4.582-5.944h15.35
			h8.561v-8.561V16.061V7.5H151.85z"/>
	</g>
</g>
</svg>
