<?xml version="1.0" encoding="utf-8"?>
<!-- Generator: Adobe Illustrator 13.0.0, SVG Export Plug-In . SVG Version: 6.00 Build 14948)  -->
<!DOCTYPE svg PUBLIC "-//W3C//DTD SVG 1.1//EN" "http://www.w3.org/Graphics/SVG/1.1/DTD/svg11.dtd">
<svg version="1.1" id="Layer_1" xmlns="http://www.w3.org/2000/svg" xmlns:xlink="http://www.w3.org/1999/xlink" x="0px" y="0px"
	 width="200px" height="200px" viewBox="0 0 200 200" enable-background="new 0 0 200 200" xml:space="preserve">
<title>Asset 69</title>
<path fill="#83CBF8" d="M159.632,8.447H44.696c-8.739,0.004-15.829,7.094-15.833,15.831V174.58
	c0.004,8.736,7.094,15.826,15.833,15.831h114.936c8.736-0.005,15.826-7.095,15.83-15.831V24.278
	C175.458,15.542,168.368,8.452,159.632,8.447z M159.632,176.429H44.696c-1.019,0-1.85-0.834-1.852-1.849V24.278
	c0.002-1.023,0.825-1.848,1.852-1.85h114.936c1.022,0.002,1.847,0.827,1.849,1.85V174.58
	C161.479,175.595,160.647,176.429,159.632,176.429z"/>
<path fill="#83CBF8" d="M106.584,154.748v-0.002h-8.841c-3.863,0.009-6.985,3.13-6.992,6.992c0.005,3.854,3.123,6.987,6.992,6.989
	l8.841,0.003c3.868-0.005,6.987-3.139,6.989-6.992C113.567,157.876,110.443,154.755,106.584,154.748z"/>
<path fill="#83CBF8" d="M144.337,33.444v-0.002h-84.35c-3.486,0.004-6.298,2.827-6.303,6.303v99.686c0,3.48,2.823,6.301,6.303,6.303
	h84.35c3.482-0.002,6.295-2.822,6.301-6.303l0.002-99.686C150.636,36.269,147.825,33.446,144.337,33.444z M138.035,46.048v87.081
	H66.291V46.048H138.035z"/>
</svg>
