<?xml version="1.0" encoding="utf-8"?>
<!-- Generator: Adobe Illustrator 13.0.0, SVG Export Plug-In . SVG Version: 6.00 Build 14948)  -->
<!DOCTYPE svg PUBLIC "-//W3C//DTD SVG 1.1//EN" "http://www.w3.org/Graphics/SVG/1.1/DTD/svg11.dtd">
<svg version="1.1" id="Layer_1" xmlns="http://www.w3.org/2000/svg" xmlns:xlink="http://www.w3.org/1999/xlink" x="0px" y="0px"
	 width="200px" height="200px" viewBox="0 0 200 200" enable-background="new 0 0 200 200" xml:space="preserve">
<title>Asset 69</title>
<g>
	<polygon fill="#83CBF8" points="113.005,34.582 113.004,34.581 113.003,34.582 	"/>
	<path fill="#83CBF8" d="M180.786,44.874H157.39c1.635-3.448,2.551-7.304,2.549-11.359c-0.007-14.666-11.924-26.583-26.588-26.591
		c-14.785,0.119-26.186,11.255-31.834,17.664c-2.27,2.605-4.327,5.329-6.118,8.066c-1.795-2.734-3.849-5.454-6.112-8.063
		C83.628,18.188,72.228,7.042,57.453,6.924C42.787,6.931,30.869,18.849,30.864,33.515c-0.002,4.056,0.915,7.912,2.55,11.359H10.018
		c-4.214,0.005-7.613,3.414-7.615,7.613v28.461c0.007,4.208,3.409,7.605,7.615,7.615h1.871v87.258
		c0.005,9.437,7.663,17.098,17.102,17.102h132.823c9.429-0.007,17.093-7.663,17.101-17.102V88.564h1.872
		c4.201-0.005,7.612-3.401,7.616-7.615V52.487C188.394,48.28,184.995,44.881,180.786,44.874z M68.812,88.564v89.13H28.99
		c-1.037,0-1.871-0.835-1.873-1.872V88.564H68.812z M68.812,60.103v13.233H17.63V60.103H68.812z M84.985,44.874H57.453
		c-6.257-0.012-11.348-5.103-11.36-11.359c0.012-6.26,5.103-11.351,11.36-11.363c5.503-0.076,13.273,4.24,20.35,12.43
		C80.813,38.038,83.269,41.694,84.985,44.874z M106.759,60.103v117.592H84.041V60.103H106.759z M173.173,60.103v13.233h-51.186
		V60.103H173.173z M110.839,32.698L110.839,32.698l2.165,1.882c7.066-8.191,14.831-12.505,20.347-12.429
		c6.247,0.012,11.349,5.106,11.359,11.363c-0.011,6.254-5.112,11.348-11.359,11.359h-27.534c1.714-3.181,4.166-6.836,7.187-10.29
		L110.839,32.698C110.839,32.699,110.839,32.699,110.839,32.698z M161.813,177.694h-39.826v-89.13h41.699v87.258
		C163.684,176.852,162.837,177.694,161.813,177.694z"/>
</g>
</svg>
