<?xml version="1.0" encoding="utf-8"?>
<!-- Generator: Adobe Illustrator 13.0.0, SVG Export Plug-In . SVG Version: 6.00 Build 14948)  -->
<!DOCTYPE svg PUBLIC "-//W3C//DTD SVG 1.1//EN" "http://www.w3.org/Graphics/SVG/1.1/DTD/svg11.dtd">
<svg version="1.1" id="Layer_1" xmlns="http://www.w3.org/2000/svg" xmlns:xlink="http://www.w3.org/1999/xlink" x="0px" y="0px"
	 width="200px" height="200px" viewBox="0 0 200 200" enable-background="new 0 0 200 200" xml:space="preserve">
<title>Asset 1</title>
<g id="Layer_2">
	<g id="Layer_1-2">
		<path fill="#83CBF8" d="M141.672,0H58.328c-9.199,0-16.656,7.457-16.656,16.656v166.688c0,9.199,7.457,16.656,16.656,16.656l0,0
			h83.344c9.199,0,16.656-7.457,16.656-16.656l0,0V16.656C158.328,7.457,150.871,0,141.672,0L141.672,0z M58.328,183.344V16.656
			h83.344v166.688H58.328z"/>
		<path fill="#83CBF8" d="M120.922,25h-41.75c-2.304,0.2-4.01,2.229-3.811,4.533c0.176,2.027,1.783,3.635,3.811,3.811h41.75
			c2.305-0.2,4.01-2.229,3.811-4.533C124.557,26.783,122.949,25.176,120.922,25z"/>
		<circle fill="#83CBF8" cx="99.922" cy="166.656" r="8.344"/>
	</g>
</g>
<path fill="#83CBF8" d="M186.92,44H158.5v11.16h28.42v111.68H158.5V178h28.42c6.164,0,11.16-4.996,11.16-11.16V55.16
	C198.08,48.996,193.084,44,186.92,44z"/>
<path fill="#83CBF8" d="M173.018,60.75H158.5v5.59h14.518c1.544-0.134,2.687-1.493,2.553-3.037
	C175.453,61.945,174.376,60.868,173.018,60.75z"/>
<path fill="#83CBF8" d="M158.947,150.069c-0.151,0-0.299,0.011-0.447,0.022v11.136c0.148,0.012,0.296,0.022,0.447,0.022
	c3.088,0,5.591-2.503,5.591-5.59C164.538,152.572,162.035,150.069,158.947,150.069z"/>
<path fill="#83CBF8" d="M13.66,44h28.42v11.16H13.66v111.68h28.42V178H13.66c-6.164,0-11.16-4.996-11.16-11.16V55.16
	C2.5,48.996,7.496,44,13.66,44z"/>
<path fill="#83CBF8" d="M27.563,60.75H42.08v5.59H27.563c-1.544-0.134-2.687-1.493-2.553-3.037
	C25.127,61.945,26.204,60.868,27.563,60.75z"/>
<path fill="#83CBF8" d="M41.633,150.069c0.151,0,0.299,0.011,0.447,0.022v11.136c-0.148,0.012-0.296,0.022-0.447,0.022
	c-3.088,0-5.591-2.503-5.591-5.59C36.042,152.572,38.545,150.069,41.633,150.069z"/>
</svg>
