<?xml version="1.0" encoding="utf-8"?>
<!-- Generator: Adobe Illustrator 13.0.0, SVG Export Plug-In . SVG Version: 6.00 Build 14948)  -->
<!DOCTYPE svg PUBLIC "-//W3C//DTD SVG 1.1//EN" "http://www.w3.org/Graphics/SVG/1.1/DTD/svg11.dtd">
<svg version="1.1" id="Layer_1" xmlns="http://www.w3.org/2000/svg" xmlns:xlink="http://www.w3.org/1999/xlink" x="0px" y="0px"
	 width="200px" height="200px" viewBox="0 0 200 200" enable-background="new 0 0 200 200" xml:space="preserve">
<title>Asset 76</title>
<g>
	<linearGradient id="SVGID_1_" gradientUnits="userSpaceOnUse" x1="15.5791" y1="99.5" x2="183.4209" y2="99.5">
		<stop  offset="0" style="stop-color:#68FE9A"/>
		<stop  offset="1" style="stop-color:#43DCA4"/>
	</linearGradient>
	<path fill="url(#SVGID_1_)" d="M162.473,131.932l-20.618-7.16l22.966-91.865c6.334-4.131,12.003-9.351,16.681-15.495
		c2.171-2.857,1.614-6.935-1.243-9.107c-2.857-2.173-6.935-1.617-9.107,1.243c-10.022,13.214-25.997,21.18-42.284,21.162
		c-3.591,0-6.5,2.909-6.5,6.5c0,3.59,2.909,6.501,6.5,6.501v-0.002c7.093-0.006,14.081-1.189,20.707-3.415l-20.049,80.197
		L87.38,105.857c-0.052-0.123-0.1-0.246-0.16-0.365L68.194,67.439h7.28c3.589,0,6.499-2.91,6.499-6.499
		c0-3.591-2.91-6.501-6.499-6.501H56.489c-8.987-0.014-17.34-3.441-23.878-9.961c-2.539-2.537-6.653-2.54-9.192,0
		c-2.539,2.538-2.539,6.653,0,9.192c8.188,8.211,18.88,12.988,30.191,13.674l16.634,33.263c-2.664-0.453-5.321-0.681-7.944-0.68
		c-12.45,0.004-24.081,4.907-32.643,13.077c-8.564,8.15-14.089,19.732-14.078,32.77c0.006,25.543,20.706,46.244,46.249,46.248h90.77
		c0.013,0,0.025,0,0.039,0c8.513,0,16.284-3.383,21.835-8.949c5.574-5.559,8.957-13.344,8.949-21.873
		C183.399,148.305,175.168,136.438,162.473,131.932z M152.598,179.02h-90.77c-9.2-0.002-17.472-3.711-23.51-9.738
		c-6.027-6.037-9.734-14.307-9.738-23.508c0.011-9.35,3.871-17.441,10.053-23.367c6.188-5.906,14.664-9.484,23.667-9.48
		c3.454,0,6.997,0.523,10.562,1.652l85.314,29.623c7.441,2.602,12.265,9.719,12.244,16.998
		C170.347,171.348,162.748,178.947,152.598,179.02z"/>
	<linearGradient id="SVGID_2_" gradientUnits="userSpaceOnUse" x1="63.042" y1="149.9268" x2="129.4346" y2="149.9268">
		<stop  offset="0" style="stop-color:#68FE9A"/>
		<stop  offset="1" style="stop-color:#43DCA4"/>
	</linearGradient>
	<path fill="url(#SVGID_2_)" d="M122.934,143.428h-12.185c-2.844-10.264-12.242-17.795-23.411-17.799
		c-13.421,0.004-24.292,10.873-24.296,24.299c0.004,13.42,10.875,24.291,24.296,24.297c11.168-0.006,20.566-7.537,23.411-17.797
		h12.185c3.59,0,6.501-2.91,6.501-6.5C129.435,146.336,126.523,143.428,122.934,143.428z M87.338,161.223
		c-6.236-0.01-11.286-5.063-11.297-11.295c0.011-6.24,5.061-11.289,11.297-11.299c3.816,0.006,7.18,1.902,9.226,4.799h-9.225
		c-3.59,0-6.501,2.908-6.501,6.5c0,3.59,2.911,6.5,6.501,6.5h9.221C94.515,159.32,91.152,161.217,87.338,161.223z"/>
</g>
</svg>
