<?xml version="1.0" encoding="utf-8"?>
<!-- Generator: Adobe Illustrator 13.0.0, SVG Export Plug-In . SVG Version: 6.00 Build 14948)  -->
<!DOCTYPE svg PUBLIC "-//W3C//DTD SVG 1.1//EN" "http://www.w3.org/Graphics/SVG/1.1/DTD/svg11.dtd">
<svg version="1.1" id="Layer_1" xmlns="http://www.w3.org/2000/svg" xmlns:xlink="http://www.w3.org/1999/xlink" x="0px" y="0px"
	 width="200px" height="200px" viewBox="0 0 200 200" enable-background="new 0 0 200 200" xml:space="preserve">
<title>Asset 76</title>
<g>
	<linearGradient id="SVGID_1_" gradientUnits="userSpaceOnUse" x1="38.5283" y1="99.5" x2="160.4717" y2="99.5">
		<stop  offset="0" style="stop-color:#68FE9A"/>
		<stop  offset="1" style="stop-color:#43DCA4"/>
	</linearGradient>
	<path fill="url(#SVGID_1_)" d="M148.336,44.787c-0.005-0.299-0.03-0.59-0.074-0.877l-4.251-26.105l-0.029-0.173
		c-0.88-4.414-3.111-8.293-6.361-11.077c-3.24-2.789-7.478-4.418-12.012-4.418c-0.002,0-0.002,0-0.05,0H73.42
		c-0.009,0-0.019,0-0.029,0c-4.535,0-8.774,1.629-12.016,4.422c-3.246,2.78-5.477,6.659-6.347,11.021l-0.031,0.182l-4.254,26.125
		c-0.048,0.296-0.076,0.599-0.082,0.902C43.309,50.384,38.54,59.235,38.53,69.17l-0.002,60.657
		c0.012,9.938,4.781,18.791,12.133,24.385c0.004,0.295,0.031,0.599,0.083,0.905l4.245,26.08l0.031,0.181
		c0.878,4.407,3.111,8.284,6.36,11.069c3.204,2.759,7.39,4.384,11.87,4.415l0.004,0.001h52.327h0.031
		c4.53,0,8.768-1.628,12.012-4.418c3.246-2.783,5.478-6.66,6.347-11.023l0.036-0.189l4.249-26.119
		c0.049-0.304,0.076-0.606,0.08-0.901c7.354-5.592,12.126-14.445,12.134-24.383l0.002-60.655
		C160.462,59.234,155.689,50.383,148.336,44.787z M147.706,69.174v60.653c-0.002,4.915-1.993,9.35-5.259,12.625
		c-3.271,3.262-7.706,5.253-12.619,5.255H69.173c-4.914-0.002-9.35-1.993-12.625-5.259c-3.259-3.271-5.252-7.706-5.255-12.621
		V69.174c0.002-4.913,1.996-9.35,5.259-12.625c3.271-3.261,7.708-5.253,12.622-5.255h60.655c4.913,0.002,9.349,1.994,12.624,5.259
		C145.711,59.824,147.704,64.259,147.706,69.174z M64.545,38.529l3.014-18.514c0.358-1.685,1.142-2.918,2.131-3.772
		c1.032-0.861,2.17-1.325,3.737-1.344l52.154,0.002c1.559,0.017,2.699,0.482,3.737,1.351c0.983,0.845,1.764,2.078,2.121,3.762
		l3.013,18.516H64.545z M134.452,160.47l-3.021,18.564c-0.363,1.656-1.142,2.879-2.119,3.722c-1.032,0.863-2.171,1.327-3.74,1.347
		H73.42c-1.563-0.02-2.699-0.483-3.739-1.354c-0.979-0.844-1.764-2.081-2.121-3.763l-3.014-18.517H134.452z"/>
	<linearGradient id="SVGID_2_" gradientUnits="userSpaceOnUse" x1="62.792" y1="96.4683" x2="136.209" y2="96.4683">
		<stop  offset="0" style="stop-color:#68FE9A"/>
		<stop  offset="1" style="stop-color:#43DCA4"/>
	</linearGradient>
	<path fill="url(#SVGID_2_)" d="M129.827,93.118h-8.188l-10.365-20.733c-1.087-2.167-3.296-3.526-5.709-3.529
		c-0.041,0.003-0.115,0-0.252,0.007l0,0c-2.459,0.099-4.641,1.599-5.613,3.861l-16.54,38.593H69.172c-3.523,0-6.38,2.854-6.38,6.382
		c0.002,3.522,2.854,6.38,6.38,6.383h18.198c0.002,0,0.003,0,0.005,0c2.549,0,4.859-1.526,5.858-3.87l12.774-29.812l5.979,11.954
		c1.078,2.163,3.295,3.528,5.709,3.528h12.13c3.524-0.002,6.38-2.857,6.382-6.38C136.207,95.978,133.354,93.12,129.827,93.118z"/>
</g>
</svg>
