<?xml version="1.0" encoding="utf-8"?>
<!-- Generator: Adobe Illustrator 13.0.0, SVG Export Plug-In . SVG Version: 6.00 Build 14948)  -->
<!DOCTYPE svg PUBLIC "-//W3C//DTD SVG 1.1//EN" "http://www.w3.org/Graphics/SVG/1.1/DTD/svg11.dtd">
<svg version="1.1" id="Layer_1" xmlns="http://www.w3.org/2000/svg" xmlns:xlink="http://www.w3.org/1999/xlink" x="0px" y="0px"
	 width="200px" height="200px" viewBox="0 0 200 200" enable-background="new 0 0 200 200" xml:space="preserve">
<title>Asset 76</title>
<g>
	<linearGradient id="SVGID_1_" gradientUnits="userSpaceOnUse" x1="109.0674" y1="35.5488" x2="160.6318" y2="35.5488">
		<stop  offset="0" style="stop-color:#68FE9A"/>
		<stop  offset="1" style="stop-color:#43DCA4"/>
	</linearGradient>
	<path fill="url(#SVGID_1_)" d="M134.849,61.331c14.242-0.004,25.777-11.542,25.783-25.782
		c-0.004-14.242-11.541-25.779-25.783-25.783c-14.242,0.006-25.777,11.542-25.781,25.783
		C109.071,49.79,120.606,61.327,134.849,61.331z M134.849,22.768c7.058,0.013,12.77,5.724,12.782,12.782
		c-0.013,7.056-5.725,12.768-12.782,12.78c-7.058-0.012-12.768-5.724-12.78-12.78C122.081,28.492,127.791,22.78,134.849,22.768z"/>
	<linearGradient id="SVGID_2_" gradientUnits="userSpaceOnUse" x1="12.6611" y1="106.8906" x2="186.3389" y2="106.8906">
		<stop  offset="0" style="stop-color:#68FE9A"/>
		<stop  offset="1" style="stop-color:#43DCA4"/>
	</linearGradient>
	<path fill="url(#SVGID_2_)" d="M184.861,69.987c-2.278-2.773-6.373-3.175-9.146-0.897l-17.896,14.697
		c-2.782,2.112-5.772,3.047-8.637,3.051c-3.333-0.013-6.5-1.249-9.095-3.824L89.316,32.238c-5.154-5.147-11.989-7.694-18.738-7.69
		c-6.75-0.004-13.584,2.542-18.734,7.69L33.846,50.233c-2.538,2.538-2.538,6.654,0,9.194c2.539,2.538,6.656,2.538,9.194,0v-0.002
		L61.036,41.43c2.563-2.565,6.009-3.876,9.542-3.88c3.533,0.004,6.98,1.315,9.546,3.88l10.186,10.186L61.484,80.443
		c-5.116,5.11-7.522,11.854-7.51,18.381c0.004,5.021,1.382,10.002,4.092,14.326c1.923,3.076,4.573,5.805,7.818,7.879l-10.186,10.188
		c-1.311,1.314-3.026,1.951-4.643,1.951c-1.626-0.014-2.954-0.6-3.865-1.637l-0.293-0.314l-23.139-23.139
		c-2.539-2.539-6.654-2.539-9.193,0c-2.538,2.539-2.538,6.656,0,9.193l23.025,23.025c3.563,3.947,8.553,5.871,13.412,5.871
		c0.018,0,0.036,0,0.054,0c4.972,0,10.005-1.936,13.835-5.76l13.867-13.865l16.482,6.338l0.114,0.043
		c4.463,1.553,8.007,6.449,7.93,11.242v38.566c0,3.59,2.909,6.502,6.5,6.502s6.502-2.912,6.502-6.502l-0.002-38.566
		c-0.077-10.588-6.766-19.805-16.378-23.418h0.001l-24.985-9.611c-2.566-1.033-4.474-2.729-5.845-4.896
		c-1.361-2.16-2.107-4.796-2.103-7.416c0.013-3.435,1.213-6.695,3.703-9.19l28.825-28.825l13.301,13.303L85.264,101.65
		c-2.539,2.537-2.539,6.654,0,9.193c1.27,1.268,2.933,1.902,4.597,1.902c1.663,0,3.326-0.635,4.595-1.902l27.54-27.54l8.901,8.902
		c4.967,4.984,11.566,7.632,18.239,7.632c0.016,0,0.031,0,0.047,0c5.803,0.006,11.658-1.968,16.62-5.791l0.166-0.131l17.996-14.783
		C186.738,76.855,187.14,72.76,184.861,69.987z"/>
</g>
</svg>
