<?xml version="1.0" encoding="utf-8"?>
<!-- Generator: Adobe Illustrator 13.0.0, SVG Export Plug-In . SVG Version: 6.00 Build 14948)  -->
<!DOCTYPE svg PUBLIC "-//W3C//DTD SVG 1.1//EN" "http://www.w3.org/Graphics/SVG/1.1/DTD/svg11.dtd">
<svg version="1.1" id="Layer_1" xmlns="http://www.w3.org/2000/svg" xmlns:xlink="http://www.w3.org/1999/xlink" x="0px" y="0px"
	 width="200px" height="200px" viewBox="0 0 200 200" enable-background="new 0 0 200 200" xml:space="preserve">
<title>Asset 76</title>
<g>
	<linearGradient id="SVGID_1_" gradientUnits="userSpaceOnUse" x1="22.167" y1="99.5005" x2="176.833" y2="99.5005">
		<stop  offset="0" style="stop-color:#68FE9A"/>
		<stop  offset="1" style="stop-color:#43DCA4"/>
	</linearGradient>
	<path fill="url(#SVGID_1_)" d="M163.421,111.355l-7.072-11.197c-4.492-6.989-8.075-13.916-11.198-21.297
		c5.095-7.603,8.07-16.744,8.072-26.584c-0.006-26.413-21.407-47.815-47.819-47.819C78.99,4.462,57.588,25.864,57.583,52.277
		c0.005,26.41,21.407,47.813,47.82,47.819c1.794,0,3.563-0.108,5.306-0.301c0.01,9.29,0.273,15.151,0.937,19.771
		c-7.804-5.746-17.433-8.875-27.492-8.859H72.861c-2.493-5.977-6.156-11.314-10.675-15.806l-0.188-0.182
		c-8.66-8.006-20.25-13.526-33.332-13.528c-3.59,0-6.5,2.911-6.5,6.501s2.91,6.502,6.5,6.502v-0.002
		c9.308,0,17.752,3.889,24.425,10.001c6.54,6.637,10.364,14.828,10.396,24.82c0,3.59,2.909,6.5,6.499,6.5s6.502-2.91,6.502-6.5
		c0.004-1.801-0.098-3.57-0.286-5.307h7.951c11.517,0.021,21.711,5.438,27.56,14.678c1.194,1.893,3.259,3.031,5.495,3.031h5.904
		c2.107,0,4.08-1.021,5.3-2.74s1.53-3.918,0.835-5.908c-1.082-3.09-2.003-5.389-2.703-7.293c-1.046-2.877-1.629-4.74-2.111-8.344
		c-0.47-3.588-0.727-8.898-0.725-17.633c0-1-0.232-1.943-0.636-2.789c4.562-1.816,8.78-4.306,12.524-7.358
		c2.819,6.045,6.019,11.931,9.789,17.796l7.055,11.17c6.833,10.727,10.624,23.324,11.287,36.123l-41.539,19.42
		c-7.729,3.514-16.099,5.275-24.447,5.275c-10.58,0-21.102-2.828-30.259-8.443c-1.546-0.945-3.446-1.205-5.187-0.707
		c-1.741,0.498-3.217,1.723-4.025,3.342l-5.903,11.807c-1.606,3.211-0.305,7.115,2.907,8.721c0.933,0.467,1.925,0.689,2.901,0.689
		c2.385,0,4.68-1.316,5.82-3.596l2.896-5.793c9.693,4.66,20.268,6.98,30.85,6.98c10.175,0,20.373-2.145,29.83-6.441l0.063-0.029
		l45.452-21.25c2.289-1.07,3.746-3.361,3.746-5.887C176.829,142.018,172.401,125.48,163.421,111.355z M105.403,87.096
		c-9.636-0.004-18.301-3.888-24.62-10.198c-6.313-6.322-10.196-14.986-10.199-24.62c0.003-9.638,3.887-18.301,10.199-24.623
		c6.319-6.31,14.984-10.193,24.62-10.196c9.636,0.003,18.298,3.887,24.62,10.198c6.311,6.32,10.194,14.983,10.198,24.621
		c-0.004,9.634-3.888,18.298-10.198,24.62C123.701,83.208,115.039,87.092,105.403,87.096z"/>
	<linearGradient id="SVGID_2_" gradientUnits="userSpaceOnUse" x1="82.375" y1="52.2759" x2="128.4307" y2="52.2759">
		<stop  offset="0" style="stop-color:#68FE9A"/>
		<stop  offset="1" style="stop-color:#43DCA4"/>
	</linearGradient>
	<path fill="url(#SVGID_2_)" d="M126.526,31.15c-2.537-2.536-6.653-2.536-9.192,0l-4.437,4.438c-2.289-1.029-4.82-1.616-7.494-1.618
		c-2.674,0.002-5.206,0.589-7.495,1.619l-4.438-4.438c-2.538-2.538-6.653-2.538-9.191,0c-2.538,2.539-2.538,6.655,0,9.193
		l4.437,4.437c-1.03,2.289-1.617,4.821-1.618,7.496c0.001,2.674,0.588,5.205,1.618,7.494l-4.437,4.437
		c-2.539,2.538-2.539,6.654,0,9.192c1.269,1.27,2.933,1.903,4.596,1.903c1.664,0,3.327-0.634,4.597-1.903l4.437-4.437
		c2.289,1.03,4.821,1.617,7.495,1.619c2.674-0.002,5.206-0.589,7.495-1.619l4.436,4.437c1.27,1.269,2.934,1.902,4.597,1.902
		c1.664,0,3.327-0.634,4.596-1.902c2.539-2.539,2.539-6.655,0-9.192l-4.436-4.437c1.03-2.289,1.617-4.82,1.619-7.494
		c-0.002-2.675-0.589-5.207-1.619-7.497l4.436-4.436C129.065,37.806,129.065,33.689,126.526,31.15z M102.222,56.493
		c-0.15-0.189-0.312-0.374-0.486-0.549c-0.176-0.176-0.359-0.336-0.549-0.487c-0.672-0.888-1.086-1.981-1.088-3.18
		c0.002-1.201,0.416-2.296,1.089-3.185c0.188-0.15,0.372-0.31,0.547-0.484s0.335-0.359,0.486-0.548
		c0.889-0.673,1.982-1.087,3.183-1.089c1.199,0.002,2.293,0.416,3.182,1.088c0.15,0.189,0.311,0.373,0.486,0.549
		c0.175,0.175,0.359,0.335,0.548,0.486c0.672,0.889,1.086,1.982,1.088,3.183c-0.002,1.197-0.415,2.289-1.085,3.177
		c-0.19,0.151-0.375,0.313-0.551,0.488c-0.177,0.177-0.338,0.362-0.489,0.553c-0.888,0.671-1.98,1.084-3.179,1.086
		C104.204,57.579,103.11,57.165,102.222,56.493z"/>
</g>
</svg>
