<?xml version="1.0" encoding="utf-8"?>
<!-- Generator: Adobe Illustrator 13.0.0, SVG Export Plug-In . SVG Version: 6.00 Build 14948)  -->
<!DOCTYPE svg PUBLIC "-//W3C//DTD SVG 1.1//EN" "http://www.w3.org/Graphics/SVG/1.1/DTD/svg11.dtd">
<svg version="1.1" id="Layer_1" xmlns="http://www.w3.org/2000/svg" xmlns:xlink="http://www.w3.org/1999/xlink" x="0px" y="0px"
	 width="200px" height="200px" viewBox="0 0 200 200" enable-background="new 0 0 200 200" xml:space="preserve">
<title>Home, Website</title>
<linearGradient id="SVGID_1_" gradientUnits="userSpaceOnUse" x1="146.585" y1="615.1426" x2="266.5849" y2="758.1425" gradientTransform="matrix(1 0 0 1 -112 -593)">
	<stop  offset="0" style="stop-color:#68FE9A"/>
	<stop  offset="1" style="stop-color:#43DCA4"/>
</linearGradient>
<path fill="url(#SVGID_1_)" d="M99.5,4.5c-52.467,0-95,42.533-95,95s42.533,95,95,95s95-42.533,95-95S151.967,4.5,99.5,4.5z
	 M99.5,184.5c-46.944,0-85-38.057-85-85c0-46.944,38.056-85,85-85c46.943,0,85,38.056,85,85C184.5,146.443,146.443,184.5,99.5,184.5
	z"/>
<title>Asset 69</title>
<g>
	<linearGradient id="SVGID_2_" gradientUnits="userSpaceOnUse" x1="65.082" y1="62.2378" x2="101.082" y2="142.2378">
		<stop  offset="0" style="stop-color:#68FE9A"/>
		<stop  offset="1" style="stop-color:#43DCA4"/>
	</linearGradient>
	<rect x="69.5" y="54.5" fill="url(#SVGID_2_)" width="22" height="84"/>
	<linearGradient id="SVGID_3_" gradientUnits="userSpaceOnUse" x1="100.0825" y1="62.2383" x2="136.0821" y2="142.2374">
		<stop  offset="0" style="stop-color:#68FE9A"/>
		<stop  offset="1" style="stop-color:#43DCA4"/>
	</linearGradient>
	<rect x="104.5" y="54.5" fill="url(#SVGID_3_)" width="22" height="84"/>
</g>
</svg>
