<?xml version="1.0" encoding="utf-8"?>
<!-- Generator: Adobe Illustrator 13.0.0, SVG Export Plug-In . SVG Version: 6.00 Build 14948)  -->
<!DOCTYPE svg PUBLIC "-//W3C//DTD SVG 1.1//EN" "http://www.w3.org/Graphics/SVG/1.1/DTD/svg11.dtd">
<svg version="1.1" id="Layer_1" xmlns="http://www.w3.org/2000/svg" xmlns:xlink="http://www.w3.org/1999/xlink" x="0px" y="0px"
	 width="200px" height="200px" viewBox="0 0 200 200" enable-background="new 0 0 200 200" xml:space="preserve">
<title>Asset 76</title>
<g>
	<linearGradient id="SVGID_1_" gradientUnits="userSpaceOnUse" x1="7.2861" y1="103.8887" x2="191.7139" y2="103.8887">
		<stop  offset="0" style="stop-color:#68FE9A"/>
		<stop  offset="1" style="stop-color:#43DCA4"/>
	</linearGradient>
	<path fill="url(#SVGID_1_)" d="M191.36,144.369c-1.157-3.345-4.808-5.116-8.15-3.961l-15.683,5.427
		c-6.654,2.152-13.432,3.202-20.126,3.202c-8.15-0.003-16.17-1.569-23.679-4.598c6.037-6.285,9.127-14.386,9.12-22.418
		c0.013-8.209-3.234-16.451-9.661-22.528L77.849,54.159c-5.426-5.439-12.56-8.244-19.665-8.234
		c-7.103-0.01-14.237,2.795-19.665,8.234L11.887,80.794c-3.091,3.09-4.605,7.182-4.601,11.189
		c-0.004,4.006,1.513,8.098,4.601,11.188c3.001,3.011,7.084,4.593,11.19,4.581c2.949,0.002,5.926-0.795,8.621-2.335l0.406-0.25
		l25.283-17.029l9.896,9.898L52.39,112.93c-7.698,0.106-15.416,1.361-22.866,3.847l-0.069,0.024l-15.739,5.447
		c-3.343,1.157-5.117,4.806-3.958,8.151c1.159,3.344,4.808,5.116,8.152,3.96l-0.002-0.003l15.671-5.424v0.001
		c6.453-2.153,13.163-3.209,19.863-3.209c15.515-0.002,30.934,5.669,42.821,16.413c3.681,3.328,7.627,6.241,11.772,8.747
		c0.034,0.036,0.064,0.075,0.1,0.111c0.877,0.877,1.946,1.438,3.072,1.701c11.142,6.024,23.564,9.158,36.194,9.154
		c8.059,0,16.2-1.27,24.144-3.848l0.116-0.038l15.739-5.446C190.743,151.362,192.517,147.712,191.36,144.369z M68.937,114.507
		l11.939-11.938c1.193-1.196,1.876-2.845,1.878-4.533c0-1.686-0.685-3.337-1.878-4.53l-18.16-18.16
		c-2.161-2.161-5.576-2.491-8.11-0.785l-29.43,19.82c-0.778,0.407-1.488,0.556-2.099,0.556c-0.928-0.011-1.605-0.312-2.128-0.826
		c-0.544-0.542-0.844-1.294-0.848-2.129c0.004-0.837,0.304-1.588,0.846-2.128l26.636-26.634c3.046-3.038,6.809-4.471,10.601-4.481
		c3.792,0.01,7.556,1.443,10.603,4.481l45.399,45.398l0.141,0.136c3.812,3.599,5.689,8.341,5.701,13.267
		c-0.006,4.921-1.908,9.917-5.842,13.857l-2.28,2.28c-2.45-1.66-4.808-3.504-7.053-5.531
		C94.535,123.312,82.063,117.205,68.937,114.507z"/>
	<linearGradient id="SVGID_2_" gradientUnits="userSpaceOnUse" x1="112.3086" y1="67.769" x2="173.5527" y2="67.769">
		<stop  offset="0" style="stop-color:#68FE9A"/>
		<stop  offset="1" style="stop-color:#43DCA4"/>
	</linearGradient>
	<path fill="url(#SVGID_2_)" d="M142.932,98.39c16.914-0.004,30.615-13.705,30.621-30.621
		c-0.006-16.914-13.707-30.617-30.621-30.621c-16.913,0.004-30.618,13.707-30.623,30.621
		C112.313,84.685,126.019,98.386,142.932,98.39z M142.932,49.964c9.831,0.018,17.788,7.973,17.805,17.805
		c-0.017,9.833-7.974,17.79-17.805,17.806c-9.831-0.016-17.791-7.974-17.807-17.806C125.141,57.939,133.101,49.982,142.932,49.964z"
		/>
</g>
</svg>
