<?xml version="1.0" encoding="utf-8"?>
<!-- Generator: Adobe Illustrator 13.0.0, SVG Export Plug-In . SVG Version: 6.00 Build 14948)  -->
<!DOCTYPE svg PUBLIC "-//W3C//DTD SVG 1.1//EN" "http://www.w3.org/Graphics/SVG/1.1/DTD/svg11.dtd">
<svg version="1.1" id="Layer_1" xmlns="http://www.w3.org/2000/svg" xmlns:xlink="http://www.w3.org/1999/xlink" x="0px" y="0px"
	 width="200px" height="200px" viewBox="0 0 200 200" enable-background="new 0 0 200 200" xml:space="preserve">
<title>Asset 76</title>
<linearGradient id="SVGID_1_" gradientUnits="userSpaceOnUse" x1="6.541" y1="99.5" x2="192.459" y2="99.5">
	<stop  offset="0" style="stop-color:#68FE9A"/>
	<stop  offset="1" style="stop-color:#43DCA4"/>
</linearGradient>
<path fill="url(#SVGID_1_)" d="M174.664,64.361v-0.002c-1.859,0.004-3.649,0.294-5.333,0.823v-0.372
	c-0.026-9.829-7.966-17.772-17.795-17.796c-9.829,0.023-17.772,7.967-17.797,17.796V93.27H65.26V64.811
	c-0.023-9.829-7.967-17.772-17.795-17.796c-9.829,0.023-17.772,7.967-17.796,17.796v0.373c-1.684-0.529-3.474-0.819-5.332-0.823
	c-9.829,0.023-17.772,7.968-17.796,17.796v34.69c0.023,9.827,7.967,17.771,17.796,17.796c1.858-0.005,3.648-0.295,5.332-0.825v0.372
	c0.023,9.831,7.967,17.772,17.796,17.796c9.828-0.023,17.771-7.967,17.795-17.796v-28.458h68.479v28.461
	c0.024,9.828,7.968,17.77,17.797,17.793c9.829-0.023,17.769-7.967,17.795-17.793v-0.375c1.684,0.53,3.474,0.819,5.333,0.824
	c9.827-0.023,17.769-7.966,17.795-17.796v-34.69C192.433,72.328,184.491,64.384,174.664,64.361z M29.669,116.847
	c-0.006,2.89-2.441,5.325-5.332,5.332c-2.891-0.007-5.326-2.442-5.332-5.332v-34.69c0.006-2.893,2.439-5.328,5.332-5.332
	c2.893,0.004,5.326,2.439,5.332,5.332V116.847z M52.796,134.189c-0.006,2.894-2.44,5.329-5.331,5.333
	c-2.892-0.004-5.326-2.441-5.332-5.333v-17.335c0-0.003,0-0.005,0-0.008v-34.69c0-0.002,0-0.006,0-0.009V64.811
	c0.006-2.892,2.44-5.326,5.332-5.332c2.891,0.006,5.325,2.44,5.331,5.332V134.189z M156.865,134.192
	c-0.004,2.89-2.438,5.326-5.329,5.33c-2.891-0.004-5.327-2.44-5.333-5.33V99.52c0-0.006,0.002-0.012,0.002-0.019
	c0-0.006-0.002-0.012-0.002-0.019V64.811c0.006-2.892,2.442-5.326,5.333-5.332c2.892,0.006,5.325,2.44,5.329,5.332V134.192z
	 M179.995,116.846c-0.006,2.89-2.441,5.327-5.331,5.333c-2.882-0.006-5.307-2.424-5.333-5.299V82.121
	c0.026-2.875,2.451-5.292,5.333-5.298c2.89,0.006,5.325,2.442,5.331,5.332V116.846z"/>
</svg>
