<?xml version="1.0" encoding="utf-8"?>
<!-- Generator: Adobe Illustrator 13.0.0, SVG Export Plug-In . SVG Version: 6.00 Build 14948)  -->
<!DOCTYPE svg PUBLIC "-//W3C//DTD SVG 1.1//EN" "http://www.w3.org/Graphics/SVG/1.1/DTD/svg11.dtd">
<svg version="1.1" id="Layer_1" xmlns="http://www.w3.org/2000/svg" xmlns:xlink="http://www.w3.org/1999/xlink" x="0px" y="0px"
	 width="200px" height="200px" viewBox="0 0 200 200" enable-background="new 0 0 200 200" xml:space="preserve">
<title>Asset 4</title>
<g id="Layer_2">
	<g id="Layer_1-2">
		<linearGradient id="SVGID_1_" gradientUnits="userSpaceOnUse" x1="2.938" y1="44.0625" x2="163.938" y2="205.0625">
			<stop  offset="0" style="stop-color:#FD6921"/>
			<stop  offset="1" style="stop-color:#FBB23E"/>
		</linearGradient>
		<path fill="url(#SVGID_1_)" d="M182.219,188.953H17.781c-6.353,0.041-12.232-3.354-15.375-8.875
			c-3.218-5.469-3.218-12.251,0-17.719L84.625,19.922c4.898-8.491,15.753-11.404,24.244-6.505c2.703,1.559,4.947,3.803,6.506,6.505
			l82.219,142.438c4.885,8.5,1.953,19.352-6.547,24.234C188.361,188.137,185.316,188.951,182.219,188.953L182.219,188.953z
			 M100,28.797L100,28.797L17.781,171.203h164.438L100,28.797z M92.313,24.359L92.313,24.359z"/>
		<linearGradient id="SVGID_2_" gradientUnits="userSpaceOnUse" x1="25.6646" y1="21.3364" x2="186.6646" y2="182.3364">
			<stop  offset="0" style="stop-color:#FD6921"/>
			<stop  offset="1" style="stop-color:#FBB23E"/>
		</linearGradient>
		<path fill="url(#SVGID_2_)" d="M100,126.672c-4.901,0-8.875-3.974-8.875-8.875l0,0v-44.25c0-4.901,3.974-8.875,8.875-8.875
			c4.9,0,8.875,3.974,8.875,8.875v44.188c0.035,4.901-3.91,8.902-8.813,8.938C100.042,126.672,100.021,126.672,100,126.672z"/>
		<linearGradient id="SVGID_3_" gradientUnits="userSpaceOnUse" x1="1.3208" y1="45.6802" x2="162.3208" y2="206.6802">
			<stop  offset="0" style="stop-color:#FD6921"/>
			<stop  offset="1" style="stop-color:#FBB23E"/>
		</linearGradient>
		<circle fill="url(#SVGID_3_)" cx="100" cy="144.359" r="8.875"/>
	</g>
</g>
</svg>
