<?xml version="1.0" encoding="utf-8"?>
<!-- Generator: Adobe Illustrator 13.0.0, SVG Export Plug-In . SVG Version: 6.00 Build 14948)  -->
<!DOCTYPE svg PUBLIC "-//W3C//DTD SVG 1.1//EN" "http://www.w3.org/Graphics/SVG/1.1/DTD/svg11.dtd">
<svg version="1.1" id="Layer_1" xmlns="http://www.w3.org/2000/svg" xmlns:xlink="http://www.w3.org/1999/xlink" x="0px" y="0px"
	 width="200px" height="200px" viewBox="0 0 200 200" enable-background="new 0 0 200 200" xml:space="preserve">
<title>Asset 9</title>
<g id="Layer_2">
	<g id="Layer_1-2">
		
			<linearGradient id="SVGID_1_" gradientUnits="userSpaceOnUse" x1="-189.106" y1="301.8047" x2="-9.1061" y2="114.8049" gradientTransform="matrix(1 0 0 -1 194 303)">
			<stop  offset="0" style="stop-color:#FD6921"/>
			<stop  offset="1" style="stop-color:#FBB23E"/>
		</linearGradient>
		<path fill="url(#SVGID_1_)" d="M175,200H25c-13.807,0-25-11.193-25-25V25C0,11.193,11.193,0,25,0h150c13.807,0,25,11.193,25,25
			v150C200,188.807,188.807,200,175,200z M25,16.656c-4.601,0.017-8.327,3.743-8.344,8.344v150c0.017,4.602,3.743,8.326,8.344,8.344
			h150c4.602-0.018,8.326-3.742,8.344-8.344V25c-0.018-4.601-3.742-8.327-8.344-8.344H25z"/>
	</g>
</g>
<linearGradient id="SVGID_2_" gradientUnits="userSpaceOnUse" x1="-171.8008" y1="318.4619" x2="8.1992" y2="131.4619" gradientTransform="matrix(1 0 0 -1 194 303)">
	<stop  offset="0" style="stop-color:#FD6921"/>
	<stop  offset="1" style="stop-color:#FBB23E"/>
</linearGradient>
<rect x="45.5" y="48.796" fill="url(#SVGID_2_)" width="109" height="33.136"/>
<linearGradient id="SVGID_3_" gradientUnits="userSpaceOnUse" x1="-217.9561" y1="274.0352" x2="-37.9561" y2="87.0352" gradientTransform="matrix(1 0 0 -1 194 303)">
	<stop  offset="0" style="stop-color:#FD6921"/>
	<stop  offset="1" style="stop-color:#FBB23E"/>
</linearGradient>
<rect x="45.5" y="100.244" fill="url(#SVGID_3_)" width="44.472" height="47.96"/>
<linearGradient id="SVGID_4_" gradientUnits="userSpaceOnUse" x1="-83.9727" y1="178.7754" x2="-39.5" y2="178.7754" gradientTransform="matrix(1 0 0 -1 194 303)">
	<stop  offset="0" style="stop-color:#FD6921"/>
	<stop  offset="1" style="stop-color:#FBB23E"/>
</linearGradient>
<rect x="110.027" y="100.244" fill="url(#SVGID_4_)" width="44.473" height="47.96"/>
</svg>
