<?xml version="1.0" encoding="utf-8"?>
<!-- Generator: Adobe Illustrator 13.0.0, SVG Export Plug-In . SVG Version: 6.00 Build 14948)  -->
<!DOCTYPE svg PUBLIC "-//W3C//DTD SVG 1.1//EN" "http://www.w3.org/Graphics/SVG/1.1/DTD/svg11.dtd">
<svg version="1.1" id="Layer_1" xmlns="http://www.w3.org/2000/svg" xmlns:xlink="http://www.w3.org/1999/xlink" x="0px" y="0px"
	 width="200px" height="200px" viewBox="0 0 200 200" enable-background="new 0 0 200 200" xml:space="preserve">
<title>Asset 38</title>
<g>
	<g>
		
			<linearGradient id="SVGID_1_" gradientUnits="userSpaceOnUse" x1="-191.1758" y1="278.6338" x2="-13.1761" y2="139.634" gradientTransform="matrix(1 0 0 -1 194 303)">
			<stop  offset="0" style="stop-color:#FD6921"/>
			<stop  offset="1" style="stop-color:#FBB23E"/>
		</linearGradient>
		<path fill="url(#SVGID_1_)" d="M175,30.5H25c-13.807,0-25,11.193-25,25V145c0,13.807,11.193,25,25,25h150
			c13.807,0,25-11.193,25-25V55.5C200,41.693,188.807,30.5,175,30.5z M25,47.156h150c4.602,0.018,8.327,3.742,8.344,8.344v9H16.656
			v-9C16.674,50.898,20.398,47.174,25,47.156z M183.344,145c-0.018,4.602-3.742,8.326-8.344,8.344H25
			c-4.601-0.018-8.327-3.742-8.344-8.344V98.5h166.688V145L183.344,145z"/>
	</g>
</g>
<linearGradient id="SVGID_2_" gradientUnits="userSpaceOnUse" x1="-216.3472" y1="246.4004" x2="-38.3472" y2="107.4004" gradientTransform="matrix(1 0 0 -1 194 303)">
	<stop  offset="0" style="stop-color:#FD6921"/>
	<stop  offset="1" style="stop-color:#FBB23E"/>
</linearGradient>
<rect x="29.5" y="113.5" fill="url(#SVGID_2_)" width="51" height="7"/>
<linearGradient id="SVGID_3_" gradientUnits="userSpaceOnUse" x1="-216.7217" y1="245.9199" x2="-38.7218" y2="106.92" gradientTransform="matrix(1 0 0 -1 194 303)">
	<stop  offset="0" style="stop-color:#FD6921"/>
	<stop  offset="1" style="stop-color:#FBB23E"/>
</linearGradient>
<rect x="29.5" y="129.5" fill="url(#SVGID_3_)" width="90" height="7"/>
<linearGradient id="SVGID_4_" gradientUnits="userSpaceOnUse" x1="-180.8242" y1="291.8877" x2="-2.8254" y2="152.8886" gradientTransform="matrix(1 0 0 -1 194 303)">
	<stop  offset="0" style="stop-color:#FD6921"/>
	<stop  offset="1" style="stop-color:#FBB23E"/>
</linearGradient>
<circle fill="url(#SVGID_4_)" cx="163.5" cy="128.5" r="9"/>
</svg>
