<?xml version="1.0" encoding="utf-8"?>
<!-- Generator: Adobe Illustrator 13.0.0, SVG Export Plug-In . SVG Version: 6.00 Build 14948)  -->
<!DOCTYPE svg PUBLIC "-//W3C//DTD SVG 1.1//EN" "http://www.w3.org/Graphics/SVG/1.1/DTD/svg11.dtd">
<svg version="1.1" id="Layer_1" xmlns="http://www.w3.org/2000/svg" xmlns:xlink="http://www.w3.org/1999/xlink" x="0px" y="0px"
	 width="200px" height="200px" viewBox="0 0 200 200" enable-background="new 0 0 200 200" xml:space="preserve">
<title>Asset 38</title>
<linearGradient id="SVGID_1_" gradientUnits="userSpaceOnUse" x1="-183.7603" y1="297.25" x2="-3.7604" y2="109.2502" gradientTransform="matrix(1 0 0 -1 194 303)">
	<stop  offset="0" style="stop-color:#FD6921"/>
	<stop  offset="1" style="stop-color:#FBB23E"/>
</linearGradient>
<path fill="url(#SVGID_1_)" d="M175,2H25C11.193,2,0,13.193,0,27v64.5v34V172c0,13.807,11.193,25,25,25h150
	c13.807,0,25-11.193,25-25v-46.5v-34V27C200,13.193,188.807,2,175,2z M183.344,125.5V172c-0.018,4.602-3.742,8.326-8.344,8.344H25
	c-4.601-0.018-8.327-3.742-8.344-8.344v-46.5v-34V27c0.017-4.601,3.743-8.327,8.344-8.344h150c4.602,0.017,8.326,3.743,8.344,8.344
	v64.5V125.5z"/>
<linearGradient id="SVGID_2_" gradientUnits="userSpaceOnUse" x1="-226.9434" y1="255.9043" x2="-46.9435" y2="67.9044" gradientTransform="matrix(1 0 0 -1 194 303)">
	<stop  offset="0" style="stop-color:#FD6921"/>
	<stop  offset="1" style="stop-color:#FBB23E"/>
</linearGradient>
<rect x="47.167" y="119.833" fill="url(#SVGID_2_)" width="18" height="40.667"/>
<linearGradient id="SVGID_3_" gradientUnits="userSpaceOnUse" x1="-205.4497" y1="276.4844" x2="-25.4494" y2="88.4841" gradientTransform="matrix(1 0 0 -1 194 303)">
	<stop  offset="0" style="stop-color:#FD6921"/>
	<stop  offset="1" style="stop-color:#FBB23E"/>
</linearGradient>
<circle fill="url(#SVGID_3_)" cx="56.833" cy="97.833" r="9.667"/>
<linearGradient id="SVGID_4_" gradientUnits="userSpaceOnUse" x1="-197.3203" y1="284.2666" x2="-17.3204" y2="96.2667" gradientTransform="matrix(1 0 0 -1 194 303)">
	<stop  offset="0" style="stop-color:#FD6921"/>
	<stop  offset="1" style="stop-color:#FBB23E"/>
</linearGradient>
<rect x="91.5" y="93.833" fill="url(#SVGID_4_)" width="18" height="66.667"/>
<linearGradient id="SVGID_5_" gradientUnits="userSpaceOnUse" x1="-168.832" y1="311.5439" x2="11.168" y2="123.5439" gradientTransform="matrix(1 0 0 -1 194 303)">
	<stop  offset="0" style="stop-color:#FD6921"/>
	<stop  offset="1" style="stop-color:#FBB23E"/>
</linearGradient>
<circle fill="url(#SVGID_5_)" cx="101.167" cy="70.833" r="9.667"/>
<linearGradient id="SVGID_6_" gradientUnits="userSpaceOnUse" x1="-170.3975" y1="310.0439" x2="9.6024" y2="122.044" gradientTransform="matrix(1 0 0 -1 194 303)">
	<stop  offset="0" style="stop-color:#FD6921"/>
	<stop  offset="1" style="stop-color:#FBB23E"/>
</linearGradient>
<rect x="134.167" y="75.167" fill="url(#SVGID_6_)" width="18" height="85.333"/>
<linearGradient id="SVGID_7_" gradientUnits="userSpaceOnUse" x1="-136.249" y1="342.7402" x2="43.751" y2="154.7402" gradientTransform="matrix(1 0 0 -1 194 303)">
	<stop  offset="0" style="stop-color:#FD6921"/>
	<stop  offset="1" style="stop-color:#FBB23E"/>
</linearGradient>
<circle fill="url(#SVGID_7_)" cx="143.833" cy="50.167" r="9.667"/>
</svg>
