<?xml version="1.0" encoding="utf-8"?>
<!-- Generator: Adobe Illustrator 13.0.0, SVG Export Plug-In . SVG Version: 6.00 Build 14948)  -->
<!DOCTYPE svg PUBLIC "-//W3C//DTD SVG 1.1//EN" "http://www.w3.org/Graphics/SVG/1.1/DTD/svg11.dtd">
<svg version="1.1" id="Layer_1" xmlns="http://www.w3.org/2000/svg" xmlns:xlink="http://www.w3.org/1999/xlink" x="0px" y="0px"
	 width="200px" height="200px" viewBox="0 0 200 200" enable-background="new 0 0 200 200" xml:space="preserve">
<title>Asset 69</title>
<linearGradient id="SVGID_1_" gradientUnits="userSpaceOnUse" x1="-157.6206" y1="294.8535" x2="-28.5333" y2="115.7323" gradientTransform="matrix(1 0 0 -1 194 303)">
	<stop  offset="0" style="stop-color:#FD6921"/>
	<stop  offset="1" style="stop-color:#FBB23E"/>
</linearGradient>
<path fill="url(#SVGID_1_)" d="M159.632,8.447H44.696c-8.739,0.004-15.829,7.094-15.833,15.831V174.58
	c0.004,8.736,7.094,15.826,15.833,15.831h114.936c8.736-0.005,15.826-7.095,15.83-15.831V24.278
	C175.458,15.542,168.368,8.452,159.632,8.447z M159.632,176.43H44.696c-1.019,0-1.85-0.834-1.852-1.85V24.278
	c0.002-1.023,0.825-1.848,1.852-1.85h114.936c1.022,0.002,1.847,0.827,1.849,1.85V174.58
	C161.479,175.596,160.646,176.43,159.632,176.43z"/>
<linearGradient id="SVGID_2_" gradientUnits="userSpaceOnUse" x1="-187.1782" y1="273.5566" x2="-58.1758" y2="94.5532" gradientTransform="matrix(1 0 0 -1 194 303)">
	<stop  offset="0" style="stop-color:#FD6921"/>
	<stop  offset="1" style="stop-color:#FBB23E"/>
</linearGradient>
<path fill="url(#SVGID_2_)" d="M106.584,154.748v-0.002h-8.841c-3.863,0.009-6.985,3.13-6.992,6.992
	c0.005,3.854,3.123,6.986,6.992,6.988l8.841,0.004c3.868-0.006,6.986-3.141,6.989-6.992
	C113.566,157.876,110.443,154.755,106.584,154.748z"/>
<linearGradient id="SVGID_3_" gradientUnits="userSpaceOnUse" x1="-152.9546" y1="298.2168" x2="-23.9548" y2="119.2171" gradientTransform="matrix(1 0 0 -1 194 303)">
	<stop  offset="0" style="stop-color:#FD6921"/>
	<stop  offset="1" style="stop-color:#FBB23E"/>
</linearGradient>
<path fill="url(#SVGID_3_)" d="M144.337,33.444v-0.002h-84.35c-3.486,0.004-6.298,2.827-6.303,6.303v99.687
	c0,3.479,2.823,6.301,6.303,6.303h84.35c3.481-0.002,6.295-2.821,6.302-6.303l0.002-99.687
	C150.637,36.269,147.825,33.446,144.337,33.444z M138.035,46.048v87.081H66.291V46.048H138.035z"/>
</svg>
