<?xml version="1.0" encoding="utf-8"?>
<!-- Generator: Adobe Illustrator 13.0.0, SVG Export Plug-In . SVG Version: 6.00 Build 14948)  -->
<!DOCTYPE svg PUBLIC "-//W3C//DTD SVG 1.1//EN" "http://www.w3.org/Graphics/SVG/1.1/DTD/svg11.dtd">
<svg version="1.1" id="Layer_1" xmlns="http://www.w3.org/2000/svg" xmlns:xlink="http://www.w3.org/1999/xlink" x="0px" y="0px"
	 width="200px" height="200px" viewBox="0 0 200 200" enable-background="new 0 0 200 200" xml:space="preserve">
<title>Asset 38</title>
<linearGradient id="SVGID_1_" gradientUnits="userSpaceOnUse" x1="-190.2979" y1="288.7656" x2="-17.298" y2="111.7656" gradientTransform="matrix(1 0 0 -1 194 303)">
	<stop  offset="0" style="stop-color:#FD6921"/>
	<stop  offset="1" style="stop-color:#FBB23E"/>
</linearGradient>
<rect x="40.009" y="48.06" fill="url(#SVGID_1_)" width="37.491" height="45"/>
<linearGradient id="SVGID_2_" gradientUnits="userSpaceOnUse" x1="-148.2837" y1="329.8311" x2="24.7163" y2="152.831" gradientTransform="matrix(1 0 0 -1 194 303)">
	<stop  offset="0" style="stop-color:#FD6921"/>
	<stop  offset="1" style="stop-color:#FBB23E"/>
</linearGradient>
<rect x="92.49" y="48.06" fill="url(#SVGID_2_)" width="67.5" height="14.99"/>
<linearGradient id="SVGID_3_" gradientUnits="userSpaceOnUse" x1="-163.27" y1="315.1826" x2="9.7301" y2="138.1825" gradientTransform="matrix(1 0 0 -1 194 303)">
	<stop  offset="0" style="stop-color:#FD6921"/>
	<stop  offset="1" style="stop-color:#FBB23E"/>
</linearGradient>
<rect x="92.49" y="78.041" fill="url(#SVGID_3_)" width="67.5" height="14.99"/>
<linearGradient id="SVGID_4_" gradientUnits="userSpaceOnUse" x1="-191.6836" y1="287.4111" x2="-18.6843" y2="110.4118" gradientTransform="matrix(1 0 0 -1 194 303)">
	<stop  offset="0" style="stop-color:#FD6921"/>
	<stop  offset="1" style="stop-color:#FBB23E"/>
</linearGradient>
<rect x="40.009" y="108.05" fill="url(#SVGID_4_)" width="120.009" height="14.991"/>
<linearGradient id="SVGID_5_" gradientUnits="userSpaceOnUse" x1="-206.0801" y1="273.3408" x2="-33.0801" y2="96.3408" gradientTransform="matrix(1 0 0 -1 194 303)">
	<stop  offset="0" style="stop-color:#FD6921"/>
	<stop  offset="1" style="stop-color:#FBB23E"/>
</linearGradient>
<rect x="40.009" y="136.85" fill="url(#SVGID_5_)" width="120.009" height="14.991"/>
<linearGradient id="SVGID_6_" gradientUnits="userSpaceOnUse" x1="-183.6704" y1="295.2441" x2="-10.6704" y2="118.2441" gradientTransform="matrix(1 0 0 -1 194 303)">
	<stop  offset="0" style="stop-color:#FD6921"/>
	<stop  offset="1" style="stop-color:#FBB23E"/>
</linearGradient>
<path fill="url(#SVGID_6_)" d="M167.5,11.75h-135c-12.426,0-22.5,10.074-22.5,22.5V92.3V122.9v41.85c0,12.426,10.074,22.5,22.5,22.5
	h135c12.426,0,22.5-10.074,22.5-22.5V122.9V92.3V34.25C190,21.824,179.926,11.75,167.5,11.75z M175.01,122.9v41.85
	c-0.017,4.143-3.367,7.493-7.51,7.51h-135c-4.141-0.017-7.495-3.367-7.509-7.51V122.9V92.3V34.25
	c0.015-4.141,3.368-7.495,7.509-7.509h135c4.143,0.015,7.493,3.368,7.51,7.509V92.3V122.9z"/>
</svg>
