<?xml version="1.0" encoding="utf-8"?>
<!-- Generator: Adobe Illustrator 13.0.0, SVG Export Plug-In . SVG Version: 6.00 Build 14948)  -->
<!DOCTYPE svg PUBLIC "-//W3C//DTD SVG 1.1//EN" "http://www.w3.org/Graphics/SVG/1.1/DTD/svg11.dtd">
<svg version="1.1" id="Layer_1" xmlns="http://www.w3.org/2000/svg" xmlns:xlink="http://www.w3.org/1999/xlink" x="0px" y="0px"
	 width="200px" height="200px" viewBox="0 0 200 200" enable-background="new 0 0 200 200" xml:space="preserve">
<title>Asset 75</title>
<g id="Layer_2">
	<g id="Layer_1-2">
		
			<linearGradient id="SVGID_1_" gradientUnits="userSpaceOnUse" x1="-197.5088" y1="281.7764" x2="-62.5088" y2="79.7764" gradientTransform="matrix(1 0 0 -1 194 303)">
			<stop  offset="0" style="stop-color:#FD6921"/>
			<stop  offset="1" style="stop-color:#FBB23E"/>
		</linearGradient>
		<path fill="url(#SVGID_1_)" d="M100,183.313c-6.806,0-13.318-2.775-18.031-7.688H62c9.634,20.986,34.457,30.189,55.443,20.557
			c9.091-4.174,16.384-11.467,20.557-20.557h-19.969C113.318,180.535,106.807,183.313,100,183.313z"/>
		
			<linearGradient id="SVGID_2_" gradientUnits="userSpaceOnUse" x1="-178.8823" y1="294.2227" x2="-43.8827" y2="92.2232" gradientTransform="matrix(1 0 0 -1 194 303)">
			<stop  offset="0" style="stop-color:#FD6921"/>
			<stop  offset="1" style="stop-color:#FBB23E"/>
		</linearGradient>
		<path fill="url(#SVGID_2_)" d="M175.125,128.125v-26.188c-0.047-38.237-28.783-70.352-66.781-74.625V8.344
			C108.344,3.736,104.607,0,100,0c-4.608,0-8.344,3.736-8.344,8.344v18.969c-38.003,4.274-66.75,36.382-66.813,74.625v26.188
			c-0.188,13.063-2.094,22.5-16.688,22.5v16.72h183.688v-16.781C177.25,150.563,175.313,141.125,175.125,128.125z M158.438,117.188
			v33.375H41.563v-48.625c0.007-32.272,26.177-58.432,58.451-58.422c32.263,0.007,58.417,26.161,58.423,58.422V117.188
			L158.438,117.188z"/>
	</g>
</g>
</svg>
