<?xml version="1.0" encoding="utf-8"?>
<!-- Generator: Adobe Illustrator 13.0.0, SVG Export Plug-In . SVG Version: 6.00 Build 14948)  -->
<!DOCTYPE svg PUBLIC "-//W3C//DTD SVG 1.1//EN" "http://www.w3.org/Graphics/SVG/1.1/DTD/svg11.dtd">
<svg version="1.1" id="Layer_1" xmlns="http://www.w3.org/2000/svg" xmlns:xlink="http://www.w3.org/1999/xlink" x="0px" y="0px"
	 width="200px" height="200px" viewBox="0 0 200 200" enable-background="new 0 0 200 200" xml:space="preserve">
<title>Home, Website</title>
<linearGradient id="SVGID_1_" gradientUnits="userSpaceOnUse" x1="34.5845" y1="22.1421" x2="154.5845" y2="165.1421">
	<stop  offset="0" style="stop-color:#FD6921"/>
	<stop  offset="1" style="stop-color:#FBB23E"/>
</linearGradient>
<path fill="url(#SVGID_1_)" d="M99.5,4.5c-52.467,0-95,42.533-95,95s42.533,95,95,95s95-42.533,95-95S151.967,4.5,99.5,4.5z
	 M99.5,184.5c-46.944,0-85-38.057-85-85c0-46.944,38.056-85,85-85c46.943,0,85,38.056,85,85C184.5,146.443,146.443,184.5,99.5,184.5
	z"/>
<linearGradient id="SVGID_2_" gradientUnits="userSpaceOnUse" x1="31.4067" y1="24.8086" x2="151.4067" y2="167.8086">
	<stop  offset="0" style="stop-color:#FD6921"/>
	<stop  offset="1" style="stop-color:#FBB23E"/>
</linearGradient>
<polygon fill="url(#SVGID_2_)" points="84.63,62.76 84.63,136.24 134.37,99.5 "/>
<title>Asset 69</title>
</svg>
