<?xml version="1.0" encoding="utf-8"?>
<!-- Generator: Adobe Illustrator 13.0.0, SVG Export Plug-In . SVG Version: 6.00 Build 14948)  -->
<!DOCTYPE svg PUBLIC "-//W3C//DTD SVG 1.1//EN" "http://www.w3.org/Graphics/SVG/1.1/DTD/svg11.dtd">
<svg version="1.1" id="Layer_1" xmlns="http://www.w3.org/2000/svg" xmlns:xlink="http://www.w3.org/1999/xlink" x="0px" y="0px"
	 width="200px" height="200px" viewBox="0 0 200 200" enable-background="new 0 0 200 200" xml:space="preserve">
<title>Asset 55</title>
<g id="Layer_2">
	<g id="Layer_1-2">
		
			<linearGradient id="SVGID_1_" gradientUnits="userSpaceOnUse" x1="-192.8545" y1="278.5674" x2="-35.8543" y2="92.5672" gradientTransform="matrix(1 0 0 -1 194 303)">
			<stop  offset="0" style="stop-color:#FD6921"/>
			<stop  offset="1" style="stop-color:#FBB23E"/>
		</linearGradient>
		<path fill="url(#SVGID_1_)" d="M177.91,107.091c-3.903,0-7.066,3.165-7.066,7.066v49.593c-0.015,3.911-3.181,7.077-7.093,7.092
			H36.25c-3.911-0.015-7.078-3.181-7.092-7.092V36.248c0.014-3.911,3.181-7.078,7.092-7.092h49.593
			c3.91-0.24,6.885-3.604,6.645-7.513c-0.219-3.576-3.07-6.426-6.645-6.646H36.25c-11.736,0-21.25,9.514-21.25,21.25V163.75
			C15,175.484,24.514,185,36.25,185h127.501c11.735,0,21.25-9.516,21.25-21.25v-49.593c0-3.903-3.164-7.067-7.065-7.067
			C177.93,107.091,177.918,107.091,177.91,107.091z"/>
		
			<linearGradient id="SVGID_2_" gradientUnits="userSpaceOnUse" x1="-145.5239" y1="318.5186" x2="11.4761" y2="132.5186" gradientTransform="matrix(1 0 0 -1 194 303)">
			<stop  offset="0" style="stop-color:#FD6921"/>
			<stop  offset="1" style="stop-color:#FBB23E"/>
		</linearGradient>
		<path fill="url(#SVGID_2_)" d="M177.91,14.998h-49.567c-3.909-0.24-7.272,2.735-7.512,6.646c-0.24,3.909,2.733,7.273,6.644,7.513
			c0.291,0.017,0.58,0.017,0.867,0h32.486l-94.163,94.166c-2.61,2.921-2.358,7.403,0.562,10.014c2.692,2.406,6.76,2.406,9.452,0
			l94.167-94.165v32.487c-0.24,3.91,2.734,7.273,6.646,7.512c3.908,0.239,7.271-2.736,7.512-6.646c0.02-0.289,0.02-0.578,0-0.867
			V22.09c0.018-3.902-3.136-7.078-7.039-7.092C177.945,14.998,177.93,14.998,177.91,14.998z"/>
	</g>
</g>
</svg>
