<?xml version="1.0" encoding="utf-8"?>
<!-- Generator: Adobe Illustrator 13.0.0, SVG Export Plug-In . SVG Version: 6.00 Build 14948)  -->
<!DOCTYPE svg PUBLIC "-//W3C//DTD SVG 1.1//EN" "http://www.w3.org/Graphics/SVG/1.1/DTD/svg11.dtd">
<svg version="1.1" id="Layer_1" xmlns="http://www.w3.org/2000/svg" xmlns:xlink="http://www.w3.org/1999/xlink" x="0px" y="0px"
	 width="200px" height="200px" viewBox="0 0 200 200" enable-background="new 0 0 200 200" xml:space="preserve">
<title>Asset 67</title>
<g id="Layer_2">
	<g id="Layer_1-2">
		
			<linearGradient id="SVGID_1_" gradientUnits="userSpaceOnUse" x1="-163.7222" y1="294.3301" x2="-37.7221" y2="129.33" gradientTransform="matrix(1 0 0 -1 194 303)">
			<stop  offset="0" style="stop-color:#FD6921"/>
			<stop  offset="1" style="stop-color:#FBB23E"/>
		</linearGradient>
		<path fill="url(#SVGID_1_)" d="M185,73.688c-5.201-3.133-7.74-9.301-6.25-15.188c4.195-16.367-5.673-33.037-22.04-37.231
			c-5-1.282-10.243-1.277-15.241,0.013c-5.877,1.486-12.033-1.053-15.156-6.25C117.691,0.499,98.923-4.293,84.393,4.327
			c-4.409,2.615-8.089,6.296-10.704,10.704c-3.119,5.218-9.299,7.762-15.188,6.25c-16.369-4.19-33.035,5.682-37.225,22.051
			C19.999,48.318,20,53.546,21.281,58.531c1.497,5.878-1.045,12.042-6.25,15.156c-14.532,8.621-19.324,27.389-10.703,41.92
			c2.615,4.41,6.295,8.09,10.704,10.705c5.21,3.125,7.751,9.301,6.25,15.188c-4.19,16.369,5.682,33.035,22.051,37.225
			c4.986,1.277,10.214,1.275,15.199-0.006c5.877-1.486,12.034,1.053,15.156,6.25c8.621,14.532,27.389,19.324,41.921,10.704
			c4.408-2.614,8.089-6.296,10.703-10.704c3.133-5.201,9.302-7.74,15.188-6.25c16.369,4.19,33.035-5.682,37.227-22.051
			c1.275-4.986,1.273-10.214-0.006-15.199c-1.486-5.877,1.053-12.033,6.25-15.156c14.53-8.621,19.322-27.389,10.701-41.919
			c-2.613-4.409-6.295-8.089-10.701-10.704L185,73.688L185,73.688z M176.375,111.75c-11.613,7.021-17.252,20.824-13.875,33.969
			c1.863,7.309-2.551,14.743-9.859,16.606c-2.229,0.569-4.566,0.563-6.797-0.013c-13.176-3.308-26.961,2.404-33.938,14.063
			c-3.811,6.489-12.158,8.662-18.647,4.854c-2.005-1.178-3.676-2.849-4.853-4.854c-5.551-9.297-15.579-14.992-26.406-15
			c-2.552-0.002-5.093,0.324-7.563,0.969c-7.309,1.863-14.743-2.551-16.606-9.859c-0.569-2.229-0.564-4.566,0.013-6.797
			c3.316-13.176-2.398-26.969-14.063-33.938c-6.489-3.811-8.662-12.158-4.853-18.647c1.177-2.005,2.848-3.676,4.853-4.853
			c11.673-6.975,17.38-20.789,14.031-33.969c-1.844-7.331,2.604-14.769,9.936-16.613c2.217-0.558,4.538-0.551,6.752,0.019
			c13.167,3.301,26.941-2.412,33.906-14.063c3.81-6.489,12.158-8.662,18.646-4.853c2.007,1.177,3.677,2.848,4.854,4.853
			c6.975,11.673,20.789,17.38,33.969,14.031c7.328-1.857,14.773,2.577,16.631,9.904c0.563,2.216,0.561,4.537-0.006,6.752
			c-3.344,13.171,2.363,26.974,14.031,33.938c6.488,3.81,8.662,12.158,4.853,18.647c-1.177,2.004-2.848,3.676-4.853,4.853
			L176.375,111.75L176.375,111.75z"/>
		
			<linearGradient id="SVGID_2_" gradientUnits="userSpaceOnUse" x1="-163.7437" y1="294.3135" x2="-37.744" y2="129.3139" gradientTransform="matrix(1 0 0 -1 194 303)">
			<stop  offset="0" style="stop-color:#FD6921"/>
			<stop  offset="1" style="stop-color:#FBB23E"/>
		</linearGradient>
		<path fill="url(#SVGID_2_)" d="M100,57.719c-23.351,0-42.281,18.93-42.281,42.281c0,23.352,18.93,42.281,42.281,42.281
			c23.352,0,42.281-18.93,42.281-42.281C142.247,76.663,123.337,57.753,100,57.719z M100,125.375
			c-14.014,0-25.375-11.361-25.375-25.375c0-14.014,11.361-25.375,25.375-25.375c14.014,0,25.375,11.361,25.375,25.375l0,0
			C125.357,114.007,114.007,125.357,100,125.375z"/>
	</g>
</g>
</svg>
