<?xml version="1.0" encoding="utf-8"?>
<!-- Generator: Adobe Illustrator 13.0.0, SVG Export Plug-In . SVG Version: 6.00 Build 14948)  -->
<!DOCTYPE svg PUBLIC "-//W3C//DTD SVG 1.1//EN" "http://www.w3.org/Graphics/SVG/1.1/DTD/svg11.dtd">
<svg version="1.1" id="Layer_1" xmlns="http://www.w3.org/2000/svg" xmlns:xlink="http://www.w3.org/1999/xlink" x="0px" y="0px"
	 width="200px" height="200px" viewBox="0 0 200 200" enable-background="new 0 0 200 200" xml:space="preserve">
<title>Asset 38</title>
<linearGradient id="SVGID_1_" gradientUnits="userSpaceOnUse" x1="-212.0908" y1="273.3984" x2="-36.0907" y2="88.3983" gradientTransform="matrix(1 0 0 -1 194 303)">
	<stop  offset="0" style="stop-color:#FD6921"/>
	<stop  offset="1" style="stop-color:#FBB23E"/>
</linearGradient>
<rect x="67.503" y="128.844" fill="url(#SVGID_1_)" width="33.487" height="16.656"/>
<linearGradient id="SVGID_2_" gradientUnits="userSpaceOnUse" x1="-229.8579" y1="256.4961" x2="-53.8581" y2="71.4963" gradientTransform="matrix(1 0 0 -1 194 303)">
	<stop  offset="0" style="stop-color:#FD6921"/>
	<stop  offset="1" style="stop-color:#FBB23E"/>
</linearGradient>
<rect x="33.656" y="128.844" fill="url(#SVGID_2_)" width="33.487" height="16.656"/>
<linearGradient id="SVGID_3_" gradientUnits="userSpaceOnUse" x1="-65.2163" y1="192.0059" x2="-18.2163" y2="219.0059" gradientTransform="matrix(1 0 0 -1 194 303)">
	<stop  offset="0" style="stop-color:#FD6921"/>
	<stop  offset="1" style="stop-color:#FBB23E"/>
</linearGradient>
<rect x="66.472" y="128.844" fill="url(#SVGID_3_)" width="33.487" height="16.656"/>
<linearGradient id="SVGID_4_" gradientUnits="userSpaceOnUse" x1="-229.8579" y1="256.4961" x2="-53.8581" y2="71.4963" gradientTransform="matrix(1 0 0 -1 194 303)">
	<stop  offset="0" style="stop-color:#FD6921"/>
	<stop  offset="1" style="stop-color:#FBB23E"/>
</linearGradient>
<rect x="33.656" y="128.844" fill="url(#SVGID_4_)" width="33.487" height="16.656"/>
<linearGradient id="SVGID_5_" gradientUnits="userSpaceOnUse" x1="-177.3154" y1="306.4814" x2="-1.3156" y2="121.4816" gradientTransform="matrix(1 0 0 -1 194 303)">
	<stop  offset="0" style="stop-color:#FD6921"/>
	<stop  offset="1" style="stop-color:#FBB23E"/>
</linearGradient>
<rect x="134" y="128.844" fill="url(#SVGID_5_)" width="32.99" height="16.656"/>
<linearGradient id="SVGID_6_" gradientUnits="userSpaceOnUse" x1="-194.8198" y1="289.8311" x2="-18.8181" y2="104.8293" gradientTransform="matrix(1 0 0 -1 194 303)">
	<stop  offset="0" style="stop-color:#FD6921"/>
	<stop  offset="1" style="stop-color:#FBB23E"/>
</linearGradient>
<rect x="100.656" y="128.844" fill="url(#SVGID_6_)" width="32.99" height="16.656"/>
<linearGradient id="SVGID_7_" gradientUnits="userSpaceOnUse" x1="-48.7734" y1="163.3848" x2="-1.7747" y2="190.3841" gradientTransform="matrix(1 0 0 -1 194 303)">
	<stop  offset="0" style="stop-color:#FD6921"/>
	<stop  offset="1" style="stop-color:#FBB23E"/>
</linearGradient>
<rect x="132.984" y="128.844" fill="url(#SVGID_7_)" width="32.99" height="16.656"/>
<linearGradient id="SVGID_8_" gradientUnits="userSpaceOnUse" x1="-194.8198" y1="289.8311" x2="-18.8181" y2="104.8293" gradientTransform="matrix(1 0 0 -1 194 303)">
	<stop  offset="0" style="stop-color:#FD6921"/>
	<stop  offset="1" style="stop-color:#FBB23E"/>
</linearGradient>
<rect x="100.656" y="128.844" fill="url(#SVGID_8_)" width="32.99" height="16.656"/>
<linearGradient id="SVGID_9_" gradientUnits="userSpaceOnUse" x1="-194.6123" y1="290.0264" x2="-18.6123" y2="105.0264" gradientTransform="matrix(1 0 0 -1 194 303)">
	<stop  offset="0" style="stop-color:#FD6921"/>
	<stop  offset="1" style="stop-color:#FBB23E"/>
</linearGradient>
<rect x="67.503" y="93.844" fill="url(#SVGID_9_)" width="33.487" height="16.656"/>
<linearGradient id="SVGID_10_" gradientUnits="userSpaceOnUse" x1="-212.3789" y1="273.124" x2="-36.3789" y2="88.124" gradientTransform="matrix(1 0 0 -1 194 303)">
	<stop  offset="0" style="stop-color:#FD6921"/>
	<stop  offset="1" style="stop-color:#FBB23E"/>
</linearGradient>
<rect x="33.656" y="93.844" fill="url(#SVGID_10_)" width="33.487" height="16.656"/>
<linearGradient id="SVGID_11_" gradientUnits="userSpaceOnUse" x1="-80.334" y1="218.3213" x2="-33.3352" y2="245.3206" gradientTransform="matrix(1 0 0 -1 194 303)">
	<stop  offset="0" style="stop-color:#FD6921"/>
	<stop  offset="1" style="stop-color:#FBB23E"/>
</linearGradient>
<rect x="66.472" y="93.844" fill="url(#SVGID_11_)" width="33.487" height="16.656"/>
<linearGradient id="SVGID_12_" gradientUnits="userSpaceOnUse" x1="-212.3789" y1="273.124" x2="-36.3789" y2="88.124" gradientTransform="matrix(1 0 0 -1 194 303)">
	<stop  offset="0" style="stop-color:#FD6921"/>
	<stop  offset="1" style="stop-color:#FBB23E"/>
</linearGradient>
<rect x="33.656" y="93.844" fill="url(#SVGID_12_)" width="33.487" height="16.656"/>
<linearGradient id="SVGID_13_" gradientUnits="userSpaceOnUse" x1="-159.8369" y1="323.1094" x2="16.1629" y2="138.1095" gradientTransform="matrix(1 0 0 -1 194 303)">
	<stop  offset="0" style="stop-color:#FD6921"/>
	<stop  offset="1" style="stop-color:#FBB23E"/>
</linearGradient>
<rect x="134" y="93.844" fill="url(#SVGID_13_)" width="32.99" height="16.656"/>
<linearGradient id="SVGID_14_" gradientUnits="userSpaceOnUse" x1="-177.3408" y1="306.46" x2="-1.3394" y2="121.4583" gradientTransform="matrix(1 0 0 -1 194 303)">
	<stop  offset="0" style="stop-color:#FD6921"/>
	<stop  offset="1" style="stop-color:#FBB23E"/>
</linearGradient>
<rect x="100.656" y="93.844" fill="url(#SVGID_14_)" width="32.99" height="16.656"/>
<linearGradient id="SVGID_15_" gradientUnits="userSpaceOnUse" x1="-63.8921" y1="189.7002" x2="-16.8908" y2="216.7009" gradientTransform="matrix(1 0 0 -1 194 303)">
	<stop  offset="0" style="stop-color:#FD6921"/>
	<stop  offset="1" style="stop-color:#FBB23E"/>
</linearGradient>
<rect x="132.984" y="93.844" fill="url(#SVGID_15_)" width="32.99" height="16.656"/>
<linearGradient id="SVGID_16_" gradientUnits="userSpaceOnUse" x1="-177.3408" y1="306.46" x2="-1.3394" y2="121.4583" gradientTransform="matrix(1 0 0 -1 194 303)">
	<stop  offset="0" style="stop-color:#FD6921"/>
	<stop  offset="1" style="stop-color:#FBB23E"/>
</linearGradient>
<rect x="100.656" y="93.844" fill="url(#SVGID_16_)" width="32.99" height="16.656"/>
<linearGradient id="SVGID_17_" gradientUnits="userSpaceOnUse" x1="-168.4346" y1="314.9297" x2="7.5649" y2="129.9303" gradientTransform="matrix(1 0 0 -1 194 303)">
	<stop  offset="0" style="stop-color:#FD6921"/>
	<stop  offset="1" style="stop-color:#FBB23E"/>
</linearGradient>
<rect x="33.344" y="58" fill="url(#SVGID_17_)" width="133.344" height="16.656"/>
<linearGradient id="SVGID_18_" gradientUnits="userSpaceOnUse" x1="-185.0093" y1="299.1631" x2="-9.0094" y2="114.1632" gradientTransform="matrix(1 0 0 -1 194 303)">
	<stop  offset="0" style="stop-color:#FD6921"/>
	<stop  offset="1" style="stop-color:#FBB23E"/>
</linearGradient>
<path fill="url(#SVGID_18_)" d="M175,2H25C11.193,2,0,13.193,0,27v64.5v34V172c0,13.807,11.193,25,25,25h150
	c13.807,0,25-11.193,25-25v-46.5v-34V27C200,13.193,188.807,2,175,2z M183.344,125.5V172c-0.018,4.602-3.742,8.326-8.344,8.344H25
	c-4.601-0.018-8.327-3.742-8.344-8.344v-46.5v-34V27c0.017-4.601,3.743-8.327,8.344-8.344h150c4.602,0.017,8.326,3.743,8.344,8.344
	v64.5V125.5z"/>
</svg>
