<?xml version="1.0" encoding="utf-8"?>
<!-- Generator: Adobe Illustrator 13.0.0, SVG Export Plug-In . SVG Version: 6.00 Build 14948)  -->
<!DOCTYPE svg PUBLIC "-//W3C//DTD SVG 1.1//EN" "http://www.w3.org/Graphics/SVG/1.1/DTD/svg11.dtd">
<svg version="1.1" id="Layer_1" xmlns="http://www.w3.org/2000/svg" xmlns:xlink="http://www.w3.org/1999/xlink" x="0px" y="0px"
	 width="200px" height="200px" viewBox="0 0 200 200" enable-background="new 0 0 200 200" xml:space="preserve">
<path fill="#F7542E" d="M197.902,45.613c-0.709-1.585-2.264-2.528-3.893-2.528c-0.57,0-1.152,0.117-1.708,0.359
	c-3.829,1.385-7.726,2.576-11.673,3.569c3.688-4.112,7.117-8.453,10.266-12.997c0.469-0.73,0.698-1.533,0.698-2.34
	c0-0.699-0.171-1.404-0.521-2.043c-0.778-1.415-2.238-2.218-3.742-2.218c-0.689,0-1.396,0.17-2.043,0.526
	c-3.835,2.084-7.852,3.828-11.996,5.209c-1.956,0.67-3.938,1.242-5.941,1.719c-8.258-6.885-18.598-10.788-29.354-11.063
	c-22.771,0.019-41.207,18.432-41.262,41.17c-0.002,0.05,0.002,0.063,0,0.065c0,2.061,0.157,4.121,0.471,6.158
	C80.6,71.189,48.814,58.848,26.335,32.6c-0.449-0.526-1.021-0.934-1.664-1.19c-0.516-0.206-1.053-0.304-1.575-0.304
	c-1.695,0-3.295,1.02-3.959,2.69C16.836,40.004,15.7,46.485,15.7,52.953c0,6.942,1.312,13.872,3.917,20.409
	c-0.612-0.475-1.217-0.96-1.813-1.458c-0.737-0.73-1.81-1.167-2.925-1.167c-0.077,0-0.144,0.002-0.202,0.006
	c-2.282,0.106-4.061,1.987-4.061,4.252c0,0.077,0.004,0.147,0.006,0.212c0.701,15.927,8.654,30.585,21.448,39.874
	c-0.018-0.004-0.036-0.009-0.054-0.013c-0.396-0.119-0.801-0.174-1.2-0.174c-0.308,0-0.616,0.035-0.914,0.1
	c-1.991,0.438-3.349,2.193-3.349,4.158c0,0.305,0.033,0.608,0.1,0.916c2.918,13.104,16.428,23.061,30.237,27.463
	c-15.274,7.746-31.994,12.254-49.109,13.223c-1.342,0.15-2.493,0.871-3.183,1.973c-0.443,0.696-0.656,1.487-0.656,2.265
	c0,1.409,0.708,2.799,1.993,3.606l0.036,0.022l0.033,0.019c10.55,5.517,30.214,10.672,54.396,10.68v-0.002
	c16.933-0.018,33.772-2.532,49.97-7.467h0.21h0.169l0.151-0.053c57.625-19.79,69.949-89.105,70.697-105.698
	c5.969-4.68,11.291-10.129,15.832-16.207c0.553-0.751,0.842-1.644,0.84-2.544C198.271,46.762,198.15,46.168,197.902,45.613z
	 M173.1,63.99c0.004,0.154,0.01,0.348,0.01,0.558c0.011,5.7-2.773,25.995-12.305,47.011c-9.537,21.045-25.768,42.84-52.604,52.118
	c-15.179,4.71-30.938,7.078-46.71,7.078c-11.755,0-23.52-1.313-35.068-3.948c19.19-3.901,37.388-11.673,44.305-18.529
	c0.693-0.697,1.124-1.606,1.219-2.584c0.015-0.146,0.021-0.285,0.021-0.426c0-2.168-1.64-4.016-3.838-4.234
	c-11.22-1.143-24.94-8.316-30.581-17.32c3.358-0.152,6.689-0.695,9.923-1.625c1.138-0.396,2.021-1.199,2.505-2.236
	c0.269-0.582,0.397-1.195,0.397-1.8c0.002-1.604-0.913-3.141-2.463-3.862c-14.065-6.498-23.525-17.028-27.072-29.708
	c3.609,2.319,7.389,4.368,11.306,6.125l0.046,0.021l0.048,0.017c0.441,0.147,0.899,0.221,1.354,0.221
	c1.163,0,2.301-0.477,3.121-1.359c0.761-0.819,1.142-1.866,1.14-2.902c0.002-1.138-0.458-2.282-1.356-3.118
	c-6.949-5.659-12.283-18.184-12.26-31.001c0-2.883,0.265-5.783,0.833-8.622C49.048,68.419,79.53,79.696,97.485,79.718
	c2.058,0,3.958-0.146,5.673-0.449c0.146-0.027,0.296-0.061,0.443-0.104c1.862-0.535,3.086-2.234,3.086-4.092
	c0-0.389-0.057-0.782-0.164-1.171c-0.834-2.913-1.256-5.921-1.256-8.946c-0.002-0.011,0-0.031,0-0.063
	c0.045-18.015,14.641-32.563,32.615-32.563c0.018,0,0.04,0,0.069,0c9.394-0.054,21.098,5.437,24.637,9.961
	c0.817,1.021,2.047,1.596,3.324,1.596c0.31,0,0.622-0.033,0.935-0.102c2.385-0.492,4.752-1.105,7.086-1.834
	c-1.151,1.272-2.355,2.498-3.607,3.676c-1.119,0.824-1.729,2.112-1.729,3.426c-0.002,0.658,0.153,1.323,0.469,1.939
	c0.592,1.117,1.107,2.255,1.557,3.422c0.208,0.564,0.539,1.088,0.977,1.525c0.838,0.786,1.914,0.905,3.151,0.926
	c1.522-0.005,3.397-0.299,5.408-0.749c-1.718,1.491-3.5,2.905-5.343,4.239c-1.094,0.815-1.724,2.083-1.724,3.422
	C173.093,63.853,173.096,63.923,173.1,63.99z"/>
</svg>
